<svg width="22" height="19" viewBox="0 0 22 19" fill="none" xmlns="http://www.w3.org/2000/svg">
<path d="M19.8341 1.8594C18.747 0.660369 17.2554 0 15.6336 0C14.4214 0 13.3113 0.389737 12.334 1.15829C11.8408 1.54624 11.394 2.02086 11 2.57484C10.6062 2.02103 10.1592 1.54624 9.66587 1.15829C8.68871 0.389737 7.57856 0 6.36636 0C4.74464 0 3.25285 0.660369 2.16578 1.8594C1.09168 3.04441 0.5 4.66332 0.5 6.41811C0.5 8.22423 1.16186 9.87752 2.58282 11.6212C3.85399 13.181 5.68095 14.7644 7.79662 16.5979C8.51904 17.224 9.33791 17.9338 10.1882 18.6898C10.4128 18.8899 10.701 19 11 19C11.2988 19 11.5872 18.8899 11.8115 18.6901C12.6618 17.9339 13.4811 17.2239 14.2039 16.5974C16.3192 14.7642 18.1462 13.181 19.4173 11.6211C20.8383 9.87752 21.5 8.22423 21.5 6.41795C21.5 4.66332 20.9083 3.04441 19.8341 1.8594Z" fill="#2B3134"/>
</svg>
