<svg width="14" height="14" viewBox="0 0 14 14" fill="none" xmlns="http://www.w3.org/2000/svg">
<path fill-rule="evenodd" clip-rule="evenodd" d="M0.410156 4H13.5898C13.8164 4 14 4.17514 14 4.39117V13.6088C14 13.8249 13.8164 14 13.5898 14H0.410156C0.183641 14 0 13.8249 0 13.6088V4.39117C0 4.17514 0.183641 4 0.410156 4ZM6.01937 11.4204L9.31429 9.32549C9.4284 9.25297 9.49695 9.13079 9.49695 9.00001C9.49695 8.86923 9.4284 8.74708 9.31429 8.67456L6.01937 6.57962C5.89356 6.49962 5.73174 6.49213 5.59833 6.56022C5.46498 6.62828 5.38171 6.76084 5.38171 6.9051V11.095C5.38171 11.2392 5.46498 11.3718 5.59833 11.4399C5.65898 11.4708 5.72548 11.4861 5.79184 11.4861C5.87141 11.4861 5.95074 11.464 6.01937 11.4204Z" fill="#2B3134"/>
<path d="M12.603 2H2.39702C2.17776 2 2 2.22387 2 2.5C2 2.77613 2.17776 3 2.39702 3H12.603C12.8222 3 13 2.77613 13 2.5C13 2.22387 12.8222 2 12.603 2Z" fill="#2B3134"/>
<path d="M11.5771 0H3.42293C3.18936 0 3 0.223867 3 0.5C3 0.776133 3.18936 1 3.42293 1H11.5771C11.8106 1 12 0.776133 12 0.5C12 0.223867 11.8106 0 11.5771 0Z" fill="#2B3134"/>
</svg>
