<svg width="48" height="41" viewBox="0 0 48 41" fill="none" xmlns="http://www.w3.org/2000/svg">
<path d="M40.0682 41H4.88636C2.19105 41 0 38.8151 0 36.1316V4.97368C0 4.43621 0.437818 4 0.977273 4C1.51673 4 1.95455 4.43621 1.95455 4.97368V36.1316C1.95455 37.7421 3.26995 39.0526 4.88636 39.0526H40.0682C40.6057 39.0526 41.0455 38.6164 41.0455 38.0789V30.2895C41.0455 29.752 41.4833 29.3158 42.0227 29.3158C42.5622 29.3158 43 29.752 43 30.2895V38.0789C43 39.6894 41.6846 41 40.0682 41Z" fill="url(#paint0_linear_0_87828)"/>
<path fill-rule="evenodd" clip-rule="evenodd" d="M41.0455 19C41.0455 19.552 41.4833 20 42.0227 20C42.5622 20 43 19.552 43 19V11C43 9.346 41.6846 8 40.0682 8H37.1364V3C37.1364 1.346 35.821 0 34.2045 0H4.88636C2.19105 0 0 2.244 0 5C0 7.756 2.19105 10 4.88636 10H40.0682C40.6057 10 41.0455 10.448 41.0455 11V19ZM1.95455 5C1.95455 3.346 3.26995 2 4.88636 2H34.2045C34.742 2 35.1818 2.448 35.1818 3V8H4.88636C3.26995 8 1.95455 6.654 1.95455 5Z" fill="url(#paint1_linear_0_87828)"/>
<path fill-rule="evenodd" clip-rule="evenodd" d="M37 31H47C47.552 31 48 30.552 48 30V18C48 17.448 47.552 17 47 17H37C33.14 17 30 20.14 30 24C30 27.86 33.14 31 37 31ZM32 24C32 21.244 34.242 19 37 19H46V29H37C34.242 29 32 26.756 32 24Z" fill="url(#paint2_linear_0_87828)"/>
<path fill-rule="evenodd" clip-rule="evenodd" d="M33 24C33 25.654 34.346 27 36 27C37.654 27 39 25.654 39 24C39 22.346 37.654 21 36 21C34.346 21 33 22.346 33 24ZM35 24C35 23.448 35.45 23 36 23C36.55 23 37 23.448 37 24C37 24.552 36.55 25 36 25C35.45 25 35 24.552 35 24Z" fill="url(#paint3_linear_0_87828)"/>
<defs>
<linearGradient id="paint0_linear_0_87828" x1="-21.2471" y1="22.3912" x2="15.0918" y2="64.8728" gradientUnits="userSpaceOnUse">
<stop stop-color="#00E476"/>
<stop offset="0.476746" stop-color="#00B2FD"/>
<stop offset="1" stop-color="#0074F0"/>
</linearGradient>
<linearGradient id="paint1_linear_0_87828" x1="-21.2471" y1="9.94119" x2="-6.09896" y2="42.7024" gradientUnits="userSpaceOnUse">
<stop stop-color="#00E476"/>
<stop offset="0.476746" stop-color="#00B2FD"/>
<stop offset="1" stop-color="#0074F0"/>
</linearGradient>
<linearGradient id="paint2_linear_0_87828" x1="21.1059" y1="23.9588" x2="34.5757" y2="41.3797" gradientUnits="userSpaceOnUse">
<stop stop-color="#00E476"/>
<stop offset="0.476746" stop-color="#00B2FD"/>
<stop offset="1" stop-color="#0074F0"/>
</linearGradient>
<linearGradient id="paint3_linear_0_87828" x1="30.0353" y1="23.9824" x2="36" y2="29.9824" gradientUnits="userSpaceOnUse">
<stop stop-color="#00E476"/>
<stop offset="0.476746" stop-color="#00B2FD"/>
<stop offset="1" stop-color="#0074F0"/>
</linearGradient>
</defs>
</svg>
