<svg width="45" height="48" viewBox="0 0 45 48" fill="none" xmlns="http://www.w3.org/2000/svg">
<path fill-rule="evenodd" clip-rule="evenodd" d="M14.1107 33.3184V7.76764L45 0V32.8096C45 37.4456 41.198 41.2173 36.5248 41.2173C31.8515 41.2173 28.0495 37.4456 28.0495 32.8096C28.0495 28.1737 31.8515 24.402 36.5248 24.402C38.6865 24.402 40.6614 25.2095 42.1602 26.5358V12.7363L16.9505 19.0757V39.6099H16.9503C16.9407 44.2378 13.1427 48 8.47522 48C3.80199 48 0 44.2283 0 39.5923C0 34.9563 3.80199 31.1847 8.47522 31.1847C10.637 31.1847 12.6119 31.9921 14.1107 33.3184ZM2.83994 39.5922C2.83994 42.6749 5.36802 45.1827 8.47531 45.1827C11.5827 45.1827 14.1107 42.6749 14.1108 39.5922C14.1108 36.5096 11.5827 34.0017 8.47531 34.0017C5.36793 34.0017 2.83994 36.5096 2.83994 39.5922ZM16.9505 16.1696V9.95979L42.1602 3.62043V9.83014L16.9505 16.1696ZM30.8893 32.8096C30.8893 35.8922 33.4174 38.4001 36.5248 38.4001C39.6322 38.4001 42.1602 35.8923 42.1602 32.8096C42.1602 29.727 39.6321 27.2192 36.5248 27.2192C33.4173 27.2192 30.8893 29.7271 30.8893 32.8096Z" fill="url(#paint0_linear_0_87809)"/>
<defs>
<linearGradient id="paint0_linear_0_87809" x1="-22.2354" y1="23.8589" x2="25.4013" y2="68.7824" gradientUnits="userSpaceOnUse">
<stop stop-color="#00E476"/>
<stop offset="0.476746" stop-color="#00B2FD"/>
<stop offset="1" stop-color="#0074F0"/>
</linearGradient>
</defs>
</svg>
