<svg width="146" height="127" viewBox="0 0 146 127" fill="none" xmlns="http://www.w3.org/2000/svg">
<path d="M127.612 44.4634C136.328 74.3663 119.278 101.975 91.5928 112.708C63.4069 123.63 28.1697 118.213 3.6292 101.095C-1.4786 97.5236 4.07597 90.4182 9.24352 93.421C31.8245 106.529 59.6528 111.535 84.862 103.667C95.8268 100.315 105.465 93.583 112.411 84.4264C121.579 72.4597 121.794 58.9774 122.073 44.6742C122.137 41.2329 126.8 41.7345 127.612 44.4634Z" fill="white"/>
<path d="M125.638 13.5483C132.166 25.8603 140.295 39.0951 141.237 53.3922C141.358 54.4464 140.638 55.4127 139.601 55.5876C138.563 55.7626 137.574 55.0846 137.353 54.0471C134.004 41.7605 128.274 31.0071 121.929 20.1889C116.232 26.0375 111.327 32.9639 104.839 37.8264C103.644 38.731 101.979 38.632 100.901 37.5923C99.8237 36.5526 99.6505 34.8771 100.492 33.6313C106.169 25.6394 112.922 18.4845 120.554 12.3739C121.355 11.7505 122.389 11.521 123.373 11.7484C124.358 11.9758 125.188 12.6361 125.638 13.5483Z" fill="white"/>
</svg>
