<svg width="147" height="127" viewBox="0 0 147 127" fill="none" xmlns="http://www.w3.org/2000/svg">
<path d="M18.5331 44.6192C9.81686 74.522 26.8672 102.13 54.5525 112.864C82.7384 123.785 117.976 118.369 142.516 101.25C147.624 97.6793 142.069 90.574 136.902 93.5767C114.321 106.685 86.4924 111.69 61.2833 103.823C50.3184 100.471 40.6799 93.7388 33.734 84.5822C24.5664 72.6155 24.3512 59.1332 24.0728 44.83C24.0087 41.3886 19.3452 41.8903 18.5331 44.6192Z" fill="white"/>
<path d="M20.5072 13.7041C13.9794 26.0161 5.85061 39.2509 4.90825 53.5479C4.78706 54.6022 5.50729 55.5684 6.54468 55.7434C7.58207 55.9184 8.57107 55.2403 8.79181 54.2029C12.1415 41.9163 17.871 31.1628 24.2162 20.3447C29.9135 26.1933 34.8184 33.1197 41.3062 37.9821C42.501 38.8868 44.1667 38.7878 45.2441 37.7481C46.3216 36.7083 46.4948 35.0329 45.6535 33.7871C39.9764 25.7952 33.2236 18.6403 25.5908 12.5296C24.7902 11.9063 23.756 11.6768 22.7719 11.9042C21.7877 12.1315 20.9569 12.7919 20.5072 13.7041Z" fill="white"/>
</svg>
