<svg width="39" height="33" viewBox="0 0 39 33" fill="none" xmlns="http://www.w3.org/2000/svg">
<path d="M34.5791 23.4384C37.9837 15.1083 33.9219 6.65928 26.2978 2.73864C18.5356 -1.25136 8.25624 -0.759218 0.694572 3.41905C-0.879543 4.29104 0.500683 6.50074 2.0748 5.7939C8.95293 2.70891 17.093 2.11107 24.0927 5.1333C27.1394 6.42798 29.7033 8.65366 31.421 11.4948C33.6918 15.2107 33.3468 19.0917 32.9952 23.2105C32.9097 24.2014 34.2637 24.1981 34.5791 23.4384Z" fill="#0074F0"/>
<path d="M33.2415 32.5414C35.5123 29.1823 38.276 25.6052 38.9859 21.5029C39.0532 21.2019 38.8736 20.9009 38.5778 20.8188C38.282 20.7367 37.9741 20.9026 37.8784 21.1957C36.531 24.644 34.5396 27.577 32.3674 30.5101C30.8918 28.6472 29.6792 26.497 27.9441 24.895C27.6248 24.5973 27.1382 24.5754 26.7937 24.8431C26.4492 25.1107 26.3478 25.5896 26.554 25.9751C27.9583 28.4566 29.7004 30.729 31.7298 32.7264C31.9432 32.9308 32.2365 33.0285 32.5291 32.9927C32.8218 32.9569 33.0831 32.7913 33.2415 32.5414Z" fill="#0074F0"/>
</svg>
