<svg width="21" height="21" viewBox="0 0 21 21" fill="none" xmlns="http://www.w3.org/2000/svg">
<path d="M12.8129 10.5L20.6645 2.64754C20.8805 2.43138 20.9997 2.14299 21 1.83549C21 1.52781 20.8808 1.23908 20.6645 1.02326L19.9765 0.335339C19.7601 0.118666 19.4718 0 19.164 0C18.8566 0 18.5683 0.118666 18.352 0.335339L10.5003 8.18729L2.64839 0.335339C2.43241 0.118666 2.14388 0 1.83622 0C1.5289 0 1.24037 0.118666 1.02439 0.335339L0.336 1.02326C-0.112 1.47129 -0.112 2.20002 0.336 2.64754L8.18778 10.5L0.336 18.3521C0.119854 18.5686 0.000853659 18.857 0.000853659 19.1645C0.000853659 19.472 0.119854 19.7604 0.336 19.9767L1.02422 20.6647C1.2402 20.8812 1.5289 21 1.83605 21C2.14371 21 2.43224 20.8812 2.64822 20.6647L10.5002 12.8125L18.3518 20.6647C18.5681 20.8812 18.8565 21 19.1638 21C19.4716 21 19.76 20.8812 19.9763 20.6647L20.6643 19.9767C20.8803 19.7606 20.9995 19.472 20.9995 19.1645C20.9995 18.857 20.8803 18.5686 20.6643 18.3523L12.8129 10.5Z" fill="white"/>
</svg>
