<svg width="9" height="16" viewBox="0 0 9 16" fill="none" xmlns="http://www.w3.org/2000/svg">
<path d="M4.5068 6.66287e-05C4.31151 0.00307074 4.12514 0.0801281 3.98742 0.214817L0.24352 3.85568C0.0404436 4.03634 -0.0444163 4.31073 0.0225006 4.57035C0.0894176 4.82997 0.297335 5.033 0.564024 5.09915C0.830714 5.1653 1.11323 5.08391 1.29983 4.88717L3.76066 2.49408L3.76666 15.2875C3.7757 15.6836 4.10841 16 4.51573 16C4.92306 16 5.25577 15.6836 5.2648 15.2875L5.2588 2.47985L7.72987 4.88717C8.02457 5.16181 8.49093 5.15713 8.77975 4.87665C9.06858 4.59616 9.07403 4.14266 8.79202 3.85568L5.04813 0.214817C4.90504 0.0748916 4.7097 -0.00260028 4.5068 6.66287e-05Z" fill="#2B3134"/>
</svg>
