<svg width="14" height="15" viewBox="0 0 14 15" fill="none" xmlns="http://www.w3.org/2000/svg">
<path fill-rule="evenodd" clip-rule="evenodd" d="M4.38999 10.412V2.42739L14 0V10.253C14 11.7017 12.8172 12.8804 11.3633 12.8804C9.90934 12.8804 8.7265 11.7018 8.7265 10.253C8.7265 8.80428 9.90934 7.62564 11.3633 7.62564C12.0358 7.62564 12.6502 7.87797 13.1165 8.29243V3.98009L5.2735 5.96117V12.3781H5.27344C5.27044 13.8243 4.08883 15 2.63673 15C1.18284 15 0 13.8214 0 12.3726C0 10.9238 1.18284 9.74521 2.63673 9.74521C3.30929 9.74521 3.92372 9.99754 4.38999 10.412ZM0.883537 12.3726C0.883537 13.3359 1.67005 14.1196 2.63676 14.1196C3.60351 14.1196 4.38999 13.3359 4.39002 12.3726C4.39002 11.4092 3.60351 10.6255 2.63676 10.6255C1.67002 10.6255 0.883537 11.4093 0.883537 12.3726ZM5.2735 5.053V3.11244L13.1165 1.13138V3.07192L5.2735 5.053ZM9.61001 10.253C9.61001 11.2163 10.3965 12 11.3633 12C12.33 12 13.1165 11.2163 13.1165 10.253C13.1165 9.2897 12.33 8.50601 11.3633 8.50601C10.3965 8.50601 9.61001 9.28973 9.61001 10.253Z" fill="#2B3134"/>
</svg>
