<svg width="16" height="16" viewBox="0 0 16 16" fill="none" xmlns="http://www.w3.org/2000/svg">
<path fill-rule="evenodd" clip-rule="evenodd" d="M3.0832 15.3414C3.23176 15.4465 3.40584 15.5 3.58114 15.5C3.73251 15.5 3.88254 15.4601 4.01718 15.3819L7.99995 13.0522L11.9827 15.3806C12.2734 15.5515 12.6414 15.5364 12.9174 15.3408C13.194 15.1452 13.3234 14.808 13.248 14.4818L12.2187 10.0463L15.7095 7.05204C15.9661 6.8329 16.0635 6.48526 15.9581 6.16832C15.8528 5.85138 15.5662 5.62627 15.2261 5.59629L10.608 5.18608L8.78195 1.00479C8.6473 0.698358 8.34065 0.5 7.99995 0.5C7.65924 0.5 7.35259 0.698358 7.21794 1.00551L5.39185 5.18608L0.773084 5.59629C0.43372 5.62698 0.147092 5.85138 0.0417425 6.16832C-0.0636068 6.48586 0.0344181 6.8329 0.291016 7.05204L3.78182 10.0469L2.7525 14.4825C2.67718 14.808 2.80646 15.1452 3.0832 15.3414ZM8.43599 12.1672C8.30122 12.089 8.15132 12.0492 7.99995 12.0492C7.84858 12.0492 7.69855 12.089 7.5639 12.1672L3.80514 14.3657L4.77587 10.1793C4.84582 9.88064 4.74254 9.57015 4.50645 9.36797L1.21047 6.54008L5.57191 6.15268C5.88515 6.12461 6.15517 5.93151 6.27652 5.65039L7.99995 1.7046L9.7213 5.64979C9.84399 5.93282 10.114 6.12593 10.428 6.15399L14.7888 6.54139L11.4927 9.36928C11.2573 9.57086 11.154 9.88196 11.2233 10.1799L12.1948 14.3665L8.43599 12.1672Z" fill="black"/>
</svg>
