<svg width="14" height="15" viewBox="0 0 14 15" fill="none" xmlns="http://www.w3.org/2000/svg">
<path fill-rule="evenodd" clip-rule="evenodd" d="M2.64844 4.22671C2.64844 1.89514 4.59821 0 6.997 0C9.39579 0 11.3456 1.89514 11.3456 4.22671C11.3456 6.55829 9.39579 8.45343 6.997 8.45343C4.59821 8.45343 2.64844 6.55829 2.64844 4.22671ZM4.15522 4.22378C4.15522 5.74692 5.42995 6.98594 6.997 6.98594C8.56405 6.98594 9.83878 5.74985 9.83878 4.22671C9.83878 2.70357 8.56104 1.46456 6.997 1.46456C5.43296 1.46456 4.15522 2.70064 4.15522 4.22378Z" fill="#2B3134"/>
<path d="M13.9283 12.437C13.5365 11.034 12.7168 9.8008 11.5566 8.8752C11.2342 8.61744 10.761 8.6643 10.4959 8.97479C10.2307 9.28821 10.2789 9.74808 10.5983 10.0058C11.5144 10.741 12.1654 11.7135 12.4727 12.8207C12.536 13.0521 12.4366 13.222 12.3733 13.307C12.2588 13.4505 12.087 13.5354 11.9002 13.5354C11.4843 13.5354 11.1468 13.8635 11.1468 14.2677C11.1468 14.6719 11.4843 15 11.9002 15C12.5601 15 13.1689 14.7071 13.5697 14.1974C13.9675 13.6907 14.1001 13.0492 13.9283 12.437Z" fill="#2B3134"/>
<path d="M9.19209 13.5325H2.09517C1.84203 13.5325 1.69436 13.3919 1.62806 13.3069C1.51355 13.1605 1.47739 12.9759 1.52862 12.8002C1.83901 11.7047 2.48391 10.7381 3.391 10.0117C3.71043 9.7539 3.75865 9.29403 3.49346 8.98062C3.22826 8.6672 2.75513 8.62326 2.43268 8.88103C1.28452 9.8037 0.467845 11.0222 0.0760829 12.4135C-0.0987033 13.0345 0.0308796 13.6848 0.431683 14.1974C0.826459 14.7041 1.4352 14.997 2.09517 14.997H9.19209C9.60796 14.997 9.94548 14.669 9.94548 14.2647C9.94548 13.8605 9.60796 13.5325 9.19209 13.5325Z" fill="#2B3134"/>
</svg>
