<svg width="148" height="130" viewBox="0 0 148 130" fill="none" xmlns="http://www.w3.org/2000/svg">
<path d="M24.4594 96.0545C9.23989 68.8788 19.6427 38.1424 44.204 21.4567C69.2106 4.47439 104.763 1.82505 132.525 12.9846C138.306 15.3152 134.492 23.488 128.781 21.7246C103.83 14.0318 75.5892 15.4149 52.7959 28.7511C42.8663 34.4845 34.9891 43.2119 30.281 53.6963C24.0402 67.4186 26.8635 80.6037 29.8097 94.603C30.5214 97.9705 25.8646 98.5308 24.4594 96.0545Z" fill="white"/>
<path d="M33.3377 125.733C24.2075 115.205 13.3099 104.138 9.17555 90.4197C8.82032 89.4198 9.30472 88.3162 10.2762 87.9124C11.2476 87.5086 12.3638 87.9467 12.8122 88.9079C18.84 100.126 26.8416 109.315 35.4578 118.429C39.6933 111.448 42.9145 103.596 48.1422 97.3988C49.1028 96.2486 50.7481 95.9703 52.0318 96.741C53.3156 97.5117 53.8612 99.1053 53.3218 100.508C49.5879 109.573 44.6177 118.063 38.5552 125.734C37.9153 126.522 36.9592 126.978 35.9492 126.978C34.9391 126.978 33.981 126.521 33.3377 125.733Z" fill="white"/>
</svg>
