<svg width="25" height="34" viewBox="0 0 25 34" fill="none" xmlns="http://www.w3.org/2000/svg">
<path d="M8.65275 34C8.51214 34 8.36983 33.9736 8.23388 33.9184C7.75804 33.7253 7.50068 33.2367 7.62562 32.7636L11.2061 19.2049H1.55885C1.20965 19.2049 0.8829 19.043 0.685465 18.772C0.48803 18.501 0.445324 18.1559 0.571324 17.8495L7.64863 0.636767C7.8064 0.253007 8.19872 0 8.63609 0H18.3745C18.7323 0 19.0659 0.169999 19.2614 0.451959C19.4568 0.733919 19.4877 1.08966 19.3435 1.39771L15.1527 10.3466H23.4412C23.8284 10.3466 24.1847 10.5455 24.3704 10.8652C24.556 11.1849 24.5414 11.5744 24.3321 11.881L9.54413 33.5421C9.34416 33.835 9.00406 34 8.65275 34Z" fill="white"/>
</svg>
