<svg width="66" height="256" viewBox="0 0 66 256" fill="none" xmlns="http://www.w3.org/2000/svg">
<path opacity="0.599135" d="M0 15C0 6.71573 6.71573 0 15 0H66V256H15C6.71573 256 0 249.284 0 241V15Z" fill="#001542"/>
<path d="M24.5877 111.001C23.5537 110.978 22.6189 111.61 22.2587 112.576C21.8985 113.542 22.192 114.629 22.99 115.284L37.8432 127.961L22.99 140.633C22.2559 141.17 21.8857 142.072 22.0312 142.968C22.1768 143.864 22.8136 144.603 23.6803 144.882C24.5471 145.162 25.4979 144.934 26.1427 144.293L43.1483 129.798C43.6887 129.339 44 128.666 44 127.959C44 127.251 43.6887 126.578 43.1483 126.119L26.1427 111.61C25.7131 111.23 25.1621 111.014 24.5877 111V111.001Z" fill="white"/>
</svg>
