<svg width="11" height="12" viewBox="0 0 11 12" fill="none" xmlns="http://www.w3.org/2000/svg">
<path d="M3.44928 1.94191V8.3296C3.08292 7.99803 2.60016 7.79616 2.07172 7.79616C0.929376 7.79616 0 8.73908 0 9.89808C0 11.0571 0.929376 12 2.07172 12C3.21266 12 4.14106 11.0595 4.14342 9.90246H4.14346V4.76894L10.3058 3.18407V6.63395C9.93946 6.30238 9.45669 6.10051 8.92828 6.10051C7.78591 6.10051 6.85654 7.04342 6.85654 8.20241C6.85654 9.36141 7.78591 10.3043 8.92828 10.3043C10.0706 10.3043 11 9.36139 11 8.20241V0L3.44928 1.94191Z" fill="#0074F0"/>
</svg>
