<svg width="15" height="17" viewBox="0 0 15 17" fill="none" xmlns="http://www.w3.org/2000/svg">
<path fill-rule="evenodd" clip-rule="evenodd" d="M14.85 13.446L13.6747 11.8317C13.0765 11.006 12.7523 10.0037 12.75 8.97329V6.18208C12.7469 3.49552 10.8307 1.21837 8.25 0.834581V0.77276C8.25 0.345977 7.91421 0 7.5 0C7.08579 0 6.75 0.345977 6.75 0.77276V0.834581C4.16931 1.21837 2.25306 3.49552 2.25 6.18208V8.97329C2.24786 10.0038 1.92389 11.0063 1.326 11.8325L0.150004 13.446C-0.0204431 13.6802 -0.04786 13.9935 0.0791839 14.2553C0.206228 14.5171 0.465925 14.6824 0.750004 14.6824H4.6065C4.94327 16.0457 6.13466 17 7.5 17C8.86534 17 10.0567 16.0457 10.3935 14.6824H14.25C14.5341 14.6824 14.7938 14.5171 14.9208 14.2553C15.0479 13.9935 15.0204 13.6802 14.85 13.446ZM7.5 15.4552C6.96651 15.4535 6.47431 15.159 6.2085 14.6824H8.7915C8.52569 15.159 8.03349 15.4535 7.5 15.4552ZM2.526 12.7583L2.25 13.1369H12.75L12.4747 12.7598C11.6822 11.6661 11.2527 10.3383 11.25 8.97329V6.18208C11.25 4.04816 9.57107 2.31828 7.5 2.31828C5.42893 2.31828 3.75 4.04816 3.75 6.18208V8.97329C3.74689 10.3376 3.31774 11.6647 2.526 12.7583Z" fill="#000035"/>
</svg>
