<svg width="18" height="14" viewBox="0 0 18 14" fill="none" xmlns="http://www.w3.org/2000/svg">
<path fill-rule="evenodd" clip-rule="evenodd" d="M16.2 0H1.8C0.80634 0.00106091 0.00109123 0.783941 0 1.75V12.25C0.00109123 13.2161 0.80634 13.9989 1.8 14H16.2C17.1937 13.9989 17.9989 13.2161 18 12.25V1.75C17.9989 0.783941 17.1937 0.00106091 16.2 0ZM16.8 12.0084L12.7242 8.04592C12.4888 7.82485 12.1145 7.82801 11.8831 8.05302C11.6517 8.27803 11.6484 8.64186 11.8758 8.87075L15.9515 12.8333H2.04846L6.1242 8.87075C6.35158 8.64186 6.34833 8.27803 6.11689 8.05302C5.88545 7.82801 5.51123 7.82485 5.2758 8.04592L1.2 12.0084V3.46687L7.95354 8.15687C8.58211 8.58343 9.41765 8.58343 10.0462 8.15687L16.8 3.46693V12.0084ZM16.2 1.16667H1.8C1.46881 1.16708 1.20043 1.42801 1.2 1.75V2.03309L8.6511 7.20738C8.85967 7.35237 9.13996 7.35249 9.34866 7.20767L16.8 2.03309V1.75C16.7996 1.42801 16.5312 1.16708 16.2 1.16667Z" fill="#000035"/>
</svg>
