<svg width="17" height="18" viewBox="0 0 17 18" fill="none" xmlns="http://www.w3.org/2000/svg">
<path d="M5.3307 2.91287V12.4944C4.76451 11.997 4.01842 11.6942 3.20175 11.6942C1.43631 11.6942 0 13.1086 0 14.8471C0 16.5856 1.43631 18 3.20175 18C4.96501 18 6.39982 16.5892 6.40346 14.8537H6.40353V7.1534L15.9272 4.77611V9.95092C15.361 9.45357 14.6149 9.15077 13.7983 9.15077C12.0328 9.15077 10.5965 10.5651 10.5965 12.3036C10.5965 14.0421 12.0328 15.4565 13.7983 15.4565C15.5637 15.4565 17 14.0421 17 12.3036V0L5.3307 2.91287Z" fill="white"/>
</svg>
