<svg width="14" height="20" viewBox="0 0 14 20" fill="none" xmlns="http://www.w3.org/2000/svg">
<path d="M4.75577 20C4.67375 20 4.59073 19.9845 4.51143 19.952C4.23386 19.8384 4.08373 19.551 4.15661 19.2727L6.24524 11.297H0.617663C0.413964 11.297 0.223358 11.2018 0.108188 11.0423C-0.00698273 10.8829 -0.0318945 10.6799 0.0416054 10.4997L4.17003 0.374569C4.26206 0.148828 4.49092 0 4.74605 0H10.4268C10.6355 0 10.8301 0.0999996 10.9442 0.265858C11.0581 0.431717 11.0762 0.640974 10.992 0.822184L8.54742 6.08623H13.3824C13.6082 6.08623 13.8161 6.20322 13.9244 6.3913C14.0327 6.57935 14.0241 6.80849 13.902 6.9888L5.27574 19.7306C5.15909 19.903 4.9607 20 4.75577 20Z" fill="white"/>
</svg>
