<svg width="27" height="42" viewBox="0 0 27 42" fill="none" xmlns="http://www.w3.org/2000/svg">
<g filter="url(#filter0_d_0_83722)">
<path d="M9.17184 40C9.01365 40 8.85356 39.9689 8.70061 39.904C8.1653 39.6769 7.87576 39.102 8.01632 38.5454L12.0444 22.5941H1.19121C0.798359 22.5941 0.430762 22.4035 0.208648 22.0847C-0.0134667 21.7659 -0.0615107 21.3598 0.0802391 20.9994L8.04221 0.749138C8.2197 0.297655 8.66106 0 9.1531 0H20.1088C20.5113 0 20.8866 0.199999 21.1066 0.531717C21.3264 0.863434 21.3612 1.28195 21.1989 1.64437L16.4843 12.1725H25.8088C26.2445 12.1725 26.6453 12.4064 26.8542 12.7826C27.063 13.1587 27.0465 13.617 26.8111 13.9776L10.1747 39.4613C9.94968 39.8059 9.56707 40 9.17184 40Z" fill="url(#paint0_linear_0_83722)"/>
</g>
<defs>
<filter id="filter0_d_0_83722" x="0" y="0" width="27" height="42" filterUnits="userSpaceOnUse" color-interpolation-filters="sRGB">
<feFlood flood-opacity="0" result="BackgroundImageFix"/>
<feColorMatrix in="SourceAlpha" type="matrix" values="0 0 0 0 0 0 0 0 0 0 0 0 0 0 0 0 0 0 127 0" result="hardAlpha"/>
<feOffset dy="2"/>
<feColorMatrix type="matrix" values="0 0 0 0 0 0 0 0 0 0 0 0 0 0 0 0 0 0 0.5 0"/>
<feBlend mode="normal" in2="BackgroundImageFix" result="effect1_dropShadow_0_83722"/>
<feBlend mode="normal" in="SourceGraphic" in2="effect1_dropShadow_0_83722" result="shape"/>
</filter>
<linearGradient id="paint0_linear_0_83722" x1="-13.3412" y1="19.8824" x2="23.6196" y2="44.9785" gradientUnits="userSpaceOnUse">
<stop stop-color="#00E476"/>
<stop offset="0.476746" stop-color="#00B2FD"/>
<stop offset="1" stop-color="#0074F0"/>
</linearGradient>
</defs>
</svg>
