<svg width="17" height="18" viewBox="0 0 17 18" fill="none" xmlns="http://www.w3.org/2000/svg">
<path fill-rule="evenodd" clip-rule="evenodd" d="M15.7698 9.81425L16.4994 10.4307C17.0187 10.8694 17.1515 11.6217 16.8152 12.2195L15.3744 14.7805C15.0381 15.3783 14.3369 15.6364 13.707 15.3943L12.822 15.054C12.2168 14.8213 11.5541 15.213 11.4477 15.8683L11.2923 16.8249C11.1818 17.5058 10.6133 18 9.94074 18H7.05924C6.38664 18 5.81819 17.5058 5.70761 16.8249L5.55222 15.8682C5.44599 15.2141 4.78429 14.8208 4.17798 15.0539L3.29299 15.3942C2.66308 15.6363 1.96191 15.3782 1.62558 14.7805L0.184814 12.2195C-0.151484 11.6217 -0.0186706 10.8694 0.500592 10.4306L1.23026 9.81422C1.72914 9.39277 1.73013 8.60801 1.23026 8.18571L0.500627 7.56928C-0.0186705 7.13053 -0.151449 6.37822 0.184848 5.78046L1.62558 3.2195C1.96195 2.62174 2.66325 2.36366 3.29299 2.60575L4.17801 2.94606C4.78309 3.17865 5.44582 2.78719 5.55225 2.13177L5.70764 1.17506C5.81819 0.494191 6.38664 0 7.05927 0H9.94077C10.6134 0 11.1818 0.494191 11.2924 1.17503L11.4477 2.13177C11.554 2.78603 12.2158 3.17904 12.822 2.94602L13.707 2.60575C14.3367 2.36366 15.0381 2.62171 15.3744 3.2195L16.8152 5.7805C17.1515 6.37833 17.0187 7.1306 16.4994 7.56932L15.7698 8.18575C15.2708 8.60716 15.2699 9.39199 15.7698 9.81425ZM13.3027 13.7371L14.1877 14.0774L15.6284 11.5163L14.8988 10.8999C13.7348 9.91649 13.7324 8.08537 14.8988 7.10002L15.6284 6.48359L15.6288 6.48327L14.1877 3.92263L13.3027 4.26291C11.8908 4.80565 10.3445 3.89232 10.0961 2.36296L9.94074 1.40625H7.05924L6.90389 2.36296C6.65604 3.8892 5.11209 4.80677 3.69729 4.26291L2.8123 3.92263L1.37153 6.48362L2.10117 7.10005C3.26514 8.08344 3.26757 9.91452 2.10117 10.8999L1.37153 11.5164L2.81227 14.0774L3.69729 13.7371C5.10932 13.1942 6.65556 14.1079 6.90389 15.637L7.05927 16.5938H9.94078L10.0961 15.637C10.344 14.1108 11.888 13.1932 13.3027 13.7371ZM8.50001 5.53124C6.63627 5.53124 5.12 7.08732 5.12 9C5.12 10.9127 6.63627 12.4688 8.50001 12.4688C10.3637 12.4688 11.88 10.9127 11.88 9C11.88 7.08732 10.3637 5.53124 8.50001 5.53124ZM6.49027 9C6.49027 10.1373 7.39184 11.0625 8.50001 11.0625C9.60818 11.0625 10.5097 10.1373 10.5097 9C10.5097 7.86273 9.60818 6.93749 8.50001 6.93749C7.39184 6.93749 6.49027 7.86273 6.49027 9Z" fill="#001542"/>
</svg>
