<svg width="725" height="608" viewBox="0 0 725 608" fill="none" xmlns="http://www.w3.org/2000/svg">
<path d="M0 0H705C716.046 0 725 8.95431 725 20V588C725 599.046 716.046 608 705 608H0V0Z" fill="url(#paint0_linear_0_87767)"/>
<mask id="mask0_0_87767" style="mask-type:alpha" maskUnits="userSpaceOnUse" x="0" y="0" width="725" height="608">
<path d="M0 0H705C716.046 0 725 8.95431 725 20V588C725 599.046 716.046 608 705 608H0V0Z" fill="white"/>
</mask>
<g mask="url(#mask0_0_87767)">
<g opacity="0.098922">
<g filter="url(#filter0_f_0_87767)">
<path d="M-278 107C-278 107 -102.479 -0.756836 169 171.743C440.479 344.243 837 94 837 94" stroke="white"/>
</g>
<g filter="url(#filter1_f_0_87767)">
<path d="M-278 121.14C-278 121.14 -93.498 -6.50009 177.981 166C449.46 338.5 837 115 837 115" stroke="white"/>
</g>
<g filter="url(#filter2_f_0_87767)">
<path d="M-278 136.14C-278 136.14 -85.4792 -14.5001 186 158C457.479 330.5 837 136.14 837 136.14" stroke="white"/>
</g>
<g filter="url(#filter3_f_0_87767)">
<path d="M-278 151.14C-278 151.14 -85.4792 -24.5001 186 148C457.479 320.5 837 166 837 166" stroke="white"/>
</g>
<g filter="url(#filter4_f_0_87767)">
<path d="M-278 169.14C-278 169.14 -92.1794 -34 197.172 143.5C486.524 321 837 192 837 192" stroke="white"/>
</g>
</g>
<circle opacity="0.953246" cx="320.5" cy="269.5" r="19.5" fill="url(#paint1_linear_0_87767)"/>
<circle opacity="0.953246" cx="716.5" cy="95.5" r="19.5" fill="url(#paint2_linear_0_87767)"/>
<circle opacity="0.953246" cx="542" cy="340" r="29" fill="url(#paint3_linear_0_87767)"/>
<g opacity="0.198222">
<g filter="url(#filter5_f_0_87767)">
<path d="M-315 494.466C-315 494.466 -133.655 602.489 146.833 429.563C427.321 256.636 837 507.498 837 507.498" stroke="white"/>
</g>
<g filter="url(#filter6_f_0_87767)">
<path d="M-315 479.807C-315 479.807 -124.376 607.239 156.112 435.02C436.6 262.8 837 485.937 837 485.937" stroke="white"/>
</g>
<g filter="url(#filter7_f_0_87767)">
<path d="M-315 464.855C-315 464.855 -116.091 615.325 164.397 443.019C444.885 270.714 837 464.855 837 464.855" stroke="white"/>
</g>
<g filter="url(#filter8_f_0_87767)">
<path d="M-315 449.624C-315 449.624 -116.091 624.796 164.397 452.755C444.885 280.715 837 434.803 837 434.803" stroke="white"/>
</g>
<g filter="url(#filter9_f_0_87767)">
<path d="M-315 432.334C-315 432.334 -123.013 635.95 175.941 458.034C474.894 280.119 837 409.421 837 409.421" stroke="white"/>
</g>
</g>
<circle opacity="0.953246" cx="204" cy="125" r="29" fill="url(#paint4_linear_0_87767)"/>
<circle opacity="0.953246" cx="395" cy="28" r="29" fill="url(#paint5_linear_0_87767)"/>
<g opacity="0.161692">
<g filter="url(#filter10_f_0_87767)">
<path d="M844 19.0757C844 19.0757 667.377 -77.3518 394.194 77.012C121.01 231.376 -278 7.44253 -278 7.44253" stroke="white"/>
</g>
<g filter="url(#filter11_f_0_87767)">
<path d="M844 32.2753C844 32.2753 658.34 -81.2421 385.156 72.1719C111.973 225.586 -278 26.8148 -278 26.8148" stroke="white"/>
</g>
<g filter="url(#filter12_f_0_87767)">
<path d="M844 45.4416C844 45.4416 650.271 -88.5028 377.087 64.8789C103.903 218.261 -278 45.4416 -278 45.4416" stroke="white"/>
</g>
<g filter="url(#filter13_f_0_87767)">
<path d="M844 58.8355C844 58.8355 650.271 -97.4262 377.087 56.042C103.903 209.51 -278 72.0561 -278 72.0561" stroke="white"/>
</g>
<g filter="url(#filter14_f_0_87767)">
<path d="M844 74.9811C844 74.9811 657.013 -106.74 365.844 52.0446C74.6759 210.83 -278 95.4309 -278 95.4309" stroke="white"/>
</g>
</g>
<circle opacity="0.953246" cx="118.5" cy="182.5" r="19.5" fill="url(#paint6_linear_0_87767)"/>
<circle opacity="0.953246" cx="-2.5" cy="230.5" r="19.5" fill="url(#paint7_linear_0_87767)"/>
<circle opacity="0.953246" cx="74.5" cy="63.5" r="32.5" fill="url(#paint8_linear_0_87767)"/>
<circle opacity="0.953246" cx="493.5" cy="144.5" r="32.5" fill="url(#paint9_linear_0_87767)"/>
<circle opacity="0.953246" cx="157.5" cy="330.5" r="50.5" fill="url(#paint10_linear_0_87767)"/>
<circle opacity="0.953246" cx="416.5" cy="431.5" r="50.5" fill="url(#paint11_linear_0_87767)"/>
<circle opacity="0.425646" cx="749.5" cy="513.5" r="50.5" fill="url(#paint12_linear_0_87767)"/>
<circle opacity="0.953246" cx="50.5" cy="449.5" r="32.5" fill="url(#paint13_linear_0_87767)"/>
<circle opacity="0.953246" cx="138" cy="595" r="55" fill="url(#paint14_linear_0_87767)"/>
</g>
<defs>
<filter id="filter0_f_0_87767" x="-280.976" y="70.5387" width="1120.96" height="165.079" filterUnits="userSpaceOnUse" color-interpolation-filters="sRGB">
<feFlood flood-opacity="0" result="BackgroundImageFix"/>
<feBlend mode="normal" in="SourceGraphic" in2="BackgroundImageFix" result="shape"/>
<feGaussianBlur stdDeviation="1.35914" result="effect1_foregroundBlur_0_87767"/>
</filter>
<filter id="filter1_f_0_87767" x="-281" y="72.4668" width="1120.96" height="162.113" filterUnits="userSpaceOnUse" color-interpolation-filters="sRGB">
<feFlood flood-opacity="0" result="BackgroundImageFix"/>
<feBlend mode="normal" in="SourceGraphic" in2="BackgroundImageFix" result="shape"/>
<feGaussianBlur stdDeviation="1.35914" result="effect1_foregroundBlur_0_87767"/>
</filter>
<filter id="filter2_f_0_87767" x="-281.023" y="72.0062" width="1120.96" height="160.594" filterUnits="userSpaceOnUse" color-interpolation-filters="sRGB">
<feFlood flood-opacity="0" result="BackgroundImageFix"/>
<feBlend mode="normal" in="SourceGraphic" in2="BackgroundImageFix" result="shape"/>
<feGaussianBlur stdDeviation="1.35914" result="effect1_foregroundBlur_0_87767"/>
</filter>
<filter id="filter3_f_0_87767" x="-281.054" y="68.9208" width="1120.96" height="163.926" filterUnits="userSpaceOnUse" color-interpolation-filters="sRGB">
<feFlood flood-opacity="0" result="BackgroundImageFix"/>
<feBlend mode="normal" in="SourceGraphic" in2="BackgroundImageFix" result="shape"/>
<feGaussianBlur stdDeviation="1.35914" result="effect1_foregroundBlur_0_87767"/>
</filter>
<filter id="filter4_f_0_87767" x="-281.085" y="67.5323" width="1120.97" height="172.96" filterUnits="userSpaceOnUse" color-interpolation-filters="sRGB">
<feFlood flood-opacity="0" result="BackgroundImageFix"/>
<feBlend mode="normal" in="SourceGraphic" in2="BackgroundImageFix" result="shape"/>
<feGaussianBlur stdDeviation="1.35914" result="effect1_foregroundBlur_0_87767"/>
</filter>
<filter id="filter5_f_0_87767" x="-317.972" y="365.538" width="1157.95" height="165.471" filterUnits="userSpaceOnUse" color-interpolation-filters="sRGB">
<feFlood flood-opacity="0" result="BackgroundImageFix"/>
<feBlend mode="normal" in="SourceGraphic" in2="BackgroundImageFix" result="shape"/>
<feGaussianBlur stdDeviation="1.35914" result="effect1_foregroundBlur_0_87767"/>
</filter>
<filter id="filter6_f_0_87767" x="-317.996" y="366.546" width="1157.95" height="161.86" filterUnits="userSpaceOnUse" color-interpolation-filters="sRGB">
<feFlood flood-opacity="0" result="BackgroundImageFix"/>
<feBlend mode="normal" in="SourceGraphic" in2="BackgroundImageFix" result="shape"/>
<feGaussianBlur stdDeviation="1.35914" result="effect1_foregroundBlur_0_87767"/>
</filter>
<filter id="filter7_f_0_87767" x="-318.019" y="368.499" width="1157.96" height="160.421" filterUnits="userSpaceOnUse" color-interpolation-filters="sRGB">
<feFlood flood-opacity="0" result="BackgroundImageFix"/>
<feBlend mode="normal" in="SourceGraphic" in2="BackgroundImageFix" result="shape"/>
<feGaussianBlur stdDeviation="1.35914" result="effect1_foregroundBlur_0_87767"/>
</filter>
<filter id="filter8_f_0_87767" x="-318.046" y="368.126" width="1157.94" height="163.507" filterUnits="userSpaceOnUse" color-interpolation-filters="sRGB">
<feFlood flood-opacity="0" result="BackgroundImageFix"/>
<feBlend mode="normal" in="SourceGraphic" in2="BackgroundImageFix" result="shape"/>
<feGaussianBlur stdDeviation="1.35914" result="effect1_foregroundBlur_0_87767"/>
</filter>
<filter id="filter9_f_0_87767" x="-318.082" y="360.822" width="1157.96" height="173.35" filterUnits="userSpaceOnUse" color-interpolation-filters="sRGB">
<feFlood flood-opacity="0" result="BackgroundImageFix"/>
<feBlend mode="normal" in="SourceGraphic" in2="BackgroundImageFix" result="shape"/>
<feGaussianBlur stdDeviation="1.35914" result="effect1_foregroundBlur_0_87767"/>
</filter>
<filter id="filter10_f_0_87767" x="-280.96" y="-13.8905" width="1127.92" height="148.4" filterUnits="userSpaceOnUse" color-interpolation-filters="sRGB">
<feFlood flood-opacity="0" result="BackgroundImageFix"/>
<feBlend mode="normal" in="SourceGraphic" in2="BackgroundImageFix" result="shape"/>
<feGaussianBlur stdDeviation="1.35914" result="effect1_foregroundBlur_0_87767"/>
</filter>
<filter id="filter11_f_0_87767" x="-280.941" y="-11.3684" width="1127.92" height="144.888" filterUnits="userSpaceOnUse" color-interpolation-filters="sRGB">
<feFlood flood-opacity="0" result="BackgroundImageFix"/>
<feBlend mode="normal" in="SourceGraphic" in2="BackgroundImageFix" result="shape"/>
<feGaussianBlur stdDeviation="1.35914" result="effect1_foregroundBlur_0_87767"/>
</filter>
<filter id="filter12_f_0_87767" x="-280.921" y="-11.9407" width="1127.92" height="143.509" filterUnits="userSpaceOnUse" color-interpolation-filters="sRGB">
<feFlood flood-opacity="0" result="BackgroundImageFix"/>
<feBlend mode="normal" in="SourceGraphic" in2="BackgroundImageFix" result="shape"/>
<feGaussianBlur stdDeviation="1.35914" result="effect1_foregroundBlur_0_87767"/>
</filter>
<filter id="filter13_f_0_87767" x="-280.882" y="-14.6675" width="1127.91" height="146.55" filterUnits="userSpaceOnUse" color-interpolation-filters="sRGB">
<feFlood flood-opacity="0" result="BackgroundImageFix"/>
<feBlend mode="normal" in="SourceGraphic" in2="BackgroundImageFix" result="shape"/>
<feGaussianBlur stdDeviation="1.35914" result="effect1_foregroundBlur_0_87767"/>
</filter>
<filter id="filter14_f_0_87767" x="-280.871" y="-16.2526" width="1127.94" height="155.403" filterUnits="userSpaceOnUse" color-interpolation-filters="sRGB">
<feFlood flood-opacity="0" result="BackgroundImageFix"/>
<feBlend mode="normal" in="SourceGraphic" in2="BackgroundImageFix" result="shape"/>
<feGaussianBlur stdDeviation="1.35914" result="effect1_foregroundBlur_0_87767"/>
</filter>
<linearGradient id="paint0_linear_0_87767" x1="-358.237" y1="302.212" x2="236.335" y2="1015.39" gradientUnits="userSpaceOnUse">
<stop stop-color="#002068"/>
<stop offset="1" stop-color="#000035"/>
</linearGradient>
<linearGradient id="paint1_linear_0_87767" x1="281.729" y1="269.385" x2="320.5" y2="308.385" gradientUnits="userSpaceOnUse">
<stop stop-color="#002068"/>
<stop offset="1" stop-color="#000035"/>
</linearGradient>
<linearGradient id="paint2_linear_0_87767" x1="677.729" y1="95.3853" x2="716.5" y2="134.385" gradientUnits="userSpaceOnUse">
<stop stop-color="#002068"/>
<stop offset="1" stop-color="#000035"/>
</linearGradient>
<linearGradient id="paint3_linear_0_87767" x1="484.341" y1="339.829" x2="542" y2="397.829" gradientUnits="userSpaceOnUse">
<stop stop-color="#002068"/>
<stop offset="1" stop-color="#000035"/>
</linearGradient>
<linearGradient id="paint4_linear_0_87767" x1="146.341" y1="124.829" x2="204" y2="182.829" gradientUnits="userSpaceOnUse">
<stop stop-color="#002068"/>
<stop offset="1" stop-color="#000035"/>
</linearGradient>
<linearGradient id="paint5_linear_0_87767" x1="337.341" y1="27.8295" x2="395" y2="85.8295" gradientUnits="userSpaceOnUse">
<stop stop-color="#002068"/>
<stop offset="1" stop-color="#000035"/>
</linearGradient>
<linearGradient id="paint6_linear_0_87767" x1="79.7293" y1="182.385" x2="118.5" y2="221.385" gradientUnits="userSpaceOnUse">
<stop stop-color="#002068"/>
<stop offset="1" stop-color="#000035"/>
</linearGradient>
<linearGradient id="paint7_linear_0_87767" x1="-41.2707" y1="230.385" x2="-2.5" y2="269.385" gradientUnits="userSpaceOnUse">
<stop stop-color="#002068"/>
<stop offset="1" stop-color="#000035"/>
</linearGradient>
<linearGradient id="paint8_linear_0_87767" x1="9.88224" y1="63.3089" x2="74.5" y2="128.309" gradientUnits="userSpaceOnUse">
<stop stop-color="#002068"/>
<stop offset="1" stop-color="#000035"/>
</linearGradient>
<linearGradient id="paint9_linear_0_87767" x1="428.882" y1="144.309" x2="493.5" y2="209.309" gradientUnits="userSpaceOnUse">
<stop stop-color="#002068"/>
<stop offset="1" stop-color="#000035"/>
</linearGradient>
<linearGradient id="paint10_linear_0_87767" x1="57.0939" y1="330.203" x2="157.5" y2="431.203" gradientUnits="userSpaceOnUse">
<stop stop-color="#002068"/>
<stop offset="1" stop-color="#000035"/>
</linearGradient>
<linearGradient id="paint11_linear_0_87767" x1="316.094" y1="431.203" x2="416.5" y2="532.203" gradientUnits="userSpaceOnUse">
<stop stop-color="#002068"/>
<stop offset="1" stop-color="#000035"/>
</linearGradient>
<linearGradient id="paint12_linear_0_87767" x1="649.094" y1="513.203" x2="749.5" y2="614.203" gradientUnits="userSpaceOnUse">
<stop stop-color="#002068"/>
<stop offset="1" stop-color="#000035"/>
</linearGradient>
<linearGradient id="paint13_linear_0_87767" x1="-14.1178" y1="449.309" x2="50.5" y2="514.309" gradientUnits="userSpaceOnUse">
<stop stop-color="#002068"/>
<stop offset="1" stop-color="#000035"/>
</linearGradient>
<linearGradient id="paint14_linear_0_87767" x1="28.6469" y1="594.677" x2="138" y2="704.677" gradientUnits="userSpaceOnUse">
<stop stop-color="#002068"/>
<stop offset="1" stop-color="#000035"/>
</linearGradient>
</defs>
</svg>
