<svg width="48" height="48" viewBox="0 0 48 48" fill="none" xmlns="http://www.w3.org/2000/svg">
<path fill-rule="evenodd" clip-rule="evenodd" d="M20.1693 21.2379L31.3786 28.8218C31.7668 29.0845 32 29.5266 32 30C32 30.4735 31.7668 30.9157 31.3786 31.1782L20.1693 38.7621C19.9359 38.9201 19.666 39 19.3953 39C19.1695 39 18.9433 38.9445 18.7369 38.8325C18.2833 38.5861 18 38.1063 18 37.584V22.4161C18 21.8938 18.2833 21.4139 18.7369 21.1675C19.1906 20.9211 19.7412 20.9481 20.1693 21.2379ZM28.0891 30.0001L20.7907 25.0621V34.9381L28.0891 30.0001Z" fill="url(#paint0_linear_0_87817)"/>
<path fill-rule="evenodd" clip-rule="evenodd" d="M1.40625 12H46.5938C47.3704 12 48 12.6305 48 13.4082V46.5918C48 47.3695 47.3704 48 46.5938 48H1.40625C0.629625 48 0 47.3695 0 46.5918V13.4082C0 12.6305 0.629625 12 1.40625 12ZM2.8125 45.1836H45.1875V14.8164H2.8125V45.1836Z" fill="url(#paint1_linear_0_87817)"/>
<path d="M41.7916 6H5.60682C4.82945 6 4.19922 6.6716 4.19922 7.5C4.19922 8.3284 4.82945 9 5.60682 9H41.7916C42.569 9 43.1992 8.3284 43.1992 7.5C43.1992 6.6716 42.569 6 41.7916 6Z" fill="url(#paint2_linear_0_87817)"/>
<path d="M37.9887 0H10.8082C10.0296 0 9.39844 0.6716 9.39844 1.5C9.39844 2.3284 10.0296 3 10.8082 3H37.9887C38.7672 3 39.3984 2.3284 39.3984 1.5C39.3984 0.6716 38.7672 0 37.9887 0Z" fill="url(#paint3_linear_0_87817)"/>
<defs>
<linearGradient id="paint0_linear_0_87817" x1="11.0823" y1="29.9471" x2="28.4511" y2="43.536" gradientUnits="userSpaceOnUse">
<stop stop-color="#00E476"/>
<stop offset="0.476746" stop-color="#00B2FD"/>
<stop offset="1" stop-color="#0074F0"/>
</linearGradient>
<linearGradient id="paint1_linear_0_87817" x1="-23.7177" y1="29.8941" x2="10.5824" y2="75.8982" gradientUnits="userSpaceOnUse">
<stop stop-color="#00E476"/>
<stop offset="0.476746" stop-color="#00B2FD"/>
<stop offset="1" stop-color="#0074F0"/>
</linearGradient>
<linearGradient id="paint2_linear_0_87817" x1="-15.0714" y1="7.49118" x2="-14.618" y2="13.4213" gradientUnits="userSpaceOnUse">
<stop stop-color="#00E476"/>
<stop offset="0.476746" stop-color="#00B2FD"/>
<stop offset="1" stop-color="#0074F0"/>
</linearGradient>
<linearGradient id="paint3_linear_0_87817" x1="-5.42514" y1="1.49118" x2="-4.83797" y2="7.39763" gradientUnits="userSpaceOnUse">
<stop stop-color="#00E476"/>
<stop offset="0.476746" stop-color="#00B2FD"/>
<stop offset="1" stop-color="#0074F0"/>
</linearGradient>
</defs>
</svg>
