<svg width="49" height="47" viewBox="0 0 49 47" fill="none" xmlns="http://www.w3.org/2000/svg">
<path fill-rule="evenodd" clip-rule="evenodd" d="M9.4423 46.5031C9.89727 46.8324 10.4304 47 10.9672 47C11.4308 47 11.8903 46.875 12.3026 46.6299L24.4998 39.3303L36.6971 46.6258C37.5872 47.1613 38.7143 47.1141 39.5596 46.5012C40.4068 45.8883 40.803 44.8316 40.572 43.8097L37.4197 29.9117L48.1103 20.5297C48.8961 19.8431 49.1945 18.7538 48.8718 17.7607C48.5492 16.7676 47.6714 16.0623 46.6299 15.9684L32.4871 14.6831L26.8947 1.58168C26.4824 0.621523 25.5432 0 24.4998 0C23.4564 0 22.5173 0.621523 22.105 1.58393L16.5125 14.6831L2.36757 15.9684C1.32827 16.0646 0.450469 16.7676 0.127836 17.7607C-0.194796 18.7557 0.105405 19.8431 0.891237 20.5297L11.5818 29.9135L8.42954 43.8119C8.19887 44.8316 8.59478 45.8883 9.4423 46.5031ZM25.8352 36.5572C25.4225 36.3121 24.9634 36.1875 24.4998 36.1875C24.0363 36.1875 23.5768 36.3121 23.1644 36.5572L11.6532 43.446L14.6261 30.3285C14.8403 29.3927 14.524 28.4198 13.801 27.7863L3.70707 18.9256L17.064 17.7117C18.0233 17.6238 18.8502 17.0187 19.2218 16.1379L24.4998 3.77441L29.7715 16.136C30.1472 17.0228 30.9742 17.6279 31.9357 17.7158L45.2907 18.9297L35.1964 27.7904C34.4756 28.422 34.159 29.3968 34.3713 30.3304L37.3464 43.4482L25.8352 36.5572Z" fill="url(#paint0_linear_0_87841)"/>
<defs>
<linearGradient id="paint0_linear_0_87841" x1="-24.2119" y1="23.3618" x2="22.4598" y2="72.3073" gradientUnits="userSpaceOnUse">
<stop stop-color="#00E476"/>
<stop offset="0.476746" stop-color="#00B2FD"/>
<stop offset="1" stop-color="#0074F0"/>
</linearGradient>
</defs>
</svg>
