<svg width="42" height="42" viewBox="0 0 42 42" fill="none" xmlns="http://www.w3.org/2000/svg">
<g opacity="0.50303">
<path d="M13.9406 11.1229C14.5398 11.4458 15.2878 11.2224 15.611 10.6244C16.6923 8.62483 18.7729 7.38265 21.0409 7.38265C23.309 7.38265 25.3895 8.62483 26.4706 10.6244C26.793 11.2206 27.5402 11.4466 28.1411 11.1229C28.7403 10.8002 28.9639 10.0538 28.6406 9.45571C27.1285 6.65906 24.2164 4.92175 21.0409 4.92175C17.8653 4.92175 14.9533 6.65906 13.4411 9.45571C13.1177 10.0537 13.3414 10.8002 13.9406 11.1229Z" fill="#2B3134"/>
<path fill-rule="evenodd" clip-rule="evenodd" d="M8.63014 17.2263H17.3425V22.2301H16.1096C14.0702 22.2301 12.411 23.886 12.411 25.9214V31.8242C12.411 37.2991 16.6262 42.0497 22.3679 41.9992C27.7546 41.9479 32.137 37.5322 32.137 32.1556V27.7771C32.137 26.1623 31.097 24.6885 29.6079 24.1932L24.7397 22.5736V17.2263H33.3699C38.1285 17.2263 42 13.3624 42 8.61314C42 3.86385 38.1285 0 33.3699 0H8.63014C3.87148 0 0 3.86385 0 8.61314C0 13.3624 3.87148 17.2263 8.63014 17.2263ZM28.8283 26.5279C29.3088 26.6878 29.6712 27.2249 29.6712 27.7772V32.1557C29.6712 36.1881 26.3845 39.5001 22.3444 39.5384C17.9808 39.5774 14.8767 35.9349 14.8767 31.8242V25.9214C14.8767 25.243 15.4298 24.691 16.1096 24.691H17.3425V29.2765C17.3425 29.956 17.8945 30.5069 18.5753 30.5069C19.2562 30.5069 19.8082 29.956 19.8082 29.2765V13.5349C19.8082 12.8565 20.3613 12.3045 21.0411 12.3045C21.7209 12.3045 22.274 12.8565 22.274 13.5349V23.4605C22.274 23.9901 22.6135 24.4603 23.1169 24.6278L28.8283 26.5279ZM33.3699 2.4609H8.63014C5.2311 2.4609 2.46575 5.22079 2.46575 8.61314C2.46575 12.0055 5.2311 14.7654 8.63014 14.7654H17.3425V13.5349C17.3425 11.4995 19.0017 9.84358 21.0411 9.84358C23.0805 9.84358 24.7397 11.4995 24.7397 13.5349V14.7654H33.3699C36.7689 14.7654 39.5342 12.0055 39.5342 8.61314C39.5342 5.22079 36.7689 2.4609 33.3699 2.4609Z" fill="#2B3134"/>
</g>
</svg>
