<svg width="16" height="17" viewBox="0 0 16 17" fill="none" xmlns="http://www.w3.org/2000/svg">
<path d="M0.296817 8.0363C0.115884 8.1197 0 8.30074 0 8.50003C0 8.69924 0.115884 8.88028 0.296817 8.96375L4.80825 11.044L5.20283 16.0296C5.21867 16.2297 5.35027 16.402 5.53917 16.4699C5.72807 16.5378 5.93923 16.4887 6.07882 16.3445L9.52068 12.788L14.034 13.6306C14.2307 13.6674 14.4307 13.5858 14.5457 13.4219C14.6606 13.2581 14.6693 13.0422 14.5678 12.8697L11.8444 8.24103C11.7014 7.99797 11.3884 7.91688 11.1453 8.05993C10.9023 8.2029 10.8211 8.51589 10.9642 8.75895L13.1187 12.4208L9.4383 11.7337C9.26986 11.7022 9.09685 11.7574 8.97763 11.8805L6.13167 14.8213L5.80274 10.6652C5.78817 10.4811 5.67527 10.3191 5.50751 10.2418L1.73012 8.50003L5.50751 6.75828C5.67527 6.68087 5.78817 6.51896 5.80274 6.33479L6.12579 2.25296L8.29052 4.71022C8.47694 4.92183 8.79959 4.94225 9.0112 4.75583C9.22288 4.56942 9.24323 4.2467 9.05682 4.03509L6.09504 0.673123C5.95948 0.519252 5.74502 0.46138 5.55047 0.526196C5.35591 0.591013 5.21901 0.765992 5.20283 0.970383L4.80825 5.95603L0.296817 8.0363Z" fill="white"/>
<path d="M14.4679 9.01074C13.6219 9.01074 12.936 8.32486 12.936 7.47883C12.936 7.29977 12.9667 7.12792 13.0231 6.9682H11.2994C11.0751 6.9682 10.8772 6.82195 10.8113 6.60769L9.55433 2.52259C9.50667 2.36777 9.53534 2.19946 9.63161 2.06908C9.72788 1.9387 9.88032 1.86183 10.0424 1.86183H13.787C14.6331 1.86183 15.319 2.54765 15.319 3.39374C15.319 4.23976 14.6331 4.92565 13.787 4.92565C12.941 4.92565 12.2551 4.23976 12.2551 3.39374C12.2551 3.21468 12.2858 3.04283 12.3423 2.8831H10.7338L11.6765 5.94692H14.4679C15.3139 5.94692 15.9998 6.63274 15.9998 7.47883C15.9998 8.32486 15.3139 9.01074 14.4679 9.01074Z" fill="white"/>
</svg>
