<svg width="17" height="15" viewBox="0 0 17 15" fill="none" xmlns="http://www.w3.org/2000/svg">
<path fill-rule="evenodd" clip-rule="evenodd" d="M7.84281 14.7551C8.02465 14.913 8.25798 15 8.5 15C8.74189 15 8.97535 14.913 9.15706 14.7553C9.84538 14.1584 10.5085 13.5978 11.0937 13.1033L11.094 13.1031C12.8063 11.6559 14.285 10.406 15.314 9.17453C16.4643 7.79804 17 6.49281 17 5.06693C17 3.68157 16.5211 2.40348 15.6515 1.46794C14.7715 0.521344 13.5639 0 12.251 0C11.2697 0 10.371 0.307687 9.58001 0.914443C9.18066 1.22071 8.81893 1.59555 8.5 2.03277C8.1812 1.59555 7.81934 1.22071 7.42012 0.914443C6.62908 0.307687 5.73039 0 4.74908 0C3.43613 0 2.22863 0.521344 1.34862 1.46794C0.478981 2.40348 0 3.68157 0 5.06693C0 6.49281 0.535789 7.79804 1.6861 9.17466C2.71513 10.406 4.1941 11.6561 5.90678 13.1036L5.90977 13.1062C6.49393 13.5998 7.15605 14.1595 7.84281 14.7551ZM2.08064 2.13734C2.77 1.39591 3.71758 0.987634 4.74908 0.987634C5.50459 0.987634 6.19835 1.22586 6.81092 1.69562C7.35696 2.11445 7.73724 2.6439 7.96006 3.01436C8.07471 3.20486 8.27653 3.31857 8.5 3.31857C8.72347 3.31857 8.92529 3.20486 9.03994 3.01436C9.26289 2.6439 9.64317 2.11445 10.1891 1.69562C10.8017 1.22586 11.4954 0.987634 12.251 0.987634C13.2824 0.987634 14.2301 1.39591 14.9194 2.13734C15.619 2.88997 16.0043 3.93034 16.0043 5.06693C16.0043 6.26616 15.5549 7.3387 14.5474 8.54449C13.5743 9.70897 12.1276 10.9319 10.4524 12.3479L10.4478 12.3517C9.86029 12.8481 9.19454 13.4109 8.49857 14.012C7.80676 13.412 7.14204 12.8502 6.55567 12.3546L6.55256 12.352L6.55157 12.3511C4.87471 10.9339 3.42647 9.70979 2.45275 8.54449C1.44511 7.3387 0.995705 6.26616 0.995705 5.06693C0.995705 3.93034 1.38104 2.88997 2.08064 2.13734Z" fill="#2B3134"/>
</svg>
