<svg width="20" height="20" viewBox="0 0 20 20" fill="none" xmlns="http://www.w3.org/2000/svg">
<path d="M17.1131 0H2.88721V1.17188H4.49775V7.00129C4.49971 9.99406 6.92971 12.458 9.92217 12.4995C12.9968 12.542 15.5025 10.0625 15.5025 6.99762V1.17188H17.1131V0Z" fill="#000035"/>
<path d="M13.8093 17.4327C13.8093 16.7855 13.2846 16.2609 12.6374 16.2609H11.7187V13.4481C11.1613 13.5965 10.5863 13.6719 9.9999 13.6719C9.96873 13.6719 9.93697 13.6716 9.90572 13.6712C9.35217 13.6636 8.80869 13.5882 8.28115 13.4467V16.2609H7.3624C6.71518 16.2609 6.19053 16.7855 6.19053 17.4327V18.8281H4.49756V20H15.5022V18.8281H13.8093V17.4327Z" fill="#000035"/>
<path d="M16.6743 2.34375V3.51562H18.8281V6.15227C18.8281 7.61301 17.7535 8.82727 16.3533 9.04648C16.2934 9.23184 16.2257 9.41516 16.1493 9.59594C16.0537 9.82207 15.9459 10.0413 15.8271 10.2538H15.8984C18.16 10.2538 20 8.41387 20 6.15227V2.34375L16.6743 2.34375Z" fill="#000035"/>
<path d="M3.65 9.04707C2.2482 8.82926 1.17188 7.61418 1.17188 6.15227V3.51562H3.32574V2.34375H0V6.15227C0 8.41387 1.83996 10.2538 4.10156 10.2538H4.17926C4.05562 10.0338 3.94395 9.80645 3.84523 9.57203C3.77238 9.39914 3.70762 9.22402 3.65 9.04707Z" fill="#000035"/>
</svg>
