<svg width="19" height="20" viewBox="0 0 19 20" fill="none" xmlns="http://www.w3.org/2000/svg">
<path d="M5.95784 3.23652V13.8827C5.32504 13.3301 4.49118 12.9936 3.57843 12.9936C1.60529 12.9936 0 14.5651 0 16.4968C0 18.4285 1.60529 20 3.57843 20C5.54913 20 7.15274 18.4324 7.15681 16.5041H7.15689V7.94823L17.801 5.30679V11.0566C17.1682 10.504 16.3343 10.1675 15.4216 10.1675C13.4484 10.1675 11.8431 11.739 11.8431 13.6707C11.8431 15.6024 13.4484 17.1739 15.4216 17.1739C17.3947 17.1739 19 15.6023 19 13.6707V0L5.95784 3.23652Z" fill="#000035"/>
</svg>
