<svg width="17" height="20" viewBox="0 0 17 20" fill="none" xmlns="http://www.w3.org/2000/svg">
<path d="M9 10C10.3738 10 11.5634 9.50727 12.5353 8.53511C13.5073 7.56312 14 6.37382 14 4.99984C14 3.62634 13.5073 2.43688 12.5352 1.46457C11.563 0.49273 10.3736 0 9 0C7.62607 0 6.43681 0.49273 5.46484 1.46473C4.49287 2.43673 4 3.62618 4 4.99984C4 6.37382 4.49287 7.56327 5.465 8.53527C6.43712 9.50711 7.62654 10 9 10Z" fill="#000035"/>
<path d="M16.9588 15.5305C16.9313 15.1536 16.8756 14.7425 16.7937 14.3083C16.711 13.8709 16.6045 13.4573 16.477 13.0794C16.3454 12.6888 16.1663 12.303 15.9449 11.9333C15.7151 11.5496 15.4453 11.2155 15.1424 10.9405C14.8258 10.6529 14.438 10.4216 13.9897 10.253C13.5429 10.0852 13.0478 10.0001 12.5181 10.0001C12.3101 10.0001 12.109 10.0812 11.7205 10.3213C11.4814 10.4693 11.2017 10.6405 10.8896 10.8298C10.6226 10.9913 10.261 11.1426 9.8144 11.2795C9.37865 11.4134 8.93622 11.4813 8.49953 11.4813C8.06285 11.4813 7.62057 11.4134 7.18436 11.2795C6.73819 11.1427 6.37659 10.9914 6.10998 10.83C5.80078 10.6424 5.52095 10.4712 5.27828 10.3211C4.89026 10.081 4.68894 10 4.48093 10C3.95113 10 3.45615 10.0852 3.00952 10.2531C2.56149 10.4215 2.17362 10.6527 1.85664 10.9407C1.55396 11.2158 1.28393 11.5497 1.05447 11.9333C0.833257 12.303 0.654169 12.6886 0.52234 13.0795C0.39502 13.4575 0.288531 13.8709 0.205827 14.3083C0.1239 14.7419 0.0682463 15.1532 0.0407301 15.531C0.0136803 15.9011 0 16.2853 0 16.6733C0 17.683 0.338122 18.5004 1.00488 19.1033C1.66341 19.6982 2.53475 20 3.59435 20H13.4056C14.4653 20 15.3363 19.6983 15.995 19.1033C16.6619 18.5009 17 17.6833 17 16.6731C16.9998 16.2834 16.986 15.8989 16.9588 15.5305Z" fill="#000035"/>
</svg>
