<svg  viewBox="0 0 18 18" fill="none" xmlns="http://www.w3.org/2000/svg">
<g >
<path d="M17.5763 16.4637L1.52264 0.263922C1.17392 -0.0879739 0.610262 -0.0879739 0.261541 0.263922C-0.0871802 0.615817 -0.0871802 1.18461 0.261541 1.53651L3.8531 5.16076C3.67562 5.46586 3.5677 5.85375 3.5677 6.30015V11.7001C3.5677 12.6928 4.36771 13.5001 5.35144 13.5001H8.54968L12.7477 17.7363C12.9181 17.9082 13.1464 18 13.3783 18C13.4933 18 13.6093 17.9784 13.7199 17.9316C14.0534 17.793 14.2701 17.4636 14.2701 17.1V15.6726L16.3152 17.7363C16.4891 17.9118 16.7174 18 16.9457 18C17.1741 18 17.4024 17.9118 17.5763 17.7363C17.925 17.3844 17.925 16.8156 17.5763 16.4637Z" />
<path d="M14.2704 0.900209V10.8001L8.02734 4.50016H8.55355L12.7453 0.261217C13.004 0.0092206 13.3875 -0.0717784 13.7175 0.0722198C14.0564 0.207218 14.2704 0.540214 14.2704 0.900209Z" />
</g>
</svg>
