<svg width="21" height="22" viewBox="0 0 21 22" fill="none" xmlns="http://www.w3.org/2000/svg">
<path fill-rule="evenodd" clip-rule="evenodd" d="M6.67376 15.2709V3.56017L20.4023 0V15.0377C20.4023 17.1625 18.7126 18.8913 16.6356 18.8913C14.5585 18.8913 12.8688 17.1626 12.8688 15.0377C12.8688 12.9129 14.5585 11.1843 16.6356 11.1843C17.5963 11.1843 18.4741 11.5544 19.1402 12.1622V5.83747L7.93591 8.74305V18.1545H7.93583C7.93155 20.2757 6.24354 22 4.16911 22C2.09212 22 0.402344 20.2713 0.402344 18.1465C0.402344 16.0216 2.09212 14.293 4.16911 14.293C5.1299 14.293 6.00765 14.6631 6.67376 15.2709ZM1.66454 18.1464C1.66454 19.5593 2.78813 20.7087 4.16915 20.7087C5.55021 20.7087 6.67376 19.5593 6.6738 18.1464C6.6738 16.7335 5.55021 15.5841 4.16915 15.5841C2.78809 15.5841 1.66454 16.7336 1.66454 18.1464ZM7.93591 7.41106V4.56491L19.1402 1.65936V4.50548L7.93591 7.41106ZM14.1309 15.0377C14.1309 16.4506 15.2545 17.6001 16.6356 17.6001C18.0166 17.6001 19.1402 16.4506 19.1402 15.0377C19.1402 13.6249 18.0166 12.4755 16.6356 12.4755C15.2545 12.4755 14.1309 13.6249 14.1309 15.0377Z" fill="white"/>
</svg>
