<svg width="21" height="23" viewBox="0 0 21 23" fill="none" xmlns="http://www.w3.org/2000/svg">
<path d="M6.58499 3.72199V15.9651C5.88557 15.3296 4.96393 14.9426 3.9551 14.9426C1.77426 14.9426 0 16.7499 0 18.9713C0 21.1928 1.77426 23 3.9551 23C6.13325 23 7.90566 21.1973 7.91016 18.9797L7.91025 9.14046L19.6747 6.1028V12.7151C18.9753 12.0796 18.0537 11.6926 17.0449 11.6926C14.864 11.6926 13.0898 13.4999 13.0898 15.7213C13.0898 17.9427 14.864 19.75 17.0449 19.75C19.2257 19.75 21 17.9427 21 15.7213V0L6.58499 3.72199Z" fill="url(#paint0_linear_0_74485)"/>
<defs>
<linearGradient id="paint0_linear_0_74485" x1="-10.3765" y1="11.4324" x2="12.4061" y2="32.357" gradientUnits="userSpaceOnUse">
<stop stop-color="#00E476"/>
<stop offset="0.476746" stop-color="#00B2FD"/>
<stop offset="1" stop-color="#0074F0"/>
</linearGradient>
</defs>
</svg>
