<svg width="15" height="16" viewBox="0 0 15 16" fill="none" xmlns="http://www.w3.org/2000/svg">
<path fill-rule="evenodd" clip-rule="evenodd" d="M0.878906 3.43376H1.75781L1.75781 0.5H4.6142C6.3104 0.5 7.69037 1.87997 7.69037 3.57617V4.13976C7.98044 4.32412 8.25185 4.5427 8.49943 4.79375C8.92547 5.2257 9.25485 5.72686 9.47745 6.27148H11.7562V6.02188C11.7562 5.29493 12.3476 4.70352 13.0746 4.70352H14.1211V3.87324L15 3.87324V12.1268H14.1211V11.2965H13.0746C12.3476 11.2965 11.7562 10.7051 11.7562 9.97813V9.72852H9.47183C9.1096 10.6048 8.48147 11.3464 7.69037 11.8515V12.4238C7.69037 14.12 6.3104 15.5 4.6142 15.5H1.75781L1.75781 12.5662H0.878906L0.878906 13.3347H0L0 2.6653H0.878906V3.43376ZM4.6142 14.6211C5.82577 14.6211 6.81146 13.6354 6.81146 12.4238V12.2878C6.32373 12.4675 5.79809 12.5659 5.25126 12.5662H2.63672V14.6211H4.6142ZM13.0746 5.58242H14.1211V10.4176H13.0746C12.8322 10.4176 12.6351 10.2204 12.6351 9.97813V6.02188C12.6351 5.77956 12.8322 5.58242 13.0746 5.58242ZM11.7562 8.84961V7.15039H9.73585C9.78768 7.42751 9.81445 7.71134 9.81445 7.99936C9.81445 8.02112 9.81431 8.04274 9.81398 8.06457C9.81026 8.33228 9.78302 8.59458 9.73441 8.84961H11.7562ZM7.87368 5.41089C8.57197 6.11894 8.9487 7.05714 8.93517 8.05238C8.90745 10.0554 7.25461 11.686 5.25097 11.6873H0.878906L0.878906 4.31264H5.24821C6.24278 4.31267 7.17519 4.7027 7.87368 5.41089ZM6.81146 3.57617C6.81146 2.3646 5.82577 1.37891 4.6142 1.37891H2.63672V3.43379H5.24821C5.79026 3.43379 6.31737 3.52742 6.81146 3.70695V3.57617Z" fill="white"/>
</svg>
