<svg  viewBox="0 0 220 36" fill="none" xmlns="http://www.w3.org/2000/svg">
<path opacity="0.695375" d="M0.5 0H219.5V21C219.5 29.2843 212.784 36 204.5 36H15.5C7.21572 36 0.5 29.2843 0.5 21V0Z" fill="#001542"/>
<g filter="url(#filter0_d_0_42981)">
<path d="M15.1209 16.625V20.375" stroke="white" stroke-width="2"/>
<path d="M203.879 16V19.75" stroke="white" stroke-width="2"/>
<path d="M25.0555 16.625V20.375" stroke="white" stroke-width="2"/>
<path d="M193.945 16.625V20.375" stroke="white" stroke-width="2"/>
<path d="M64.7943 16.625V20.375" stroke="white" stroke-width="2"/>
<path d="M49.8924 16.625V20.375" stroke="white" stroke-width="2"/>
<path d="M164.14 16.625V20.375" stroke="white" stroke-width="2"/>
<path d="M184.01 16.625V20.375" stroke="white" stroke-width="2"/>
<path d="M84.6634 16.625V20.375" stroke="white" stroke-width="2"/>
<path d="M129.369 16V19.75" stroke="white" stroke-width="2"/>
<path d="M34.9901 14.125V21" stroke="white" stroke-width="2"/>
<path d="M159.173 14.75V21.625" stroke="white" stroke-width="2"/>
<path d="M179.042 14.75V21.625" stroke="white" stroke-width="2"/>
<path d="M169.108 14.75V21.625" stroke="white" stroke-width="2"/>
<path d="M44.9246 14.125V21" stroke="white" stroke-width="2"/>
<path d="M149.239 14.75V21.625" stroke="white" stroke-width="2"/>
<path d="M59.827 14.75V21.625" stroke="white" stroke-width="2"/>
<path d="M134.337 14.75V21.625" stroke="white" stroke-width="2"/>
<path d="M89.6307 14.75V21.625" stroke="white" stroke-width="2"/>
<path d="M124.402 14.75V21.625" stroke="white" stroke-width="2"/>
<path d="M114.467 14.75V21.625" stroke="white" stroke-width="2"/>
<path d="M69.7615 14.75V21.625" stroke="white" stroke-width="2"/>
<path d="M79.6961 14.75V21.625" stroke="white" stroke-width="2"/>
<path d="M39.9573 11.625V24.75" stroke="white" stroke-width="2"/>
<path d="M39.9573 11.625V24.75" stroke="white" stroke-width="2"/>
<path d="M74.7288 11.625V24.75" stroke="white" stroke-width="2"/>
<path d="M119.435 11.625V24.75" stroke="white" stroke-width="2"/>
<path d="M139.304 11.625V24.75" stroke="white" stroke-width="2"/>
<path d="M94.598 11.625V24.75" stroke="white" stroke-width="2"/>
<path d="M109.5 11.625V24.75" stroke="white" stroke-width="2"/>
<path d="M54.8597 11.625V24.75" stroke="white" stroke-width="2"/>
<path d="M154.206 11.625V24.75" stroke="white" stroke-width="2"/>
<path d="M174.075 11.625V24.75" stroke="white" stroke-width="2"/>
<path d="M144.271 9.125V27.25" stroke="white" stroke-width="2"/>
<path d="M99.5653 9.125V27.25" stroke="white" stroke-width="2"/>
<path d="M104.533 6V31" stroke="white" stroke-width="2"/>
<path d="M20.0882 17.25V19.125" stroke="white" stroke-width="2"/>
<path d="M198.912 17.25V19.125" stroke="white" stroke-width="2"/>
<path d="M30.0228 17.25V19.125" stroke="white" stroke-width="2"/>
<path d="M188.977 17.25V19.125" stroke="white" stroke-width="2"/>
</g>
<defs>
<filter id="filter0_d_0_42981" x="10.1211" y="4" width="198.758" height="33" filterUnits="userSpaceOnUse" color-interpolation-filters="sRGB">
<feFlood flood-opacity="0" result="BackgroundImageFix"/>
<feColorMatrix in="SourceAlpha" type="matrix" values="0 0 0 0 0 0 0 0 0 0 0 0 0 0 0 0 0 0 127 0" result="hardAlpha"/>
<feOffset dy="2"/>
<feGaussianBlur stdDeviation="2"/>
<feColorMatrix type="matrix" values="0 0 0 0 0 0 0 0 0 0 0 0 0 0 0 0 0 0 0.252368 0"/>
<feBlend mode="normal" in2="BackgroundImageFix" result="effect1_dropShadow_0_42981"/>
<feBlend mode="normal" in="SourceGraphic" in2="effect1_dropShadow_0_42981" result="shape"/>
</filter>
</defs>
</svg>
