<svg  viewBox="0 0 20 21" fill="none" xmlns="http://www.w3.org/2000/svg">
<g >
<path d="M11.2801 0.0616233C11.0662 -0.0415296 10.8143 -0.0141878 10.63 0.136192L4.65299 4.97195H1.79719C1.1201 4.97195 0.568359 5.52997 0.568359 6.21475V11.186C0.568359 11.872 1.1201 12.4288 1.79719 12.4288H4.65299L10.6288 17.2645C10.7406 17.354 10.877 17.4 11.0134 17.4C11.1043 17.4 11.1953 17.3789 11.2801 17.3379C11.4926 17.2347 11.6278 17.0172 11.6278 16.7786V0.622128C11.6278 0.38351 11.4926 0.166019 11.2801 0.0616233V0.0616233Z" />
<path d="M14.7375 4.30578C14.4954 4.06467 14.1071 4.0684 13.8687 4.31075C13.6303 4.55558 13.6327 4.94831 13.8736 5.19065C14.8026 6.11779 15.3138 7.36432 15.3138 8.70034C15.3138 10.0364 14.8026 11.2829 13.8736 12.21C13.6327 12.4499 13.6303 12.8438 13.8687 13.0887C13.9891 13.2117 14.1476 13.2726 14.3049 13.2726C14.461 13.2726 14.617 13.213 14.7375 13.0924C15.9024 11.9329 16.5426 10.3719 16.5426 8.70034C16.5426 7.02876 15.9024 5.4678 14.7375 4.30578Z" />
<path d="M16.4713 2.55464C16.2292 2.31229 15.8409 2.31478 15.6012 2.55837C15.3629 2.80196 15.3653 3.19592 15.6049 3.43703C17.0021 4.83767 17.7714 6.70685 17.7714 8.70031C17.7714 10.6938 17.0021 12.5617 15.6049 13.9623C15.3653 14.2047 15.3629 14.5987 15.6012 14.8423C15.7229 14.964 15.8802 15.0249 16.0375 15.0249C16.1935 15.0249 16.3508 14.9653 16.4713 14.8447C18.1031 13.2104 19.0002 11.0281 19.0002 8.70031C19.0002 6.37253 18.1031 4.19017 16.4713 2.55464Z" />
</g>
</svg>
