<svg width="16" height="16" viewBox="0 0 16 16" fill="none" xmlns="http://www.w3.org/2000/svg">
<g id="wallet NOT SELECTED Copy 9">
<path id="Shape" fill-rule="evenodd" clip-rule="evenodd" d="M15.0625 7.66366V5.77642C15.0625 4.84923 14.3251 4.09153 13.4062 4.05845V2.90006C13.4062 2.29669 12.9156 1.8058 12.3125 1.8058H9.30131L8.91247 0.724443C8.81331 0.448688 8.61263 0.228334 8.34737 0.103994C8.08212 -0.0203773 7.78444 -0.0336336 7.50922 0.0666013L2.045 2.05632C1.77006 2.15643 1.55072 2.35775 1.42734 2.62318C1.30397 2.88862 1.29144 3.18617 1.39209 3.46105L1.61162 4.06055C0.713656 4.11611 0 4.86427 0 5.77642V14.2804C0 15.2286 0.771031 16 1.71875 16H13.3438C14.2915 16 15.0625 15.2286 15.0625 14.2804V12.3307C15.5918 12.2546 16 11.798 16 11.2478V8.74658C16 8.19628 15.5918 7.73976 15.0625 7.66366ZM15.0625 11.2478C15.0625 11.334 14.9924 11.4041 14.9062 11.4041H12.4062C11.6308 11.4041 11 10.7729 11 9.99717C11 9.22139 11.6308 8.59025 12.4062 8.59025H14.9062C14.9924 8.59025 15.0625 8.66038 15.0625 8.74657V11.2478ZM2.27741 3.01868C2.26719 3.04066 2.25297 3.0854 2.27237 3.1384L2.60872 4.05689H7V2.9001C7 2.29672 7.49066 1.80583 8.09375 1.80583H8.305L8.03031 1.04197C8.01122 0.988818 7.97156 0.963619 7.94959 0.953332C7.92762 0.943046 7.88291 0.928696 7.82984 0.947986L2.36566 2.93771C2.31266 2.957 2.28762 2.99673 2.27741 3.01868ZM12.4688 2.90006V4.05686H7.9375V2.90006C7.9375 2.81387 8.00759 2.74374 8.09375 2.74374H12.3125C12.3987 2.74374 12.4688 2.81387 12.4688 2.90006ZM1.71875 15.0621H13.3438C13.7745 15.0621 14.125 14.7114 14.125 14.2804V12.342H12.4062C11.1139 12.342 10.0625 11.2901 10.0625 9.99717C10.0625 8.70421 11.1139 7.65231 12.4062 7.65231H14.125V5.77642C14.125 5.34544 13.7745 4.9948 13.3438 4.9948H1.71875C1.28797 4.9948 0.9375 5.34544 0.9375 5.77642V14.2804C0.9375 14.7114 1.28797 15.0621 1.71875 15.0621Z" fill="#2B3134"/>
<ellipse id="Oval" cx="12.4062" cy="9.99705" rx="0.46875" ry="0.468971" fill="#2B3134"/>
</g>
</svg>
