<svg  viewBox="0 0 25 36" fill="none" xmlns="http://www.w3.org/2000/svg">
<g filter="url(#filter0_d_0_45356)">
<path d="M8.65275 34C8.51214 34 8.36983 33.9736 8.23388 33.9184C7.75804 33.7253 7.50068 33.2367 7.62562 32.7636L11.2061 19.2049H1.55885C1.20965 19.2049 0.8829 19.043 0.685465 18.772C0.48803 18.501 0.445324 18.1559 0.571324 17.8495L7.64863 0.636767C7.8064 0.253007 8.19872 0 8.63609 0H18.3745C18.7323 0 19.0659 0.169999 19.2614 0.451959C19.4568 0.733919 19.4877 1.08966 19.3435 1.39771L15.1527 10.3466H23.4412C23.8284 10.3466 24.1847 10.5455 24.3704 10.8652C24.556 11.1849 24.5414 11.5744 24.3321 11.881L9.54413 33.5421C9.34416 33.835 9.00406 34 8.65275 34Z" fill="url(#paint0_linear_0_45356)"/>
</g>
<defs>
<filter id="filter0_d_0_45356" x="0.5" y="0" width="24" height="36" filterUnits="userSpaceOnUse" color-interpolation-filters="sRGB">
<feFlood flood-opacity="0" result="BackgroundImageFix"/>
<feColorMatrix in="SourceAlpha" type="matrix" values="0 0 0 0 0 0 0 0 0 0 0 0 0 0 0 0 0 0 127 0" result="hardAlpha"/>
<feOffset dy="2"/>
<feColorMatrix type="matrix" values="0 0 0 0 0 0 0 0 0 0 0 0 0 0 0 0 0 0 0.5 0"/>
<feBlend mode="normal" in2="BackgroundImageFix" result="effect1_dropShadow_0_45356"/>
<feBlend mode="normal" in="SourceGraphic" in2="effect1_dropShadow_0_45356" result="shape"/>
</filter>
<linearGradient id="paint0_linear_0_45356" x1="-11.3589" y1="16.9" x2="20.5527" y2="39.5591" gradientUnits="userSpaceOnUse">
<stop stop-color="#002068"/>
<stop offset="1" stop-color="#000035"/>
</linearGradient>
</defs>
</svg>
