<svg width="11" height="20" viewBox="0 0 11 20" fill="none" xmlns="http://www.w3.org/2000/svg">
<path d="M5.50831 19.9999C5.26962 19.9962 5.04184 19.8998 4.87352 19.7315L0.297635 15.1804C0.0494311 14.9546 -0.0542866 14.6116 0.0275008 14.2871C0.109288 13.9625 0.363409 13.7087 0.689363 13.6261C1.01532 13.5434 1.36061 13.6451 1.58868 13.891L4.59636 16.8824L4.60369 0.890581C4.61474 0.395563 5.02139 0 5.51923 0C6.01707 0 6.42372 0.395563 6.43476 0.890581L6.42743 16.9002L9.44761 13.891C9.80781 13.5477 10.3778 13.5536 10.7308 13.9042C11.0838 14.2548 11.0905 14.8217 10.7458 15.1804L6.16993 19.7315C5.99505 19.9064 5.7563 20.0033 5.50831 19.9999V19.9999Z" fill="#00B2FD"/>
</svg>
