<svg width="12" height="20" viewBox="0 0 12 20" fill="none" xmlns="http://www.w3.org/2000/svg">
<path d="M6.00831 8.32859e-05C5.76962 0.00383842 5.54184 0.10016 5.37352 0.268521L0.797635 4.8196C0.549431 5.04542 0.445713 5.38842 0.527501 5.71294C0.609288 6.03746 0.863409 6.29125 1.18936 6.37394C1.51532 6.45662 1.86061 6.35488 2.08868 6.10896L5.09636 3.11761L5.10369 19.1094C5.11474 19.6044 5.52139 20 6.01923 20C6.51707 20 6.92372 19.6044 6.93476 19.1094L6.92743 3.09981L9.94761 6.10896C10.3078 6.45226 10.8778 6.44642 11.2308 6.09581C11.5838 5.7452 11.5905 5.17832 11.2458 4.8196L6.66993 0.268521C6.49505 0.0936145 6.2563 -0.00325036 6.00831 8.32859e-05V8.32859e-05Z" fill="#00E476"/>
</svg>
