<svg width="1149" height="386" viewBox="0 0 1149 386" fill="none" xmlns="http://www.w3.org/2000/svg">
<rect width="1149" height="386" rx="20" fill="url(#paint0_linear_0_83629)"/>
<mask id="mask0_0_83629" style="mask-type:alpha" maskUnits="userSpaceOnUse" x="0" y="0" width="1149" height="386">
<rect width="1149" height="386" rx="20" fill="white"/>
</mask>
<g mask="url(#mask0_0_83629)">
<g opacity="0.309892">
<g filter="url(#filter0_f_0_83629)">
<path d="M0 79C0 79 175.521 -28.7568 447 143.743C718.479 316.243 1115 66 1115 66" stroke="white"/>
</g>
<g filter="url(#filter1_f_0_83629)">
<path d="M0 93.1398C0 93.1398 184.502 -34.5001 455.981 138C727.46 310.5 1115 86.9999 1115 86.9999" stroke="white"/>
</g>
<g filter="url(#filter2_f_0_83629)">
<path d="M0 108.14C0 108.14 192.521 -42.5001 464 130C735.479 302.5 1115 108.14 1115 108.14" stroke="white"/>
</g>
<g filter="url(#filter3_f_0_83629)">
<path d="M0 123.14C0 123.14 192.521 -52.5001 464 120C735.479 292.5 1115 138 1115 138" stroke="white"/>
</g>
<g filter="url(#filter4_f_0_83629)">
<path d="M0 141.14C0 141.14 185.821 -62 475.172 115.5C764.524 293 1115 164 1115 164" stroke="white"/>
</g>
</g>
<circle opacity="0.953246" cx="29" cy="18" r="15" fill="url(#paint1_linear_0_83629)"/>
<circle opacity="0.953246" cx="598.5" cy="241.5" r="19.5" fill="url(#paint2_linear_0_83629)"/>
<circle opacity="0.953246" cx="994.5" cy="67.5" r="19.5" fill="url(#paint3_linear_0_83629)"/>
<circle opacity="0.953246" cx="820" cy="312" r="29" fill="url(#paint4_linear_0_83629)"/>
<g opacity="0.309892">
<g filter="url(#filter5_f_0_83629)">
<path d="M-37 380.466C-37 380.466 144.345 488.489 424.833 315.563C705.321 142.636 1115 393.498 1115 393.498" stroke="white"/>
</g>
<g filter="url(#filter6_f_0_83629)">
<path d="M-37 365.807C-37 365.807 153.624 493.239 434.112 321.02C714.6 148.8 1115 371.937 1115 371.937" stroke="white"/>
</g>
<g filter="url(#filter7_f_0_83629)">
<path d="M-37 350.855C-37 350.855 161.909 501.325 442.397 329.019C722.885 156.714 1115 350.855 1115 350.855" stroke="white"/>
</g>
<g filter="url(#filter8_f_0_83629)">
<path d="M-37 335.624C-37 335.624 161.909 510.796 442.397 338.755C722.885 166.715 1115 320.803 1115 320.803" stroke="white"/>
</g>
<g filter="url(#filter9_f_0_83629)">
<path d="M-37 318.334C-37 318.334 154.987 521.95 453.941 344.034C752.894 166.119 1115 295.421 1115 295.421" stroke="white"/>
</g>
</g>
<circle opacity="0.953246" cx="482" cy="97" r="29" fill="url(#paint5_linear_0_83629)"/>
<circle opacity="0.953246" cx="673" r="29" fill="url(#paint6_linear_0_83629)"/>
<g opacity="0.309892">
<g filter="url(#filter10_f_0_83629)">
<path d="M1122 -8.92426C1122 -8.92426 945.377 -105.352 672.194 49.012C399.01 203.376 0 -20.5575 0 -20.5575" stroke="white"/>
</g>
<g filter="url(#filter11_f_0_83629)">
<path d="M1122 4.2753C1122 4.2753 936.34 -109.242 663.156 44.1719C389.973 197.586 0 -1.18525 0 -1.18525" stroke="white"/>
</g>
<g filter="url(#filter12_f_0_83629)">
<path d="M1122 17.4416C1122 17.4416 928.271 -116.503 655.087 36.8789C381.903 190.261 0 17.4416 0 17.4416" stroke="white"/>
</g>
<g filter="url(#filter13_f_0_83629)">
<path d="M1122 30.8355C1122 30.8355 928.271 -125.426 655.087 28.042C381.903 181.51 0 44.0561 0 44.0561" stroke="white"/>
</g>
<g filter="url(#filter14_f_0_83629)">
<path d="M1122 46.9811C1122 46.9811 935.013 -134.74 643.844 24.0446C352.676 182.83 0 67.4309 0 67.4309" stroke="white"/>
</g>
</g>
<circle opacity="0.953246" cx="396.5" cy="154.5" r="19.5" fill="url(#paint7_linear_0_83629)"/>
<circle opacity="0.953246" cx="16.5" cy="202.5" r="19.5" fill="url(#paint8_linear_0_83629)"/>
<circle opacity="0.953246" cx="352.5" cy="35.5" r="32.5" fill="url(#paint9_linear_0_83629)"/>
<circle opacity="0.953246" cx="771.5" cy="116.5" r="32.5" fill="url(#paint10_linear_0_83629)"/>
<circle opacity="0.953246" cx="435.5" cy="302.5" r="50.5" fill="url(#paint11_linear_0_83629)"/>
<circle opacity="0.953246" cx="694.5" cy="403.5" r="50.5" fill="url(#paint12_linear_0_83629)"/>
<circle opacity="0.425646" cx="1064.5" cy="302.5" r="50.5" fill="url(#paint13_linear_0_83629)"/>
<circle opacity="0.953246" cx="149.5" cy="135.5" r="32.5" fill="url(#paint14_linear_0_83629)"/>
<circle opacity="0.953246" cx="36" cy="308" r="55" fill="url(#paint15_linear_0_83629)"/>
</g>
<defs>
<filter id="filter0_f_0_83629" x="-2.97609" y="42.5387" width="1120.96" height="165.079" filterUnits="userSpaceOnUse" color-interpolation-filters="sRGB">
<feFlood flood-opacity="0" result="BackgroundImageFix"/>
<feBlend mode="normal" in="SourceGraphic" in2="BackgroundImageFix" result="shape"/>
<feGaussianBlur stdDeviation="1.35914" result="effect1_foregroundBlur_0_83629"/>
</filter>
<filter id="filter1_f_0_83629" x="-2.99953" y="44.4668" width="1120.96" height="162.113" filterUnits="userSpaceOnUse" color-interpolation-filters="sRGB">
<feFlood flood-opacity="0" result="BackgroundImageFix"/>
<feBlend mode="normal" in="SourceGraphic" in2="BackgroundImageFix" result="shape"/>
<feGaussianBlur stdDeviation="1.35914" result="effect1_foregroundBlur_0_83629"/>
</filter>
<filter id="filter2_f_0_83629" x="-3.02297" y="44.0062" width="1120.96" height="160.595" filterUnits="userSpaceOnUse" color-interpolation-filters="sRGB">
<feFlood flood-opacity="0" result="BackgroundImageFix"/>
<feBlend mode="normal" in="SourceGraphic" in2="BackgroundImageFix" result="shape"/>
<feGaussianBlur stdDeviation="1.35914" result="effect1_foregroundBlur_0_83629"/>
</filter>
<filter id="filter3_f_0_83629" x="-3.05422" y="40.9208" width="1120.96" height="163.926" filterUnits="userSpaceOnUse" color-interpolation-filters="sRGB">
<feFlood flood-opacity="0" result="BackgroundImageFix"/>
<feBlend mode="normal" in="SourceGraphic" in2="BackgroundImageFix" result="shape"/>
<feGaussianBlur stdDeviation="1.35914" result="effect1_foregroundBlur_0_83629"/>
</filter>
<filter id="filter4_f_0_83629" x="-3.08547" y="39.5323" width="1120.97" height="172.96" filterUnits="userSpaceOnUse" color-interpolation-filters="sRGB">
<feFlood flood-opacity="0" result="BackgroundImageFix"/>
<feBlend mode="normal" in="SourceGraphic" in2="BackgroundImageFix" result="shape"/>
<feGaussianBlur stdDeviation="1.35914" result="effect1_foregroundBlur_0_83629"/>
</filter>
<filter id="filter5_f_0_83629" x="-39.9722" y="251.538" width="1157.95" height="165.471" filterUnits="userSpaceOnUse" color-interpolation-filters="sRGB">
<feFlood flood-opacity="0" result="BackgroundImageFix"/>
<feBlend mode="normal" in="SourceGraphic" in2="BackgroundImageFix" result="shape"/>
<feGaussianBlur stdDeviation="1.35914" result="effect1_foregroundBlur_0_83629"/>
</filter>
<filter id="filter6_f_0_83629" x="-39.9956" y="252.546" width="1157.95" height="161.86" filterUnits="userSpaceOnUse" color-interpolation-filters="sRGB">
<feFlood flood-opacity="0" result="BackgroundImageFix"/>
<feBlend mode="normal" in="SourceGraphic" in2="BackgroundImageFix" result="shape"/>
<feGaussianBlur stdDeviation="1.35914" result="effect1_foregroundBlur_0_83629"/>
</filter>
<filter id="filter7_f_0_83629" x="-40.0191" y="254.499" width="1157.96" height="160.421" filterUnits="userSpaceOnUse" color-interpolation-filters="sRGB">
<feFlood flood-opacity="0" result="BackgroundImageFix"/>
<feBlend mode="normal" in="SourceGraphic" in2="BackgroundImageFix" result="shape"/>
<feGaussianBlur stdDeviation="1.35914" result="effect1_foregroundBlur_0_83629"/>
</filter>
<filter id="filter8_f_0_83629" x="-40.0464" y="254.126" width="1157.94" height="163.507" filterUnits="userSpaceOnUse" color-interpolation-filters="sRGB">
<feFlood flood-opacity="0" result="BackgroundImageFix"/>
<feBlend mode="normal" in="SourceGraphic" in2="BackgroundImageFix" result="shape"/>
<feGaussianBlur stdDeviation="1.35914" result="effect1_foregroundBlur_0_83629"/>
</filter>
<filter id="filter9_f_0_83629" x="-40.0816" y="246.822" width="1157.96" height="173.35" filterUnits="userSpaceOnUse" color-interpolation-filters="sRGB">
<feFlood flood-opacity="0" result="BackgroundImageFix"/>
<feBlend mode="normal" in="SourceGraphic" in2="BackgroundImageFix" result="shape"/>
<feGaussianBlur stdDeviation="1.35914" result="effect1_foregroundBlur_0_83629"/>
</filter>
<filter id="filter10_f_0_83629" x="-2.96047" y="-41.8905" width="1127.92" height="148.4" filterUnits="userSpaceOnUse" color-interpolation-filters="sRGB">
<feFlood flood-opacity="0" result="BackgroundImageFix"/>
<feBlend mode="normal" in="SourceGraphic" in2="BackgroundImageFix" result="shape"/>
<feGaussianBlur stdDeviation="1.35914" result="effect1_foregroundBlur_0_83629"/>
</filter>
<filter id="filter11_f_0_83629" x="-2.94094" y="-39.3684" width="1127.92" height="144.888" filterUnits="userSpaceOnUse" color-interpolation-filters="sRGB">
<feFlood flood-opacity="0" result="BackgroundImageFix"/>
<feBlend mode="normal" in="SourceGraphic" in2="BackgroundImageFix" result="shape"/>
<feGaussianBlur stdDeviation="1.35914" result="effect1_foregroundBlur_0_83629"/>
</filter>
<filter id="filter12_f_0_83629" x="-2.92141" y="-39.9407" width="1127.92" height="143.509" filterUnits="userSpaceOnUse" color-interpolation-filters="sRGB">
<feFlood flood-opacity="0" result="BackgroundImageFix"/>
<feBlend mode="normal" in="SourceGraphic" in2="BackgroundImageFix" result="shape"/>
<feGaussianBlur stdDeviation="1.35914" result="effect1_foregroundBlur_0_83629"/>
</filter>
<filter id="filter13_f_0_83629" x="-2.88234" y="-42.6675" width="1127.91" height="146.55" filterUnits="userSpaceOnUse" color-interpolation-filters="sRGB">
<feFlood flood-opacity="0" result="BackgroundImageFix"/>
<feBlend mode="normal" in="SourceGraphic" in2="BackgroundImageFix" result="shape"/>
<feGaussianBlur stdDeviation="1.35914" result="effect1_foregroundBlur_0_83629"/>
</filter>
<filter id="filter14_f_0_83629" x="-2.87063" y="-44.2526" width="1127.94" height="155.403" filterUnits="userSpaceOnUse" color-interpolation-filters="sRGB">
<feFlood flood-opacity="0" result="BackgroundImageFix"/>
<feBlend mode="normal" in="SourceGraphic" in2="BackgroundImageFix" result="shape"/>
<feGaussianBlur stdDeviation="1.35914" result="effect1_foregroundBlur_0_83629"/>
</filter>
<linearGradient id="paint0_linear_0_83629" x1="-567.743" y1="191.865" x2="-337.15" y2="882.328" gradientUnits="userSpaceOnUse">
<stop stop-color="#00B2FD"/>
<stop offset="0.129769" stop-color="#0074F0"/>
<stop offset="1" stop-color="#000035"/>
</linearGradient>
<linearGradient id="paint1_linear_0_83629" x1="-0.823582" y1="17.9118" x2="29" y2="47.9118" gradientUnits="userSpaceOnUse">
<stop stop-color="#00B2FD"/>
<stop offset="0.129769" stop-color="#0074F0"/>
<stop offset="1" stop-color="#000035"/>
</linearGradient>
<linearGradient id="paint2_linear_0_83629" x1="559.729" y1="241.385" x2="598.5" y2="280.385" gradientUnits="userSpaceOnUse">
<stop stop-color="#00B2FD"/>
<stop offset="0.129769" stop-color="#0074F0"/>
<stop offset="1" stop-color="#000035"/>
</linearGradient>
<linearGradient id="paint3_linear_0_83629" x1="955.729" y1="67.3853" x2="994.5" y2="106.385" gradientUnits="userSpaceOnUse">
<stop stop-color="#00B2FD"/>
<stop offset="0.129769" stop-color="#0074F0"/>
<stop offset="1" stop-color="#000035"/>
</linearGradient>
<linearGradient id="paint4_linear_0_83629" x1="762.341" y1="311.829" x2="820" y2="369.829" gradientUnits="userSpaceOnUse">
<stop stop-color="#00B2FD"/>
<stop offset="0.129769" stop-color="#0074F0"/>
<stop offset="1" stop-color="#000035"/>
</linearGradient>
<linearGradient id="paint5_linear_0_83629" x1="424.341" y1="96.8295" x2="482" y2="154.829" gradientUnits="userSpaceOnUse">
<stop stop-color="#00B2FD"/>
<stop offset="0.129769" stop-color="#0074F0"/>
<stop offset="1" stop-color="#000035"/>
</linearGradient>
<linearGradient id="paint6_linear_0_83629" x1="615.341" y1="-0.170537" x2="673" y2="57.8295" gradientUnits="userSpaceOnUse">
<stop stop-color="#00B2FD"/>
<stop offset="0.129769" stop-color="#0074F0"/>
<stop offset="1" stop-color="#000035"/>
</linearGradient>
<linearGradient id="paint7_linear_0_83629" x1="357.729" y1="154.385" x2="396.5" y2="193.385" gradientUnits="userSpaceOnUse">
<stop stop-color="#00B2FD"/>
<stop offset="0.129769" stop-color="#0074F0"/>
<stop offset="1" stop-color="#000035"/>
</linearGradient>
<linearGradient id="paint8_linear_0_83629" x1="-22.2707" y1="202.385" x2="16.5" y2="241.385" gradientUnits="userSpaceOnUse">
<stop stop-color="#00B2FD"/>
<stop offset="0.129769" stop-color="#0074F0"/>
<stop offset="1" stop-color="#000035"/>
</linearGradient>
<linearGradient id="paint9_linear_0_83629" x1="287.882" y1="35.3089" x2="352.5" y2="100.309" gradientUnits="userSpaceOnUse">
<stop stop-color="#00B2FD"/>
<stop offset="0.129769" stop-color="#0074F0"/>
<stop offset="1" stop-color="#000035"/>
</linearGradient>
<linearGradient id="paint10_linear_0_83629" x1="706.882" y1="116.309" x2="771.5" y2="181.309" gradientUnits="userSpaceOnUse">
<stop stop-color="#00B2FD"/>
<stop offset="0.129769" stop-color="#0074F0"/>
<stop offset="1" stop-color="#000035"/>
</linearGradient>
<linearGradient id="paint11_linear_0_83629" x1="335.094" y1="302.203" x2="435.5" y2="403.203" gradientUnits="userSpaceOnUse">
<stop stop-color="#00B2FD"/>
<stop offset="0.129769" stop-color="#0074F0"/>
<stop offset="1" stop-color="#000035"/>
</linearGradient>
<linearGradient id="paint12_linear_0_83629" x1="594.094" y1="403.203" x2="694.5" y2="504.203" gradientUnits="userSpaceOnUse">
<stop stop-color="#00B2FD"/>
<stop offset="0.129769" stop-color="#0074F0"/>
<stop offset="1" stop-color="#000035"/>
</linearGradient>
<linearGradient id="paint13_linear_0_83629" x1="964.094" y1="302.203" x2="1064.5" y2="403.203" gradientUnits="userSpaceOnUse">
<stop stop-color="#00B2FD"/>
<stop offset="0.129769" stop-color="#0074F0"/>
<stop offset="1" stop-color="#000035"/>
</linearGradient>
<linearGradient id="paint14_linear_0_83629" x1="84.8822" y1="135.309" x2="149.5" y2="200.309" gradientUnits="userSpaceOnUse">
<stop stop-color="#00B2FD"/>
<stop offset="0.129769" stop-color="#0074F0"/>
<stop offset="1" stop-color="#000035"/>
</linearGradient>
<linearGradient id="paint15_linear_0_83629" x1="-73.3531" y1="307.677" x2="36" y2="417.677" gradientUnits="userSpaceOnUse">
<stop stop-color="#00B2FD"/>
<stop offset="0.129769" stop-color="#0074F0"/>
<stop offset="1" stop-color="#000035"/>
</linearGradient>
</defs>
</svg>
