<svg width="16" height="16" viewBox="0 0 16 16" fill="none" xmlns="http://www.w3.org/2000/svg">
<path d="M7.63769 3.26978C7.23588 3.26979 6.91016 3.59548 6.91016 3.99723V8.36184C6.91018 8.76358 7.23589 9.08924 7.63769 9.08926H10.9117C11.1728 9.09105 11.4148 8.95279 11.5459 8.72699C11.677 8.50118 11.677 8.22246 11.5459 7.99666C11.4148 7.77085 11.1728 7.63259 10.9117 7.63438H8.36526V3.99723C8.36524 3.59548 8.03951 3.26979 7.63769 3.26978V3.26978Z" fill="#2B3134"/>
<path d="M13.6589 2.34001C10.5384 -0.780003 5.46121 -0.780003 2.34071 2.34001C2.0578 2.62426 2.05837 3.08383 2.34198 3.36739C2.62559 3.65095 3.08523 3.6515 3.36952 3.36862C5.92232 0.815874 10.0766 0.815874 12.6301 3.36862C15.1829 5.92124 15.1829 10.0748 12.6301 12.6275C10.3785 14.8783 6.86076 15.1363 4.30386 13.3924L4.95323 13.176C5.33444 13.0489 5.54041 12.6368 5.41327 12.2557C5.28614 11.8745 4.87404 11.6686 4.49283 11.7957L2.60689 12.4244C2.26397 12.5388 2.05702 12.8875 2.12091 13.2433L2.50911 15.4011C2.5715 15.7474 2.87267 15.9995 3.22458 16C3.26804 15.9999 3.3114 15.996 3.35417 15.9883C3.74962 15.9172 4.01255 15.539 3.94147 15.1436L3.88916 14.8528C7.03587 16.7367 11.0602 16.2437 13.6589 13.656C16.7791 10.5363 16.7791 5.45982 13.6589 2.34001Z" fill="#2B3134"/>
<path d="M1.77241 4.16882C1.59895 4.08421 1.39896 4.07203 1.21651 4.13496C1.03406 4.19789 0.884117 4.33077 0.799731 4.50432C0.740777 4.62505 0.685358 4.74687 0.633475 4.86978C0.530393 5.10928 0.563405 5.38562 0.720003 5.5941C0.8766 5.80258 1.13283 5.91131 1.3916 5.87909C1.65037 5.84686 1.87209 5.67862 1.97277 5.4381C2.01539 5.3383 2.06014 5.23921 2.10775 5.14117C2.19226 4.96777 2.20441 4.76791 2.14152 4.58555C2.07862 4.40319 1.94585 4.25329 1.77241 4.16882Z" fill="#2B3134"/>
<path d="M0.727816 8.54643C1.12221 8.54636 1.44465 8.23197 1.45464 7.83777C1.45818 7.70049 1.46588 7.56315 1.47772 7.42575C1.50013 7.16688 1.38271 6.91572 1.16969 6.76688C0.956664 6.61805 0.680408 6.59414 0.44498 6.70418C0.209552 6.81421 0.0507191 7.04147 0.0283125 7.30034C0.0137616 7.46679 0.00440574 7.63349 0.000245079 7.80046C-0.0100785 8.20199 0.307028 8.5359 0.708615 8.54637C0.715027 8.54643 0.721404 8.54643 0.727816 8.54643Z" fill="#2B3134"/>
<path d="M1.72266 9.86653C1.64942 9.6161 1.44765 9.42408 1.19388 9.36329C0.940104 9.30251 0.67321 9.38228 0.494435 9.57234C0.315661 9.76241 0.252392 10.0336 0.328629 10.2832C0.366655 10.4107 0.407852 10.5379 0.45229 10.6637C0.538529 10.9089 0.749033 11.0895 1.00451 11.1374C1.25998 11.1853 1.52161 11.0933 1.69085 10.896C1.86008 10.6988 1.91121 10.4262 1.82497 10.1811C1.78836 10.0769 1.75426 9.97203 1.72266 9.86653Z" fill="#2B3134"/>
</svg>
