<svg width="1149" height="386" viewBox="0 0 1149 386" fill="none" xmlns="http://www.w3.org/2000/svg">
<rect width="1149" height="386" rx="20" fill="url(#paint0_linear_0_59730)"/>
<mask id="mask0_0_59730" style="mask-type:alpha" maskUnits="userSpaceOnUse" x="0" y="0" width="1149" height="386">
<rect width="1149" height="386" rx="20" fill="white"/>
</mask>
<g mask="url(#mask0_0_59730)">
<g opacity="0.309892">
<g filter="url(#filter0_f_0_59730)">
<path d="M0 48.5342C0 48.5342 181.345 -59.4891 461.833 113.437C742.321 286.364 1152 35.5021 1152 35.5021" stroke="white"/>
</g>
<g filter="url(#filter1_f_0_59730)">
<path d="M0 63.1929C0 63.1929 190.624 -64.2395 471.112 107.98C751.6 280.2 1152 57.063 1152 57.063" stroke="white"/>
</g>
<g filter="url(#filter2_f_0_59730)">
<path d="M0 78.1454C0 78.1454 198.909 -72.3246 479.397 99.9809C759.885 272.286 1152 78.1454 1152 78.1454" stroke="white"/>
</g>
<g filter="url(#filter3_f_0_59730)">
<path d="M0 93.3761C0 93.3761 198.909 -81.7962 479.397 90.2446C759.885 262.285 1152 108.197 1152 108.197" stroke="white"/>
</g>
<g filter="url(#filter4_f_0_59730)">
<path d="M0 111.666C0 111.666 191.987 -91.95 490.941 85.9656C789.894 263.881 1152 134.579 1152 134.579" stroke="white"/>
</g>
</g>
<g opacity="0.309892">
<g filter="url(#filter5_f_0_59730)">
<path d="M-37 350.466C-37 350.466 150.17 458.489 439.666 285.563C729.163 112.636 1152 363.498 1152 363.498" stroke="white"/>
</g>
<g filter="url(#filter6_f_0_59730)">
<path d="M-37 335.807C-37 335.807 159.747 463.239 449.244 291.02C738.74 118.8 1152 341.937 1152 341.937" stroke="white"/>
</g>
<g filter="url(#filter7_f_0_59730)">
<path d="M-37 320.855C-37 320.855 168.298 471.325 457.795 299.019C747.291 126.714 1152 320.855 1152 320.855" stroke="white"/>
</g>
<g filter="url(#filter8_f_0_59730)">
<path d="M-37 305.624C-37 305.624 168.298 480.796 457.795 308.755C747.291 136.715 1152 290.803 1152 290.803" stroke="white"/>
</g>
<g filter="url(#filter9_f_0_59730)">
<path d="M-37 288.334C-37 288.334 161.153 491.95 469.709 314.034C778.264 136.119 1152 265.421 1152 265.421" stroke="white"/>
</g>
</g>
<g opacity="0.309892">
<g filter="url(#filter10_f_0_59730)">
<path d="M1152 -8.92426C1152 -8.92426 970.655 -105.352 690.167 49.012C409.679 203.376 0 -20.5575 0 -20.5575" stroke="white"/>
</g>
<g filter="url(#filter11_f_0_59730)">
<path d="M1152 4.2753C1152 4.2753 961.376 -109.242 680.888 44.1719C400.4 197.586 0 -1.18525 0 -1.18525" stroke="white"/>
</g>
<g filter="url(#filter12_f_0_59730)">
<path d="M1152 17.4416C1152 17.4416 953.091 -116.503 672.603 36.8789C392.115 190.261 0 17.4416 0 17.4416" stroke="white"/>
</g>
<g filter="url(#filter13_f_0_59730)">
<path d="M1152 30.8355C1152 30.8355 953.091 -125.426 672.603 28.042C392.115 181.51 0 44.0561 0 44.0561" stroke="white"/>
</g>
<g filter="url(#filter14_f_0_59730)">
<path d="M1152 46.9811C1152 46.9811 960.013 -134.74 661.059 24.0446C362.106 182.83 0 67.4309 0 67.4309" stroke="white"/>
</g>
</g>
</g>
<defs>
<filter id="filter0_f_0_59730" x="-2.97219" y="11.9907" width="1157.95" height="165.471" filterUnits="userSpaceOnUse" color-interpolation-filters="sRGB">
<feFlood flood-opacity="0" result="BackgroundImageFix"/>
<feBlend mode="normal" in="SourceGraphic" in2="BackgroundImageFix" result="shape"/>
<feGaussianBlur stdDeviation="1.35914" result="effect1_foregroundBlur_0_59730"/>
</filter>
<filter id="filter1_f_0_59730" x="-2.99367" y="14.5939" width="1157.95" height="161.86" filterUnits="userSpaceOnUse" color-interpolation-filters="sRGB">
<feFlood flood-opacity="0" result="BackgroundImageFix"/>
<feBlend mode="normal" in="SourceGraphic" in2="BackgroundImageFix" result="shape"/>
<feGaussianBlur stdDeviation="1.35914" result="effect1_foregroundBlur_0_59730"/>
</filter>
<filter id="filter2_f_0_59730" x="-3.01711" y="14.0805" width="1157.95" height="160.421" filterUnits="userSpaceOnUse" color-interpolation-filters="sRGB">
<feFlood flood-opacity="0" result="BackgroundImageFix"/>
<feBlend mode="normal" in="SourceGraphic" in2="BackgroundImageFix" result="shape"/>
<feGaussianBlur stdDeviation="1.35914" result="effect1_foregroundBlur_0_59730"/>
</filter>
<filter id="filter3_f_0_59730" x="-3.04641" y="11.3673" width="1157.94" height="163.507" filterUnits="userSpaceOnUse" color-interpolation-filters="sRGB">
<feFlood flood-opacity="0" result="BackgroundImageFix"/>
<feBlend mode="normal" in="SourceGraphic" in2="BackgroundImageFix" result="shape"/>
<feGaussianBlur stdDeviation="1.35914" result="effect1_foregroundBlur_0_59730"/>
</filter>
<filter id="filter4_f_0_59730" x="-3.07961" y="9.82774" width="1157.96" height="173.35" filterUnits="userSpaceOnUse" color-interpolation-filters="sRGB">
<feFlood flood-opacity="0" result="BackgroundImageFix"/>
<feBlend mode="normal" in="SourceGraphic" in2="BackgroundImageFix" result="shape"/>
<feGaussianBlur stdDeviation="1.35914" result="effect1_foregroundBlur_0_59730"/>
</filter>
<filter id="filter5_f_0_59730" x="-39.9663" y="221.538" width="1194.93" height="165.471" filterUnits="userSpaceOnUse" color-interpolation-filters="sRGB">
<feFlood flood-opacity="0" result="BackgroundImageFix"/>
<feBlend mode="normal" in="SourceGraphic" in2="BackgroundImageFix" result="shape"/>
<feGaussianBlur stdDeviation="1.35914" result="effect1_foregroundBlur_0_59730"/>
</filter>
<filter id="filter6_f_0_59730" x="-39.9878" y="222.546" width="1194.94" height="161.86" filterUnits="userSpaceOnUse" color-interpolation-filters="sRGB">
<feFlood flood-opacity="0" result="BackgroundImageFix"/>
<feBlend mode="normal" in="SourceGraphic" in2="BackgroundImageFix" result="shape"/>
<feGaussianBlur stdDeviation="1.35914" result="effect1_foregroundBlur_0_59730"/>
</filter>
<filter id="filter7_f_0_59730" x="-40.0113" y="224.499" width="1194.94" height="160.421" filterUnits="userSpaceOnUse" color-interpolation-filters="sRGB">
<feFlood flood-opacity="0" result="BackgroundImageFix"/>
<feBlend mode="normal" in="SourceGraphic" in2="BackgroundImageFix" result="shape"/>
<feGaussianBlur stdDeviation="1.35914" result="effect1_foregroundBlur_0_59730"/>
</filter>
<filter id="filter8_f_0_59730" x="-40.0405" y="224.126" width="1194.93" height="163.507" filterUnits="userSpaceOnUse" color-interpolation-filters="sRGB">
<feFlood flood-opacity="0" result="BackgroundImageFix"/>
<feBlend mode="normal" in="SourceGraphic" in2="BackgroundImageFix" result="shape"/>
<feGaussianBlur stdDeviation="1.35914" result="effect1_foregroundBlur_0_59730"/>
</filter>
<filter id="filter9_f_0_59730" x="-40.0738" y="216.822" width="1194.95" height="173.35" filterUnits="userSpaceOnUse" color-interpolation-filters="sRGB">
<feFlood flood-opacity="0" result="BackgroundImageFix"/>
<feBlend mode="normal" in="SourceGraphic" in2="BackgroundImageFix" result="shape"/>
<feGaussianBlur stdDeviation="1.35914" result="effect1_foregroundBlur_0_59730"/>
</filter>
<filter id="filter10_f_0_59730" x="-2.95461" y="-41.8905" width="1157.91" height="148.4" filterUnits="userSpaceOnUse" color-interpolation-filters="sRGB">
<feFlood flood-opacity="0" result="BackgroundImageFix"/>
<feBlend mode="normal" in="SourceGraphic" in2="BackgroundImageFix" result="shape"/>
<feGaussianBlur stdDeviation="1.35914" result="effect1_foregroundBlur_0_59730"/>
</filter>
<filter id="filter11_f_0_59730" x="-2.93703" y="-39.3684" width="1157.91" height="144.888" filterUnits="userSpaceOnUse" color-interpolation-filters="sRGB">
<feFlood flood-opacity="0" result="BackgroundImageFix"/>
<feBlend mode="normal" in="SourceGraphic" in2="BackgroundImageFix" result="shape"/>
<feGaussianBlur stdDeviation="1.35914" result="effect1_foregroundBlur_0_59730"/>
</filter>
<filter id="filter12_f_0_59730" x="-2.91555" y="-39.9407" width="1157.91" height="143.509" filterUnits="userSpaceOnUse" color-interpolation-filters="sRGB">
<feFlood flood-opacity="0" result="BackgroundImageFix"/>
<feBlend mode="normal" in="SourceGraphic" in2="BackgroundImageFix" result="shape"/>
<feGaussianBlur stdDeviation="1.35914" result="effect1_foregroundBlur_0_59730"/>
</filter>
<filter id="filter13_f_0_59730" x="-2.88039" y="-42.6675" width="1157.91" height="146.55" filterUnits="userSpaceOnUse" color-interpolation-filters="sRGB">
<feFlood flood-opacity="0" result="BackgroundImageFix"/>
<feBlend mode="normal" in="SourceGraphic" in2="BackgroundImageFix" result="shape"/>
<feGaussianBlur stdDeviation="1.35914" result="effect1_foregroundBlur_0_59730"/>
</filter>
<filter id="filter14_f_0_59730" x="-2.86672" y="-44.2526" width="1157.93" height="155.403" filterUnits="userSpaceOnUse" color-interpolation-filters="sRGB">
<feFlood flood-opacity="0" result="BackgroundImageFix"/>
<feBlend mode="normal" in="SourceGraphic" in2="BackgroundImageFix" result="shape"/>
<feGaussianBlur stdDeviation="1.35914" result="effect1_foregroundBlur_0_59730"/>
</filter>
<linearGradient id="paint0_linear_0_59730" x1="-567.743" y1="191.865" x2="-337.15" y2="882.328" gradientUnits="userSpaceOnUse">
<stop stop-color="#00B2FD"/>
<stop offset="0.129769" stop-color="#0074F0"/>
<stop offset="1" stop-color="#000035"/>
</linearGradient>
</defs>
</svg>
