<svg width="15" height="17" viewBox="0 0 15 17" fill="none" xmlns="http://www.w3.org/2000/svg">
<path fill-rule="evenodd" clip-rule="evenodd" d="M2.83594 4.79028C2.83594 2.14782 4.92498 0 7.49511 0C10.0652 0 12.1543 2.14782 12.1543 4.79028C12.1543 7.43273 10.0652 9.58055 7.49511 9.58055C4.92498 9.58055 2.83594 7.43273 2.83594 4.79028ZM4.45034 4.78696C4.45034 6.51318 5.81613 7.9174 7.49511 7.9174C9.17409 7.9174 10.5399 6.5165 10.5399 4.79028C10.5399 3.06405 9.17086 1.65983 7.49511 1.65983C5.81936 1.65983 4.45034 3.06073 4.45034 4.78696Z" fill="white"/>
<path d="M14.9201 14.0953C14.5004 12.5052 13.6221 11.1076 12.379 10.0586C12.0335 9.76645 11.5266 9.81956 11.2425 10.1714C10.9584 10.5266 11.01 11.0478 11.3523 11.34C12.3338 12.1732 13.0312 13.2753 13.3606 14.5302C13.4284 14.7924 13.3218 14.985 13.254 15.0812C13.1313 15.2439 12.9473 15.3402 12.7471 15.3402C12.3015 15.3402 11.9399 15.712 11.9399 16.1701C11.9399 16.6282 12.3015 17 12.7471 17C13.4542 17 14.1064 16.668 14.5359 16.0904C14.9621 15.5161 15.1041 14.7891 14.9201 14.0953Z" fill="white"/>
<path d="M9.84867 15.3369H2.24482C1.9736 15.3369 1.81539 15.1775 1.74435 15.0813C1.62166 14.9153 1.58291 14.7062 1.6378 14.507C1.97037 13.2654 2.66134 12.1699 3.63321 11.3467C3.97546 11.0545 4.02712 10.5333 3.74299 10.1781C3.45885 9.82293 2.95193 9.77313 2.60645 10.0653C1.37627 11.111 0.501263 12.4919 0.0815174 14.0688C-0.105754 14.7725 0.0330853 15.5095 0.462517 16.0905C0.885491 16.6648 1.53771 16.9967 2.24482 16.9967H9.84867C10.2942 16.9967 10.6559 16.6249 10.6559 16.1668C10.6559 15.7087 10.2942 15.3369 9.84867 15.3369Z" fill="white"/>
</svg>
