<svg width="17" height="17" viewBox="0 0 17 17" fill="none" xmlns="http://www.w3.org/2000/svg">
<path d="M14.5176 0.698174C14.5176 0.312582 14.205 0 13.8194 0H0.698174C0.312582 0 0 0.312582 0 0.698174V13.8194C0 14.205 0.312582 14.5176 0.698174 14.5176C1.08377 14.5176 1.39635 14.205 1.39635 13.8194V1.39635H13.8194C14.205 1.39635 14.5176 1.08377 14.5176 0.698174Z" fill="white"/>
<path fill-rule="evenodd" clip-rule="evenodd" d="M3.17864 2.48242H16.2999C16.6855 2.48242 16.998 2.795 16.9981 3.1806V16.3018C16.9981 16.6874 16.6855 17 16.2999 17H3.17864C2.79305 17 2.48047 16.6874 2.48047 16.3018V3.1806C2.48047 2.795 2.79305 2.48242 3.17864 2.48242ZM11.7321 8.76988C12.077 8.94219 12.4963 8.80249 12.6688 8.45763C12.8412 8.11273 12.7015 7.69333 12.3566 7.52091L10.2288 6.45703C9.76541 6.2254 9.21841 6.56262 9.21841 7.08149V9.22036H8.49806C7.33091 9.22036 6.38137 10.1699 6.38137 11.337C6.38137 12.5042 7.33091 13.4537 8.49806 13.4537C9.66521 13.4537 10.6148 12.5042 10.6148 11.337V8.21117L11.7321 8.76988Z" fill="white"/>
</svg>
