<svg width="17" height="17" viewBox="0 0 17 17" fill="none" xmlns="http://www.w3.org/2000/svg">
<path fill-rule="evenodd" clip-rule="evenodd" d="M0.498047 4.26758H16.502C16.777 4.26758 17 4.49057 17 4.76562V16.5018C17 16.7769 16.777 16.9999 16.502 16.9999H0.498047C0.222992 16.9999 0 16.7769 0 16.5018V4.76562C0 4.49057 0.222992 4.26758 0.498047 4.26758ZM7.30924 13.7155L11.3102 11.0482C11.4488 10.9558 11.532 10.8003 11.532 10.6337C11.532 10.4672 11.4488 10.3117 11.3102 10.2194L7.30924 7.55203C7.15647 7.45016 6.95997 7.44063 6.79797 7.52733C6.63604 7.61399 6.53494 7.78276 6.53494 7.96644V13.3011C6.53494 13.4848 6.63604 13.6535 6.79797 13.7402C6.87162 13.7796 6.95237 13.7991 7.03295 13.7991C7.12957 13.7991 7.2259 13.771 7.30924 13.7155Z" fill="white"/>
<path d="M14.9027 2.13379H2.09961C1.82455 2.13379 1.60156 2.35678 1.60156 2.63184C1.60156 2.90689 1.82455 3.12988 2.09961 3.12988H14.9027C15.1778 3.12988 15.4008 2.90689 15.4008 2.63184C15.4008 2.35678 15.1778 2.13379 14.9027 2.13379Z" fill="white"/>
<path d="M13.2996 0H3.69727C3.42221 0 3.19922 0.222992 3.19922 0.498047C3.19922 0.773102 3.42221 0.996094 3.69727 0.996094H13.2996C13.5747 0.996094 13.7977 0.773102 13.7977 0.498047C13.7977 0.222992 13.5747 0 13.2996 0Z" fill="white"/>
</svg>
