<svg width="13" height="18" viewBox="0 0 13 18" fill="none" xmlns="http://www.w3.org/2000/svg">
<path d="M7.9897 13.4995H4.61343C4.46354 13.4995 4.33218 13.5561 4.21964 13.6684C4.107 13.781 4.05078 13.9121 4.05078 14.0622V17.4374C4.05078 17.5874 4.1072 17.7187 4.21964 17.8311C4.33218 17.9434 4.46339 17.9999 4.61343 17.9999H7.9897C8.13959 17.9999 8.27129 17.9435 8.38339 17.8311C8.49622 17.7187 8.55254 17.5874 8.55254 17.4374V14.0622C8.55254 13.9121 8.49637 13.781 8.38339 13.6684C8.27129 13.5558 8.13959 13.4995 7.9897 13.4995Z" fill="white"/>
<path d="M12.4232 3.39621C12.0386 2.68802 11.5417 2.09065 10.9319 1.60302C10.3226 1.11559 9.63748 0.72632 8.87799 0.435812C8.11835 0.145402 7.36344 0 6.61301 0C3.76214 0 1.5864 1.2469 0.0857481 3.74075C0.0108042 3.86256 -0.0150641 3.99378 0.00834052 4.13445C0.0318929 4.27493 0.10457 4.39216 0.226471 4.48589L2.53362 6.24386C2.65552 6.31873 2.77279 6.35622 2.88538 6.35622C3.05424 6.35622 3.19949 6.2811 3.32154 6.13112C3.99668 5.28747 4.49852 4.74842 4.82673 4.51391C5.23007 4.24212 5.73635 4.10628 6.34596 4.10628C6.91801 4.10628 7.42197 4.25631 7.85824 4.55608C8.2943 4.85614 8.51214 5.20305 8.51214 5.5968C8.51214 6.03724 8.39511 6.39365 8.16057 6.66554C7.92618 6.93733 7.53215 7.19971 6.97872 7.45294C6.24741 7.78103 5.57656 8.28969 4.96725 8.97877C4.3575 9.6679 4.05285 10.4015 4.05285 11.1796V11.8124C4.05285 11.9907 4.10183 12.1664 4.20047 12.3398C4.29902 12.5134 4.4185 12.6 4.55927 12.6H7.9355C8.08558 12.6 8.21675 12.5275 8.32938 12.3817C8.44168 12.2368 8.49819 12.0844 8.49819 11.9253C8.49819 11.691 8.62714 11.3766 8.88483 10.983C9.14278 10.5893 9.46389 10.2843 9.84871 10.0686C10.2143 9.86241 10.5 9.69623 10.7066 9.56949C10.9133 9.4431 11.1828 9.23874 11.5158 8.95769C11.8487 8.67634 12.1066 8.39741 12.2893 8.12094C12.4722 7.84442 12.6365 7.48574 12.7818 7.045C12.9275 6.60441 13 6.13092 13 5.62472C12.9999 4.84659 12.8075 4.10367 12.4232 3.39621Z" fill="white"/>
</svg>
