<svg width="15" height="10" viewBox="0 0 15 10" fill="none" xmlns="http://www.w3.org/2000/svg">
<path opacity="0.402393" d="M14.9997 1.17621C15.0097 0.706236 14.7307 0.281314 14.3047 0.117589C13.8786 -0.0461362 13.399 0.0872873 13.1098 0.449991L7.51723 7.20146L1.92671 0.449991C1.68958 0.116324 1.29178 -0.0519534 0.896526 0.0142015C0.50127 0.0803564 0.1751 0.369806 0.0518417 0.763791C-0.0714169 1.15778 0.0289879 1.58997 0.31186 1.88303L6.70669 9.61285C6.9094 9.85851 7.206 10 7.51828 10C7.83056 10 8.12717 9.85851 8.32988 9.61285L14.731 1.88303C14.8987 1.68777 14.994 1.43731 14.9999 1.17621H14.9997Z" fill="#2B3134"/>
</svg>
