<svg width="20" height="22" viewBox="0 0 20 22" fill="none" xmlns="http://www.w3.org/2000/svg">
<g opacity="0.601362">
<path d="M9.9987 2.53846C9.5466 2.53846 9.17969 2.15938 9.17969 1.69231V0.846154C9.17969 0.379077 9.5466 0 9.9987 0C10.4508 0 10.8177 0.379077 10.8177 0.846154V1.69231C10.8177 2.15938 10.4508 2.53846 9.9987 2.53846Z" fill="black"/>
<path d="M17.1496 9.92333C16.6975 9.92333 16.3305 9.54425 16.3305 9.07717C16.3305 5.6384 13.6278 2.70817 10.3059 2.54571C6.97992 2.38706 4.0147 5.0334 3.70143 8.45229C3.68259 8.65663 3.67317 8.86648 3.67317 9.07717C3.67317 9.54425 3.30626 9.92333 2.85417 9.92333C2.40207 9.92333 2.03516 9.54425 2.03516 9.07717C2.03516 8.81317 2.04703 8.54917 2.07078 8.29279C2.46514 3.98756 6.19859 0.652018 10.3833 0.855518C14.566 1.05986 17.9686 4.74825 17.9686 9.07717C17.9686 9.54467 17.6017 9.92333 17.1496 9.92333Z" fill="black"/>
<path d="M18.6828 15.6944C18.4809 15.6944 18.2782 15.6174 18.1197 15.463C16.9813 14.3495 16.3281 12.7815 16.3281 11.1616C16.3281 10.6945 16.695 10.3154 17.1471 10.3154C17.5992 10.3154 17.9661 10.6945 17.9661 11.1616C17.9661 12.3187 18.4326 13.439 19.2458 14.234C19.5743 14.5551 19.5886 15.0907 19.2778 15.4304C19.1169 15.6056 18.8998 15.6944 18.6828 15.6944Z" fill="black"/>
<path d="M1.31516 15.6944C1.09771 15.6944 0.881086 15.606 0.720151 15.43C0.409337 15.0907 0.423669 14.5551 0.752092 14.234C1.56537 13.439 2.03179 12.3191 2.03179 11.1616C2.03179 10.6945 2.39871 10.3154 2.8508 10.3154C3.3029 10.3154 3.66981 10.6945 3.66981 11.1616C3.66981 12.7824 3.01665 14.3503 1.87823 15.463C1.71934 15.6174 1.51705 15.6944 1.31516 15.6944Z" fill="black"/>
<path d="M10.0013 22C7.78178 22 5.90625 20.0623 5.90625 17.7692C5.90625 17.3022 6.27317 16.9231 6.72526 16.9231C7.17735 16.9231 7.54427 17.3022 7.54427 17.7692C7.54427 19.1451 8.66959 20.3077 10.0013 20.3077C11.333 20.3077 12.4583 19.1451 12.4583 17.7692C12.4583 17.3022 12.8252 16.9231 13.2773 16.9231C13.7294 16.9231 14.0963 17.3022 14.0963 17.7692C14.0963 20.0623 12.2208 22 10.0013 22Z" fill="black"/>
<path d="M2.44231 18.6154C1.44435 18.6154 0.556543 17.985 0.180208 17.0094C-0.196536 16.0325 0.0282822 14.9431 0.753105 14.234C1.08153 13.9125 1.59955 13.9273 1.91118 14.2666C2.222 14.6059 2.20807 15.1415 1.87965 15.4631C1.52093 15.8142 1.65279 16.2564 1.70193 16.3833C1.75066 16.5094 1.94845 16.9231 2.44231 16.9231C2.8944 16.9231 3.26132 17.3022 3.26132 17.7693C3.26132 18.2364 2.89481 18.6154 2.44231 18.6154Z" fill="black"/>
<path d="M17.5573 18.6154C17.1052 18.6154 16.7383 18.2363 16.7383 17.7693C16.7383 17.3022 17.1052 16.9231 17.5573 16.9231C18.0516 16.9231 18.2498 16.5077 18.2989 16.3803C18.3476 16.2538 18.4791 15.8134 18.1204 15.4627C17.7919 15.1411 17.7776 14.6059 18.0884 14.2662C18.3996 13.9269 18.9177 13.9121 19.2465 14.2332C19.9713 14.9423 20.1965 16.0308 19.8206 17.006C19.4439 17.9838 18.5553 18.6154 17.5573 18.6154Z" fill="black"/>
<path d="M2.85026 12.0073C2.39817 12.0073 2.03125 11.6283 2.03125 11.1612V9.07711C2.03125 8.61003 2.39817 8.23096 2.85026 8.23096C3.30235 8.23096 3.66927 8.61003 3.66927 9.07711V11.1612C3.66927 11.6283 3.30276 12.0073 2.85026 12.0073Z" fill="black"/>
<path d="M17.1471 12.0073C16.695 12.0073 16.3281 11.6283 16.3281 11.1612V9.07711C16.3281 8.61003 16.695 8.23096 17.1471 8.23096C17.5992 8.23096 17.9661 8.61003 17.9661 9.07711V11.1612C17.9661 11.6283 17.5992 12.0073 17.1471 12.0073Z" fill="black"/>
<path d="M17.5588 18.6154H2.44401C1.99192 18.6154 1.625 18.2363 1.625 17.7692C1.625 17.3022 1.99192 16.9231 2.44401 16.9231H17.5584C18.0105 16.9231 18.3774 17.3022 18.3774 17.7692C18.3774 18.2363 18.0109 18.6154 17.5588 18.6154Z" fill="black"/>
</g>
</svg>
