<svg viewBox="0 0 1578 880" fill="none" xmlns="http://www.w3.org/2000/svg">
<path fill-rule="evenodd" clip-rule="evenodd" d="M1163.79 75.4999C1163.79 75.4999 1194.6 46.967 1209.4 37.5285C1240.01 17.9917 1267.35 10.4236 1284.39 6.31623C1357.55 -11.3225 1418.32 15.4582 1435.28 24.9999C1508.02 65.9049 1549.77 128.867 1558.4 212C1560.29 230.16 1558.4 268.559 1558.4 268.559H1544.28C1544.28 268.559 1549.06 210.229 1541.12 181.028C1524.01 118.025 1479.69 61.4179 1425.64 34.8038C1372.3 8.53607 1304.48 7.86432 1246.72 32.0822C1218.84 43.7743 1173.81 84.4561 1173.81 84.4561L1163.79 75.4999Z" fill="url(#paint0_linear_0_28926)"/>
<path fill-rule="evenodd" clip-rule="evenodd" d="M1539.33 264.636C1541.65 264.636 1543.65 263.749 1547.71 264.636C1551.77 265.522 1561.42 266.083 1561.42 269.456C1561.42 272.829 1560.25 283.574 1557.65 293.692C1555.04 303.809 1547.71 322.747 1547.71 322.747L1527.13 308.994C1527.13 308.994 1532.15 302.545 1534.58 293.692C1537.01 284.839 1537.01 264.636 1539.33 264.636Z" fill="url(#paint1_linear_0_28926)"/>
<path fill-rule="evenodd" clip-rule="evenodd" d="M1128.72 118.131C1128.72 118.131 1140.3 97.2995 1145.82 90.0004C1151.34 82.7014 1157.84 77.1152 1160.97 75.4999C1164.11 73.8846 1164.95 76.2873 1168.29 78.4215C1171.63 80.5556 1177.96 82.6956 1177.96 86.348C1177.96 90.0004 1166.41 99.0109 1160.97 106.299C1155.53 113.586 1145.82 129.404 1145.82 129.404L1128.72 118.131Z" fill="url(#paint2_linear_0_28926)"/>
<path fill-rule="evenodd" clip-rule="evenodd" d="M1087.58 288.704C1092.71 288.704 1092.23 279.098 1110.31 244.005C1128.38 208.912 1168.29 147.793 1168.29 142.947C1168.29 138.1 1134.79 117.127 1115.27 114.478C1079.93 109.682 1040.13 127.161 1030.28 163.71C1007.33 248.81 1082.45 288.704 1087.58 288.704Z" fill="url(#paint3_linear_0_28926)"/>
<path fill-rule="evenodd" clip-rule="evenodd" d="M1505.88 299.395C1502.21 302.788 1483.55 357.074 1470.58 381.843C1457.6 406.612 1435.28 430.398 1435.28 434.179C1435.28 437.96 1456.56 455.805 1470.58 460C1513.34 472.8 1553.88 456.136 1570.18 421.056C1583.52 392.333 1576.78 353.513 1557.37 329.371C1552.05 322.763 1543.24 315.416 1529.98 308.819C1523.16 305.427 1509.55 296.001 1505.88 299.395Z" fill="url(#paint4_linear_0_28926)"/>
<path fill-rule="evenodd" clip-rule="evenodd" d="M1446.6 441.991L1465.72 454.852C1465.72 454.852 1439.14 499.212 1435.28 503.265C1431.42 507.317 1428.05 500.013 1424.77 497.86C1421.48 495.706 1417.33 493.537 1417.33 491.5C1417.33 489.463 1426.48 478.014 1431.54 469.448C1436.61 460.881 1446.6 441.991 1446.6 441.991Z" fill="url(#paint5_linear_0_28926)"/>
<path fill-rule="evenodd" clip-rule="evenodd" d="M1432.11 499.841C1432.11 499.841 1394.08 549.417 1379.98 615.533C1376.77 630.572 1375.82 659.358 1379.98 691.795C1381.18 701.163 1383.02 710.898 1384.84 720.539C1388.23 738.494 1391.56 756.12 1390.6 770.425C1388.63 799.799 1361.82 829.316 1361.82 829.316C1361.82 829.316 1304.6 887 1210.71 863.115C1196.47 859.494 1182.94 853.259 1170.55 845.124L1169.93 845.478L1169.64 845.646L1169.37 845.435L1168.6 844.815C1143.98 856.377 1083.4 881.296 1022.19 879.241C966.547 877.373 923.962 845.735 903.424 826.927C891.685 818.266 846.723 785.495 830.39 779.434C800.772 768.444 771.95 765.576 751.806 765.576C734.299 765.576 697.834 774.74 677.241 783.041C674.686 784.071 669.626 786.643 662.676 790.176L662.676 790.176C641.144 801.123 601.464 821.296 561.854 833.429C523.261 845.251 484.305 844.928 464.462 844.099C424.893 842.445 389.382 828.429 385.445 826.364C373.983 820.354 357.673 804.911 357.673 804.911L368.888 798.669C368.888 798.669 391.032 819.977 415.28 826.364C479.058 843.166 560.669 832.018 628.377 792.999C767.849 712.625 881.801 793.344 902.794 809.935C904.428 810.907 906.15 812.067 907.215 813.167C938.919 845.931 975.134 866.93 1017.49 869C1070.74 871.602 1134.39 848.572 1160.21 838.135L1160.06 838.011L1160.41 837.843C1137.63 820.048 1119.68 795.821 1109.86 770.425C1103.95 755.145 1105.53 730.578 1105.53 730.578C1105.53 730.578 1106.82 706.117 1109.86 695.299C1114.48 678.851 1123.49 663.844 1130.82 656.676C1174.37 614.056 1222.04 611.144 1260.3 633.417C1293.78 652.909 1298.87 707.765 1268.65 757.823C1261.55 769.593 1247.62 787.204 1228.29 803.989C1216.86 813.912 1189.78 832.509 1182.13 837.717L1182.77 838.15L1182.19 838.483C1190.12 843.323 1198.77 848.174 1205.05 850.534C1240 863.672 1273.52 863.618 1295.53 856.102C1318.47 848.267 1347.56 837.479 1368.36 803.989C1379.98 785.275 1379.98 750.496 1379.98 750.496C1379.98 750.496 1361.45 671.12 1371.19 615.533C1376.3 586.331 1388.87 548.525 1408.35 514C1413.6 504.712 1425.36 491.5 1425.36 491.5L1432.11 499.841ZM1173.61 832.045C1181.19 826.926 1212.55 805.564 1224.51 794.866C1243.41 777.969 1254.38 760.915 1260.3 750.496C1297.8 684.503 1270.95 635.398 1220.98 629.242C1174.15 623.472 1118.75 662.6 1116.72 722.032C1116.7 722.838 1116.66 723.69 1116.63 724.585C1116.1 738.172 1115.19 761.705 1127.35 785.275C1134.18 798.506 1161.58 825.085 1161.58 825.085C1161.58 825.085 1165.97 828.136 1172.2 832.184L1172.89 831.855L1173.14 831.731L1173.38 831.889L1173.61 832.045ZM1171.49 843.439C1170.89 843.728 1170.26 844.028 1169.6 844.339L1161.93 838.223L1173.06 832.879L1180.87 838.084L1171.49 843.439Z" fill="url(#paint6_linear_0_28926)"/>
<path fill-rule="evenodd" clip-rule="evenodd" d="M372.673 797.346C372.673 798.841 368.165 802.473 365.181 804.254C362.196 806.035 363.715 811.301 356.764 806.84C349.813 802.379 347.997 796.591 344.594 791.042C341.191 785.493 337.172 774.895 337.172 774.895L351.821 764.917C351.821 764.917 358.061 777.483 362.164 783.865C366.268 790.246 372.673 795.85 372.673 797.346Z" fill="url(#paint7_linear_0_28926)"/>
<path fill-rule="evenodd" clip-rule="evenodd" d="M2.92172 415.762C8.11317 397.26 27.1922 385.377 27.1922 385.377L196.452 299.277C196.452 299.277 213.152 294.488 226.027 299.277C238.902 304.066 248.738 318.725 248.738 318.725L436.077 693.547C436.077 693.547 441.259 705.307 439.967 713.475C438.674 721.643 430.385 729.527 430.385 729.527L268.048 828.835C268.048 828.835 256.255 835.865 245.228 832.137C234.2 828.41 226.027 814.631 226.027 814.631L7.16148 456.769C7.16148 456.769 -2.26973 434.265 2.92172 415.762Z" fill="url(#paint8_linear_0_28926)" stroke="#979797"/>
<path fill-rule="evenodd" clip-rule="evenodd" d="M153.715 474.42C153.715 474.42 184.041 529.129 184.354 529.694C184.667 530.258 189.384 536.566 197.92 536.573C206.455 536.58 211.021 530.794 212.144 529.286C213.267 527.778 222.697 510.003 223.75 507.856C224.804 505.709 227.484 499.352 223.765 492.643C220.046 485.933 213.339 484.418 210.553 484.049C207.768 483.68 178.741 483.302 178.741 483.302L174.328 475.341L153.715 474.42Z" stroke="url(#paint9_linear_0_28926)" stroke-width="6.35422" stroke-linecap="round" stroke-linejoin="round"/>
<path fill-rule="evenodd" clip-rule="evenodd" d="M184.251 499.003L197.289 522.524L210.841 499.831L184.251 499.003Z" stroke="url(#paint10_linear_0_28926)" stroke-width="5.67674" stroke-linecap="round" stroke-linejoin="round"/>
<circle cx="291.579" cy="669.383" r="46.9815" transform="rotate(-28 291.579 669.383)" fill="url(#paint11_linear_0_28926)"/>
<circle opacity="0.246319" cx="291.579" cy="669.383" r="54.9444" transform="rotate(-28 291.579 669.383)" fill="url(#paint12_linear_0_28926)"/>
<circle opacity="0.145637" cx="291.579" cy="669.383" r="64.5" transform="rotate(-28 291.579 669.383)" fill="url(#paint13_linear_0_28926)"/>
<g filter="url(#filter0_d_0_28926)">
<path d="M303.748 642.054C299.857 640.707 295.682 641.047 291.99 643.01C289.23 644.477 287.163 646.687 285.845 649.576C285.18 651.034 284.723 652.629 284.48 654.336C282.93 653.583 281.352 653.07 279.77 652.806C276.638 652.282 273.651 652.761 270.891 654.228C267.199 656.191 264.582 659.463 263.523 663.442C262.477 667.373 263.041 671.683 265.112 675.58C267.244 679.59 270.703 682.459 275.997 684.611C280.732 686.535 286.761 687.839 293.742 689.349C296.126 689.864 298.828 690.449 301.656 691.098C302.404 691.271 303.19 691.166 303.871 690.804C304.551 690.443 305.078 689.849 305.352 689.134C306.395 686.426 307.423 683.857 308.328 681.592C310.98 674.961 313.271 669.234 314.323 664.232C315.5 658.64 315.054 654.169 312.922 650.158C310.851 646.262 307.592 643.384 303.748 642.054Z" fill="white"/>
</g>
<path fill-rule="evenodd" clip-rule="evenodd" d="M27.1922 385.377C27.1922 385.377 8.11317 397.26 2.92172 415.762C-2.26973 434.265 7.16148 456.769 7.16148 456.769L226.027 814.631C226.027 814.631 234.2 828.41 245.228 832.137C256.255 835.865 268.048 828.835 268.048 828.835L430.385 729.527C430.385 729.527 438.674 721.643 439.967 713.475C441.259 705.307 436.077 693.547 436.077 693.547L248.738 318.725C248.738 318.725 238.902 304.066 226.027 299.277C213.152 294.488 196.452 299.277 196.452 299.277L27.1922 385.377ZM29.1232 418.992C35.846 404.206 63.6327 387.75 63.6327 387.75C63.6327 387.75 67.8913 395.002 74.1553 397.323C80.4192 399.645 86.7632 396.323 86.7632 396.323L172.815 351.119C172.815 351.119 178.032 346.521 179.388 341.169C180.744 335.817 178.388 329.128 178.388 329.128L202.059 316.76C202.059 316.76 211.211 313.691 220.652 316.76C230.093 319.829 237.998 328.444 237.998 328.444L419.46 684.957C419.46 684.957 426.946 695.788 424.911 704.773C422.877 713.758 411.401 720.557 411.401 720.557L281.457 799.171C281.457 799.171 262.778 808.409 249.41 802.781C236.041 797.153 221.652 773.768 221.652 773.768L31.7815 457.806C31.7815 457.806 22.4005 433.779 29.1232 418.992Z" fill="url(#paint14_linear_0_28926)"/>
<defs>
<filter id="filter0_d_0_28926" x="257.01" y="638.243" width="63.9507" height="61.9363" filterUnits="userSpaceOnUse" color-interpolation-filters="sRGB">
<feFlood flood-opacity="0" result="BackgroundImageFix"/>
<feColorMatrix in="SourceAlpha" type="matrix" values="0 0 0 0 0 0 0 0 0 0 0 0 0 0 0 0 0 0 127 0" result="hardAlpha"/>
<feOffset dy="3"/>
<feGaussianBlur stdDeviation="3"/>
<feColorMatrix type="matrix" values="0 0 0 0 0 0 0 0 0 0 0 0 0 0 0 0 0 0 0.5 0"/>
<feBlend mode="normal" in2="BackgroundImageFix" result="effect1_dropShadow_0_28926"/>
<feBlend mode="normal" in="SourceGraphic" in2="effect1_dropShadow_0_28926" result="shape"/>
</filter>
<linearGradient id="paint0_linear_0_28926" x1="879.705" y1="209.679" x2="1279.5" y2="756.914" gradientUnits="userSpaceOnUse">
<stop stop-color="#00B2FD"/>
<stop offset="0.504982" stop-color="#0074F0"/>
<stop offset="1" stop-color="#000035"/>
</linearGradient>
<linearGradient id="paint1_linear_0_28926" x1="1510.19" y1="293.323" x2="1561.08" y2="323.324" gradientUnits="userSpaceOnUse">
<stop stop-color="#00B2FD"/>
<stop offset="0.504982" stop-color="#0074F0"/>
<stop offset="1" stop-color="#000035"/>
</linearGradient>
<linearGradient id="paint2_linear_0_28926" x1="1092.93" y1="109.847" x2="1163.27" y2="182.608" gradientUnits="userSpaceOnUse">
<stop stop-color="#00B2FD"/>
<stop offset="0.504982" stop-color="#0074F0"/>
<stop offset="1" stop-color="#000035"/>
</linearGradient>
<linearGradient id="paint3_linear_0_28926" x1="955.587" y1="200.687" x2="1126.12" y2="340.232" gradientUnits="userSpaceOnUse">
<stop stop-color="#00E476"/>
<stop offset="0.476746" stop-color="#00B2FD"/>
<stop offset="1" stop-color="#0074F0"/>
</linearGradient>
<linearGradient id="paint4_linear_0_28926" x1="1365.2" y1="380.993" x2="1528.03" y2="521.279" gradientUnits="userSpaceOnUse">
<stop stop-color="#00E476"/>
<stop offset="0.476746" stop-color="#00B2FD"/>
<stop offset="1" stop-color="#0074F0"/>
</linearGradient>
<linearGradient id="paint5_linear_0_28926" x1="1393.42" y1="473.046" x2="1453.65" y2="519.969" gradientUnits="userSpaceOnUse">
<stop stop-color="#00B2FD"/>
<stop offset="0.504982" stop-color="#0074F0"/>
<stop offset="1" stop-color="#000035"/>
</linearGradient>
<linearGradient id="paint6_linear_0_28926" x1="-863.808" y1="771.472" x2="-307.127" y2="1810.88" gradientUnits="userSpaceOnUse">
<stop stop-color="#00E476"/>
<stop offset="0.476746" stop-color="#00B2FD"/>
<stop offset="1" stop-color="#0074F0"/>
</linearGradient>
<linearGradient id="paint7_linear_0_28926" x1="381.447" y1="763.016" x2="322.454" y2="753.825" gradientUnits="userSpaceOnUse">
<stop stop-color="#00B2FD"/>
<stop offset="0.504982" stop-color="#0074F0"/>
<stop offset="1" stop-color="#000035"/>
</linearGradient>
<linearGradient id="paint8_linear_0_28926" x1="-90.3548" y1="622.266" x2="296.397" y2="861.866" gradientUnits="userSpaceOnUse">
<stop stop-color="#002068"/>
<stop offset="1" stop-color="#000035"/>
</linearGradient>
<linearGradient id="paint9_linear_0_28926" x1="143.718" y1="508.245" x2="218.778" y2="527.271" gradientUnits="userSpaceOnUse">
<stop stop-color="#00E476"/>
<stop offset="0.549658" stop-color="#00B2FD"/>
<stop offset="1" stop-color="#0074F0"/>
</linearGradient>
<linearGradient id="paint10_linear_0_28926" x1="176.255" y1="510.472" x2="203.159" y2="521.685" gradientUnits="userSpaceOnUse">
<stop stop-color="#00E476"/>
<stop offset="0.549128" stop-color="#00B2FD"/>
<stop offset="1" stop-color="#0074F0"/>
</linearGradient>
<linearGradient id="paint11_linear_0_28926" x1="198.168" y1="669.106" x2="291.579" y2="763.069" gradientUnits="userSpaceOnUse">
<stop stop-color="#00E476"/>
<stop offset="0.476746" stop-color="#00B2FD"/>
<stop offset="1" stop-color="#0074F0"/>
</linearGradient>
<linearGradient id="paint12_linear_0_28926" x1="182.336" y1="669.059" x2="291.579" y2="778.948" gradientUnits="userSpaceOnUse">
<stop stop-color="#00E476"/>
<stop offset="0.476746" stop-color="#00B2FD"/>
<stop offset="1" stop-color="#0074F0"/>
</linearGradient>
<linearGradient id="paint13_linear_0_28926" x1="163.337" y1="669.003" x2="291.579" y2="798.003" gradientUnits="userSpaceOnUse">
<stop stop-color="#00E476"/>
<stop offset="0.476746" stop-color="#00B2FD"/>
<stop offset="1" stop-color="#0074F0"/>
</linearGradient>
<linearGradient id="paint14_linear_0_28926" x1="-368.238" y1="637.114" x2="296.746" y2="1059.38" gradientUnits="userSpaceOnUse">
<stop stop-color="#00E476"/>
<stop offset="0.476746" stop-color="#00B2FD"/>
<stop offset="1" stop-color="#0074F0"/>
</linearGradient>
</defs>
</svg>
