<svg width="20" height="17" viewBox="0 0 20 17" fill="none" xmlns="http://www.w3.org/2000/svg">
<path d="M19.9981 0.536439C19.9742 0.163803 19.5878 -0.106333 19.1946 0.0408649C19.0947 0.0802526 20.0222 -0.554994 5.91007 9.27455C5.7557 9.3821 5.66406 9.556 5.66406 9.74132V16.4269C5.66406 16.6909 5.84902 16.9227 6.11447 16.9844C6.37802 17.0457 6.6509 16.9222 6.77324 16.6848C6.99022 16.2636 8.90963 12.5384 9.23438 11.9081L19.8387 0.966801C19.9516 0.85028 20.0084 0.694372 19.9981 0.536439Z" fill="white"/>
<path d="M10.2017 12.5745L9.91406 13.1327L14.2972 16.3142C14.622 16.5499 15.0887 16.4 15.2069 16.0212L19.166 3.3252L10.2017 12.5745Z" fill="white"/>
<path d="M5.2301 8.34101L14.7805 1.68884L0.376939 7.06662C0.150346 7.15124 0.000469833 7.36365 1.1026e-06 7.60086C-0.000467628 7.8381 0.14855 8.05109 0.374829 8.13655L4.49353 9.6923C4.50931 9.15578 4.78156 8.65344 5.2301 8.34101Z" fill="white"/>
</svg>
