<svg width="1149" height="603" viewBox="0 0 1149 603" fill="none" xmlns="http://www.w3.org/2000/svg">
<rect width="1149" height="603" rx="20" fill="#000035"/>
<mask id="mask0_0_86524" style="mask-type:alpha" maskUnits="userSpaceOnUse" x="0" y="0" width="1149" height="603">
<rect width="1149" height="603" rx="20" fill="white"/>
</mask>
<g mask="url(#mask0_0_86524)">
<g opacity="0.309892">
<g filter="url(#filter0_f_0_86524)">
<path d="M-2 131.534C-2 131.534 179.345 23.5109 459.833 196.437C740.321 369.364 1150 118.502 1150 118.502" stroke="white"/>
</g>
<g filter="url(#filter1_f_0_86524)">
<path d="M-2 146.193C-2 146.193 188.624 18.7605 469.112 190.98C749.6 363.2 1150 140.063 1150 140.063" stroke="white"/>
</g>
<g filter="url(#filter2_f_0_86524)">
<path d="M-2 161.145C-2 161.145 196.909 10.6754 477.397 182.981C757.885 355.286 1150 161.145 1150 161.145" stroke="white"/>
</g>
<g filter="url(#filter3_f_0_86524)">
<path d="M-2 176.376C-2 176.376 196.909 1.2038 477.397 173.245C757.885 345.285 1150 191.197 1150 191.197" stroke="white"/>
</g>
<g filter="url(#filter4_f_0_86524)">
<path d="M-2 194.666C-2 194.666 189.987 -8.95003 488.941 168.966C787.894 346.881 1150 217.579 1150 217.579" stroke="white"/>
</g>
</g>
<circle opacity="0.953246" cx="57" cy="71" r="15" fill="url(#paint0_linear_0_86524)"/>
<circle opacity="0.953246" cx="626.5" cy="294.5" r="19.5" fill="url(#paint1_linear_0_86524)"/>
<circle opacity="0.953246" cx="1022.5" cy="120.5" r="19.5" fill="url(#paint2_linear_0_86524)"/>
<circle opacity="0.953246" cx="848" cy="365" r="29" fill="url(#paint3_linear_0_86524)"/>
<g opacity="0.309892">
<g filter="url(#filter5_f_0_86524)">
<path d="M-2 433.466C-2 433.466 179.345 541.489 459.833 368.563C740.321 195.636 1150 446.498 1150 446.498" stroke="white"/>
</g>
<g filter="url(#filter6_f_0_86524)">
<path d="M-2 418.807C-2 418.807 188.624 546.239 469.112 374.02C749.6 201.8 1150 424.937 1150 424.937" stroke="white"/>
</g>
<g filter="url(#filter7_f_0_86524)">
<path d="M-2 403.855C-2 403.855 196.909 554.325 477.397 382.019C757.885 209.714 1150 403.855 1150 403.855" stroke="white"/>
</g>
<g filter="url(#filter8_f_0_86524)">
<path d="M-2 388.624C-2 388.624 196.909 563.796 477.397 391.755C757.885 219.715 1150 373.803 1150 373.803" stroke="white"/>
</g>
<g filter="url(#filter9_f_0_86524)">
<path d="M-2 371.334C-2 371.334 189.987 574.95 488.941 397.034C787.894 219.119 1150 348.421 1150 348.421" stroke="white"/>
</g>
</g>
<circle opacity="0.953246" cx="510" cy="150" r="29" fill="url(#paint4_linear_0_86524)"/>
<circle opacity="0.953246" cx="701" cy="53" r="29" fill="url(#paint5_linear_0_86524)"/>
<g opacity="0.309892">
<g filter="url(#filter10_f_0_86524)">
<path d="M1150 44.0757C1150 44.0757 968.655 -52.3518 688.167 102.012C407.679 256.376 -2 32.4425 -2 32.4425" stroke="white"/>
</g>
<g filter="url(#filter11_f_0_86524)">
<path d="M1150 57.2753C1150 57.2753 959.376 -56.2421 678.888 97.1719C398.4 250.586 -2 51.8148 -2 51.8148" stroke="white"/>
</g>
<g filter="url(#filter12_f_0_86524)">
<path d="M1150 70.4416C1150 70.4416 951.091 -63.5028 670.603 89.8789C390.115 243.261 -2 70.4416 -2 70.4416" stroke="white"/>
</g>
<g filter="url(#filter13_f_0_86524)">
<path d="M1150 83.8355C1150 83.8355 951.091 -72.4262 670.603 81.042C390.115 234.51 -2 97.0561 -2 97.0561" stroke="white"/>
</g>
<g filter="url(#filter14_f_0_86524)">
<path d="M1150 99.9811C1150 99.9811 958.013 -81.7404 659.059 77.0446C360.106 235.83 -2 120.431 -2 120.431" stroke="white"/>
</g>
</g>
<circle opacity="0.953246" cx="424.5" cy="207.5" r="19.5" fill="url(#paint6_linear_0_86524)"/>
<circle opacity="0.953246" cx="44.5" cy="255.5" r="19.5" fill="url(#paint7_linear_0_86524)"/>
<circle opacity="0.953246" cx="380.5" cy="88.5" r="32.5" fill="url(#paint8_linear_0_86524)"/>
<circle opacity="0.953246" cx="799.5" cy="169.5" r="32.5" fill="url(#paint9_linear_0_86524)"/>
<circle opacity="0.953246" cx="463.5" cy="355.5" r="50.5" fill="url(#paint10_linear_0_86524)"/>
<circle opacity="0.953246" cx="722.5" cy="456.5" r="50.5" fill="url(#paint11_linear_0_86524)"/>
<circle opacity="0.425646" cx="1092.5" cy="355.5" r="50.5" fill="url(#paint12_linear_0_86524)"/>
<circle opacity="0.953246" cx="177.5" cy="188.5" r="32.5" fill="url(#paint13_linear_0_86524)"/>
<circle opacity="0.953246" cx="64" cy="361" r="55" fill="url(#paint14_linear_0_86524)"/>
<path d="M1095.52 279.615L1072.95 265.78C1071.32 264.781 1069.35 264.739 1067.67 265.669C1066 266.599 1065 268.293 1065 270.2V297.743C1065 300.626 1067.34 302.984 1070.21 303C1070.21 303 1070.22 303 1070.23 303C1071.13 303 1072.06 302.72 1072.93 302.19C1073.64 301.764 1073.86 300.852 1073.43 300.154C1073 299.455 1072.09 299.234 1071.38 299.661C1070.97 299.908 1070.58 300.036 1070.22 300.036C1069.14 300.031 1067.98 299.108 1067.98 297.743V270.2C1067.98 269.382 1068.41 268.655 1069.13 268.256C1069.84 267.857 1070.69 267.875 1071.39 268.304L1093.96 282.138C1094.63 282.554 1095.02 283.246 1095.02 284.038C1095.02 284.831 1094.63 285.522 1093.95 285.935L1077.63 295.871C1076.93 296.298 1076.71 297.211 1077.14 297.908C1077.57 298.606 1078.48 298.826 1079.19 298.398L1095.5 288.464C1097.06 287.516 1098 285.864 1098 284.044C1098 282.225 1097.08 280.569 1095.52 279.615Z" fill="black"/>
<path fill-rule="evenodd" clip-rule="evenodd" d="M1038.28 205.068L1044.49 213.839C1044.7 214.143 1044.75 214.534 1044.62 214.882C1044.49 215.229 1044.19 215.487 1043.82 215.569L1033.34 217.93C1033.12 217.979 1032.9 217.961 1032.69 217.883C1032.53 217.819 1032.37 217.713 1032.25 217.572C1031.98 217.262 1031.91 216.828 1032.05 216.445L1036.33 205.313C1036.47 204.929 1036.82 204.658 1037.23 204.607C1037.64 204.556 1038.04 204.733 1038.28 205.068ZM1041.71 213.764L1037.66 208.053L1034.88 215.301L1041.71 213.764Z" fill="black"/>
<path fill-rule="evenodd" clip-rule="evenodd" d="M1026.69 192.758L1060.09 205.578C1060.66 205.798 1060.95 206.442 1060.73 207.016L1051.33 231.508C1051.11 232.082 1050.46 232.368 1049.89 232.148L1016.49 219.328C1015.92 219.108 1015.63 218.464 1015.85 217.89L1025.25 193.398C1025.47 192.824 1026.12 192.538 1026.69 192.758ZM1018.33 217.648L1049.65 229.67L1058.25 207.258L1026.93 195.235L1018.33 217.648Z" fill="black"/>
<path d="M1058.46 199.843L1031.74 189.587C1031.16 189.367 1030.52 189.653 1030.3 190.227C1030.08 190.801 1030.37 191.445 1030.94 191.666L1057.66 201.922C1058.23 202.142 1058.88 201.855 1059.1 201.281C1059.32 200.707 1059.03 200.063 1058.46 199.843Z" fill="black"/>
<path d="M1056.83 194.108L1036.79 186.416C1036.22 186.196 1035.57 186.482 1035.35 187.056C1035.13 187.63 1035.42 188.274 1035.99 188.495L1056.03 196.187C1056.6 196.407 1057.25 196.12 1057.47 195.546C1057.69 194.972 1057.4 194.328 1056.83 194.108Z" fill="black"/>
<path d="M981.998 246.041C981.952 245.318 981.218 244.794 980.471 245.079C980.281 245.156 982.043 243.923 955.229 263.004C954.936 263.212 954.762 263.55 954.762 263.91V276.888C954.762 277.4 955.113 277.85 955.618 277.97C956.118 278.089 956.637 277.849 956.869 277.388C957.282 276.571 960.929 269.339 961.546 268.116L981.695 246.877C981.909 246.651 982.017 246.348 981.998 246.041Z" fill="black"/>
<path d="M963.386 269.409L962.84 270.493L971.168 276.669C971.785 277.126 972.672 276.835 972.897 276.1L980.419 251.455L963.386 269.409Z" fill="black"/>
<path d="M953.938 261.191L972.084 248.278L944.716 258.718C944.286 258.882 944.001 259.294 944 259.755C943.999 260.215 944.282 260.629 944.712 260.794L952.538 263.814C952.568 262.773 953.085 261.798 953.938 261.191Z" fill="black"/>
<path fill-rule="evenodd" clip-rule="evenodd" d="M906.378 339.904C906.526 339.969 906.68 340 906.832 340C907.213 340 907.581 339.806 907.798 339.461L923.818 313.978C924.045 313.617 924.061 313.159 923.86 312.783C923.658 312.406 923.272 312.172 922.853 312.172H913.874L918.414 301.644C918.57 301.282 918.537 300.863 918.325 300.532C918.113 300.2 917.752 300 917.364 300H906.814C906.34 300 905.915 300.298 905.744 300.749L898.077 320.999C897.941 321.36 897.987 321.766 898.201 322.085C898.415 322.404 898.769 322.594 899.147 322.594H909.598L905.719 338.545C905.584 339.102 905.863 339.677 906.378 339.904ZM911.065 320.25H900.821L907.6 302.344H915.605L911.065 312.872C910.909 313.234 910.942 313.653 911.154 313.984C911.366 314.316 911.727 314.516 912.115 314.516H920.753L909.62 332.225L912.178 321.705C912.263 321.355 912.186 320.984 911.969 320.7C911.751 320.416 911.418 320.25 911.065 320.25Z" fill="black"/>
<path d="M989.014 306.227C988.701 305.889 988.22 305.763 987.782 305.906C987.344 306.048 987.028 306.432 986.974 306.89L985.623 318.298L974.94 322.729C974.511 322.907 974.226 323.319 974.212 323.783C974.198 324.247 974.457 324.676 974.874 324.88L985.155 329.909L986.527 340.437C986.587 340.896 986.909 341.278 987.352 341.413C987.794 341.549 988.275 341.414 988.582 341.067L996.816 331.77C997.248 331.282 997.203 330.535 996.714 330.103C996.226 329.671 995.48 329.716 995.048 330.204L988.534 337.56L987.415 328.974C987.364 328.581 987.119 328.24 986.763 328.066L978.261 323.908L987.167 320.215C987.561 320.051 987.837 319.687 987.887 319.263L989.018 309.711L995.548 316.774C995.838 317.087 996.275 317.22 996.691 317.12L1005.9 314.914L1002.04 321.431C1001.71 321.992 1001.89 322.716 1002.46 323.048C1003.02 323.381 1003.74 323.195 1004.07 322.634L1009.35 313.717C1009.59 313.309 1009.57 312.796 1009.29 312.415C1009 312.033 1008.52 311.857 1008.06 311.968L996.813 314.662L989.014 306.227Z" fill="black"/>
<path d="M996.996 338.09C996.392 336.23 997.41 334.231 999.271 333.626C999.664 333.498 1000.06 333.443 1000.46 333.453L999.224 329.662C999.064 329.169 999.244 328.629 999.668 328.331L1007.75 322.647C1008.06 322.432 1008.45 322.375 1008.81 322.493C1009.16 322.612 1009.44 322.892 1009.56 323.249L1012.23 331.484C1012.84 333.345 1011.82 335.344 1009.96 335.948C1008.1 336.553 1006.1 335.534 1005.49 333.674C1004.89 331.813 1005.91 329.814 1007.77 329.21C1008.16 329.082 1008.56 329.027 1008.95 329.037L1007.8 325.499L1001.74 329.762L1003.73 335.901C1004.34 337.762 1003.32 339.76 1001.46 340.365C999.599 340.969 997.601 339.951 996.996 338.09Z" fill="black"/>
<path fill-rule="evenodd" clip-rule="evenodd" d="M874.574 253.353L872.644 250.969C871.696 249.799 869.99 249.596 868.795 250.494L867.611 249.031C866.994 248.269 865.872 248.151 865.111 248.767L861.308 251.847L859.711 250.879C859.304 250.632 858.825 250.559 858.363 250.673C857.901 250.787 857.511 251.075 857.266 251.483L852.4 259.584C852.155 259.991 852.084 260.47 852.2 260.931C852.316 261.393 852.604 261.781 853.012 262.025L853.903 262.558C852.825 263.547 852.689 265.221 853.622 266.373L862.319 277.112C863.288 278.31 865.051 278.496 866.248 277.526L880.928 265.638C882.125 264.669 882.31 262.906 881.341 261.709L879.347 259.247C879.937 258.609 879.986 257.615 879.423 256.92L876.865 253.762C876.303 253.067 875.32 252.908 874.574 253.353ZM878.239 257.879C878.327 257.988 878.311 258.148 878.202 258.236L875.045 260.793C874.065 261.586 872.623 261.434 871.83 260.454C871.037 259.474 871.188 258.032 872.167 257.239L875.324 254.683C875.433 254.595 875.593 254.612 875.681 254.72L878.239 257.879ZM853.678 260.561C853.688 260.6 853.715 260.671 853.794 260.718L855.158 261.534L860.704 257.043L859.521 255.582C858.904 254.82 859.021 253.698 859.783 253.082L860.05 252.866L858.922 252.182C858.843 252.134 858.767 252.143 858.729 252.153C858.691 252.162 858.62 252.19 858.572 252.268L853.707 260.369C853.659 260.447 853.668 260.523 853.678 260.561ZM866.427 249.99L867.61 251.45L861.888 256.084L860.705 254.623C860.616 254.515 860.633 254.354 860.742 254.266L866.07 249.952C866.179 249.864 866.339 249.881 866.427 249.99ZM865.289 276.342L879.969 264.454C880.513 264.013 880.597 263.212 880.157 262.668L878.174 260.22L876.004 261.977C874.372 263.299 871.968 263.046 870.646 261.413C869.324 259.78 869.576 257.376 871.208 256.055L873.378 254.297L871.46 251.928C871.019 251.384 870.218 251.3 869.674 251.74L854.993 263.628C854.449 264.069 854.365 264.87 854.806 265.414L863.503 276.154C863.943 276.698 864.745 276.782 865.289 276.342Z" fill="black"/>
<circle cx="873.328" cy="258.926" r="1" transform="rotate(-39 873.328 258.926)" fill="black"/>
<path fill-rule="evenodd" clip-rule="evenodd" d="M1053.15 391.508L1061.07 363.877L1096.47 364.937L1086.3 400.418C1084.86 405.431 1079.63 408.346 1074.64 406.914C1069.65 405.483 1066.76 400.24 1068.19 395.227C1069.63 390.213 1074.86 387.299 1079.85 388.73C1082.16 389.392 1084.02 390.87 1085.21 392.763L1089.49 377.84L1060.6 376.975L1054.23 399.181L1054.23 399.181C1052.79 404.183 1047.56 407.088 1042.58 405.659C1037.59 404.228 1034.7 398.984 1036.13 393.971C1037.57 388.957 1042.8 386.043 1047.79 387.474C1050.1 388.136 1051.96 389.615 1053.15 391.508ZM1039.17 394.841C1038.21 398.174 1040.13 401.661 1043.45 402.612C1046.77 403.564 1050.25 401.626 1051.2 398.292C1052.16 394.959 1050.24 391.473 1046.92 390.521C1043.6 389.569 1040.12 391.507 1039.17 394.841ZM1061.5 373.832L1063.43 367.117L1092.32 367.982L1090.39 374.698L1061.5 373.832ZM1071.23 396.096C1070.27 399.43 1072.19 402.916 1075.51 403.868C1078.83 404.82 1082.31 402.882 1083.27 399.548C1084.22 396.215 1082.3 392.728 1078.98 391.777C1075.66 390.825 1072.18 392.763 1071.23 396.096Z" fill="black"/>
</g>
<defs>
<filter id="filter0_f_0_86524" x="-4.97219" y="94.9907" width="1157.95" height="165.471" filterUnits="userSpaceOnUse" color-interpolation-filters="sRGB">
<feFlood flood-opacity="0" result="BackgroundImageFix"/>
<feBlend mode="normal" in="SourceGraphic" in2="BackgroundImageFix" result="shape"/>
<feGaussianBlur stdDeviation="1.35914" result="effect1_foregroundBlur_0_86524"/>
</filter>
<filter id="filter1_f_0_86524" x="-4.99563" y="97.5939" width="1157.95" height="161.86" filterUnits="userSpaceOnUse" color-interpolation-filters="sRGB">
<feFlood flood-opacity="0" result="BackgroundImageFix"/>
<feBlend mode="normal" in="SourceGraphic" in2="BackgroundImageFix" result="shape"/>
<feGaussianBlur stdDeviation="1.35914" result="effect1_foregroundBlur_0_86524"/>
</filter>
<filter id="filter2_f_0_86524" x="-5.01906" y="97.0805" width="1157.96" height="160.421" filterUnits="userSpaceOnUse" color-interpolation-filters="sRGB">
<feFlood flood-opacity="0" result="BackgroundImageFix"/>
<feBlend mode="normal" in="SourceGraphic" in2="BackgroundImageFix" result="shape"/>
<feGaussianBlur stdDeviation="1.35914" result="effect1_foregroundBlur_0_86524"/>
</filter>
<filter id="filter3_f_0_86524" x="-5.04641" y="94.3673" width="1157.94" height="163.507" filterUnits="userSpaceOnUse" color-interpolation-filters="sRGB">
<feFlood flood-opacity="0" result="BackgroundImageFix"/>
<feBlend mode="normal" in="SourceGraphic" in2="BackgroundImageFix" result="shape"/>
<feGaussianBlur stdDeviation="1.35914" result="effect1_foregroundBlur_0_86524"/>
</filter>
<filter id="filter4_f_0_86524" x="-5.08156" y="92.8277" width="1157.96" height="173.35" filterUnits="userSpaceOnUse" color-interpolation-filters="sRGB">
<feFlood flood-opacity="0" result="BackgroundImageFix"/>
<feBlend mode="normal" in="SourceGraphic" in2="BackgroundImageFix" result="shape"/>
<feGaussianBlur stdDeviation="1.35914" result="effect1_foregroundBlur_0_86524"/>
</filter>
<filter id="filter5_f_0_86524" x="-4.97219" y="304.538" width="1157.95" height="165.471" filterUnits="userSpaceOnUse" color-interpolation-filters="sRGB">
<feFlood flood-opacity="0" result="BackgroundImageFix"/>
<feBlend mode="normal" in="SourceGraphic" in2="BackgroundImageFix" result="shape"/>
<feGaussianBlur stdDeviation="1.35914" result="effect1_foregroundBlur_0_86524"/>
</filter>
<filter id="filter6_f_0_86524" x="-4.99563" y="305.546" width="1157.95" height="161.86" filterUnits="userSpaceOnUse" color-interpolation-filters="sRGB">
<feFlood flood-opacity="0" result="BackgroundImageFix"/>
<feBlend mode="normal" in="SourceGraphic" in2="BackgroundImageFix" result="shape"/>
<feGaussianBlur stdDeviation="1.35914" result="effect1_foregroundBlur_0_86524"/>
</filter>
<filter id="filter7_f_0_86524" x="-5.01906" y="307.499" width="1157.96" height="160.421" filterUnits="userSpaceOnUse" color-interpolation-filters="sRGB">
<feFlood flood-opacity="0" result="BackgroundImageFix"/>
<feBlend mode="normal" in="SourceGraphic" in2="BackgroundImageFix" result="shape"/>
<feGaussianBlur stdDeviation="1.35914" result="effect1_foregroundBlur_0_86524"/>
</filter>
<filter id="filter8_f_0_86524" x="-5.04641" y="307.126" width="1157.94" height="163.507" filterUnits="userSpaceOnUse" color-interpolation-filters="sRGB">
<feFlood flood-opacity="0" result="BackgroundImageFix"/>
<feBlend mode="normal" in="SourceGraphic" in2="BackgroundImageFix" result="shape"/>
<feGaussianBlur stdDeviation="1.35914" result="effect1_foregroundBlur_0_86524"/>
</filter>
<filter id="filter9_f_0_86524" x="-5.08156" y="299.822" width="1157.96" height="173.35" filterUnits="userSpaceOnUse" color-interpolation-filters="sRGB">
<feFlood flood-opacity="0" result="BackgroundImageFix"/>
<feBlend mode="normal" in="SourceGraphic" in2="BackgroundImageFix" result="shape"/>
<feGaussianBlur stdDeviation="1.35914" result="effect1_foregroundBlur_0_86524"/>
</filter>
<filter id="filter10_f_0_86524" x="-4.95266" y="11.1095" width="1157.9" height="148.4" filterUnits="userSpaceOnUse" color-interpolation-filters="sRGB">
<feFlood flood-opacity="0" result="BackgroundImageFix"/>
<feBlend mode="normal" in="SourceGraphic" in2="BackgroundImageFix" result="shape"/>
<feGaussianBlur stdDeviation="1.35914" result="effect1_foregroundBlur_0_86524"/>
</filter>
<filter id="filter11_f_0_86524" x="-4.93703" y="13.6316" width="1157.91" height="144.888" filterUnits="userSpaceOnUse" color-interpolation-filters="sRGB">
<feFlood flood-opacity="0" result="BackgroundImageFix"/>
<feBlend mode="normal" in="SourceGraphic" in2="BackgroundImageFix" result="shape"/>
<feGaussianBlur stdDeviation="1.35914" result="effect1_foregroundBlur_0_86524"/>
</filter>
<filter id="filter12_f_0_86524" x="-4.9175" y="13.0593" width="1157.91" height="143.509" filterUnits="userSpaceOnUse" color-interpolation-filters="sRGB">
<feFlood flood-opacity="0" result="BackgroundImageFix"/>
<feBlend mode="normal" in="SourceGraphic" in2="BackgroundImageFix" result="shape"/>
<feGaussianBlur stdDeviation="1.35914" result="effect1_foregroundBlur_0_86524"/>
</filter>
<filter id="filter13_f_0_86524" x="-4.87844" y="10.3325" width="1157.9" height="146.55" filterUnits="userSpaceOnUse" color-interpolation-filters="sRGB">
<feFlood flood-opacity="0" result="BackgroundImageFix"/>
<feBlend mode="normal" in="SourceGraphic" in2="BackgroundImageFix" result="shape"/>
<feGaussianBlur stdDeviation="1.35914" result="effect1_foregroundBlur_0_86524"/>
</filter>
<filter id="filter14_f_0_86524" x="-4.86672" y="8.74742" width="1157.92" height="155.403" filterUnits="userSpaceOnUse" color-interpolation-filters="sRGB">
<feFlood flood-opacity="0" result="BackgroundImageFix"/>
<feBlend mode="normal" in="SourceGraphic" in2="BackgroundImageFix" result="shape"/>
<feGaussianBlur stdDeviation="1.35914" result="effect1_foregroundBlur_0_86524"/>
</filter>
<linearGradient id="paint0_linear_0_86524" x1="27.1764" y1="70.9118" x2="57" y2="100.912" gradientUnits="userSpaceOnUse">
<stop stop-color="#002068"/>
<stop offset="1" stop-color="#000035"/>
</linearGradient>
<linearGradient id="paint1_linear_0_86524" x1="587.729" y1="294.385" x2="626.5" y2="333.385" gradientUnits="userSpaceOnUse">
<stop stop-color="#002068"/>
<stop offset="1" stop-color="#000035"/>
</linearGradient>
<linearGradient id="paint2_linear_0_86524" x1="983.729" y1="120.385" x2="1022.5" y2="159.385" gradientUnits="userSpaceOnUse">
<stop stop-color="#002068"/>
<stop offset="1" stop-color="#000035"/>
</linearGradient>
<linearGradient id="paint3_linear_0_86524" x1="790.341" y1="364.829" x2="848" y2="422.829" gradientUnits="userSpaceOnUse">
<stop stop-color="#002068"/>
<stop offset="1" stop-color="#000035"/>
</linearGradient>
<linearGradient id="paint4_linear_0_86524" x1="452.341" y1="149.829" x2="510" y2="207.829" gradientUnits="userSpaceOnUse">
<stop stop-color="#002068"/>
<stop offset="1" stop-color="#000035"/>
</linearGradient>
<linearGradient id="paint5_linear_0_86524" x1="643.341" y1="52.8295" x2="701" y2="110.829" gradientUnits="userSpaceOnUse">
<stop stop-color="#002068"/>
<stop offset="1" stop-color="#000035"/>
</linearGradient>
<linearGradient id="paint6_linear_0_86524" x1="385.729" y1="207.385" x2="424.5" y2="246.385" gradientUnits="userSpaceOnUse">
<stop stop-color="#002068"/>
<stop offset="1" stop-color="#000035"/>
</linearGradient>
<linearGradient id="paint7_linear_0_86524" x1="5.72934" y1="255.385" x2="44.5" y2="294.385" gradientUnits="userSpaceOnUse">
<stop stop-color="#002068"/>
<stop offset="1" stop-color="#000035"/>
</linearGradient>
<linearGradient id="paint8_linear_0_86524" x1="315.882" y1="88.3089" x2="380.5" y2="153.309" gradientUnits="userSpaceOnUse">
<stop stop-color="#002068"/>
<stop offset="1" stop-color="#000035"/>
</linearGradient>
<linearGradient id="paint9_linear_0_86524" x1="734.882" y1="169.309" x2="799.5" y2="234.309" gradientUnits="userSpaceOnUse">
<stop stop-color="#002068"/>
<stop offset="1" stop-color="#000035"/>
</linearGradient>
<linearGradient id="paint10_linear_0_86524" x1="363.094" y1="355.203" x2="463.5" y2="456.203" gradientUnits="userSpaceOnUse">
<stop stop-color="#002068"/>
<stop offset="1" stop-color="#000035"/>
</linearGradient>
<linearGradient id="paint11_linear_0_86524" x1="622.094" y1="456.203" x2="722.5" y2="557.203" gradientUnits="userSpaceOnUse">
<stop stop-color="#002068"/>
<stop offset="1" stop-color="#000035"/>
</linearGradient>
<linearGradient id="paint12_linear_0_86524" x1="992.094" y1="355.203" x2="1092.5" y2="456.203" gradientUnits="userSpaceOnUse">
<stop stop-color="#002068"/>
<stop offset="1" stop-color="#000035"/>
</linearGradient>
<linearGradient id="paint13_linear_0_86524" x1="112.882" y1="188.309" x2="177.5" y2="253.309" gradientUnits="userSpaceOnUse">
<stop stop-color="#002068"/>
<stop offset="1" stop-color="#000035"/>
</linearGradient>
<linearGradient id="paint14_linear_0_86524" x1="-45.3531" y1="360.677" x2="64" y2="470.677" gradientUnits="userSpaceOnUse">
<stop stop-color="#002068"/>
<stop offset="1" stop-color="#000035"/>
</linearGradient>
</defs>
</svg>
