<svg width="390" height="659" viewBox="0 0 390 659" fill="none" xmlns="http://www.w3.org/2000/svg">
<rect width="390" height="659" rx="20" fill="url(#paint0_linear_0_9034)"/>
<mask id="mask0_0_9034" style="mask-type:alpha" maskUnits="userSpaceOnUse" x="0" y="0" width="390" height="659">
<rect width="390" height="659" rx="20" fill="white"/>
</mask>
<g mask="url(#mask0_0_9034)">
<g opacity="0.309892">
<g filter="url(#filter0_f_0_9034)">
<path d="M13 79C13 79 188.521 -28.7568 460 143.743C731.479 316.243 1128 66 1128 66" stroke="white"/>
</g>
<g filter="url(#filter1_f_0_9034)">
<path d="M13 93.1399C13 93.1399 197.502 -34.5 468.981 138C740.46 310.5 1128 87 1128 87" stroke="white"/>
</g>
<g filter="url(#filter2_f_0_9034)">
<path d="M13 108.14C13 108.14 205.521 -42.5 477 130C748.479 302.5 1128 108.14 1128 108.14" stroke="white"/>
</g>
<g filter="url(#filter3_f_0_9034)">
<path d="M13 123.14C13 123.14 205.521 -52.5 477 120C748.479 292.5 1128 138 1128 138" stroke="white"/>
</g>
<g filter="url(#filter4_f_0_9034)">
<path d="M13 141.14C13 141.14 198.821 -62 488.172 115.5C777.524 293 1128 164 1128 164" stroke="white"/>
</g>
</g>
<circle opacity="0.953246" cx="42" cy="18" r="15" fill="url(#paint1_linear_0_9034)"/>
<g opacity="0.309892">
<g filter="url(#filter5_f_0_9034)">
<path d="M-24 380.466C-24 380.466 157.345 488.489 437.833 315.563C718.321 142.636 1128 393.498 1128 393.498" stroke="white"/>
</g>
<g filter="url(#filter6_f_0_9034)">
<path d="M-24 365.807C-24 365.807 166.624 493.239 447.112 321.02C727.6 148.8 1128 371.937 1128 371.937" stroke="white"/>
</g>
<g filter="url(#filter7_f_0_9034)">
<path d="M-24 350.855C-24 350.855 174.909 501.325 455.397 329.019C735.885 156.714 1128 350.855 1128 350.855" stroke="white"/>
</g>
<g filter="url(#filter8_f_0_9034)">
<path d="M-24 335.624C-24 335.624 174.909 510.796 455.397 338.755C735.885 166.715 1128 320.803 1128 320.803" stroke="white"/>
</g>
<g filter="url(#filter9_f_0_9034)">
<path d="M-24 318.334C-24 318.334 167.987 521.95 466.941 344.034C765.894 166.119 1128 295.421 1128 295.421" stroke="white"/>
</g>
</g>
<g opacity="0.309892">
<g filter="url(#filter10_f_0_9034)">
<path d="M1135 -8.92426C1135 -8.92426 958.377 -105.352 685.194 49.012C412.01 203.376 13 -20.5575 13 -20.5575" stroke="white"/>
</g>
<g filter="url(#filter11_f_0_9034)">
<path d="M1135 4.2753C1135 4.2753 949.34 -109.242 676.156 44.1719C402.973 197.586 13 -1.18525 13 -1.18525" stroke="white"/>
</g>
<g filter="url(#filter12_f_0_9034)">
<path d="M1135 17.4416C1135 17.4416 941.271 -116.503 668.087 36.8789C394.903 190.261 13 17.4416 13 17.4416" stroke="white"/>
</g>
<g filter="url(#filter13_f_0_9034)">
<path d="M1135 30.8355C1135 30.8355 941.271 -125.426 668.087 28.042C394.903 181.51 13 44.0561 13 44.0561" stroke="white"/>
</g>
<g filter="url(#filter14_f_0_9034)">
<path d="M1135 46.9811C1135 46.9811 948.013 -134.74 656.844 24.0446C365.676 182.83 13 67.4309 13 67.4309" stroke="white"/>
</g>
</g>
<circle opacity="0.953246" cx="29.5" cy="202.5" r="19.5" fill="url(#paint2_linear_0_9034)"/>
<circle opacity="0.953246" cx="365.5" cy="35.5" r="32.5" fill="url(#paint3_linear_0_9034)"/>
<circle opacity="0.953246" cx="162.5" cy="135.5" r="32.5" fill="url(#paint4_linear_0_9034)"/>
<circle opacity="0.953246" cx="49" cy="308" r="55" fill="url(#paint5_linear_0_9034)"/>
</g>
<defs>
<filter id="filter0_f_0_9034" x="10.0224" y="42.5387" width="1120.96" height="165.079" filterUnits="userSpaceOnUse" color-interpolation-filters="sRGB">
<feFlood flood-opacity="0" result="BackgroundImageFix"/>
<feBlend mode="normal" in="SourceGraphic" in2="BackgroundImageFix" result="shape"/>
<feGaussianBlur stdDeviation="1.35914" result="effect1_foregroundBlur_0_9034"/>
</filter>
<filter id="filter1_f_0_9034" x="9.99949" y="44.4669" width="1120.96" height="162.113" filterUnits="userSpaceOnUse" color-interpolation-filters="sRGB">
<feFlood flood-opacity="0" result="BackgroundImageFix"/>
<feBlend mode="normal" in="SourceGraphic" in2="BackgroundImageFix" result="shape"/>
<feGaussianBlur stdDeviation="1.35914" result="effect1_foregroundBlur_0_9034"/>
</filter>
<filter id="filter2_f_0_9034" x="9.97605" y="44.0063" width="1120.97" height="160.595" filterUnits="userSpaceOnUse" color-interpolation-filters="sRGB">
<feFlood flood-opacity="0" result="BackgroundImageFix"/>
<feBlend mode="normal" in="SourceGraphic" in2="BackgroundImageFix" result="shape"/>
<feGaussianBlur stdDeviation="1.35914" result="effect1_foregroundBlur_0_9034"/>
</filter>
<filter id="filter3_f_0_9034" x="9.94725" y="40.9208" width="1120.96" height="163.926" filterUnits="userSpaceOnUse" color-interpolation-filters="sRGB">
<feFlood flood-opacity="0" result="BackgroundImageFix"/>
<feBlend mode="normal" in="SourceGraphic" in2="BackgroundImageFix" result="shape"/>
<feGaussianBlur stdDeviation="1.35914" result="effect1_foregroundBlur_0_9034"/>
</filter>
<filter id="filter4_f_0_9034" x="9.91502" y="39.5324" width="1120.97" height="172.96" filterUnits="userSpaceOnUse" color-interpolation-filters="sRGB">
<feFlood flood-opacity="0" result="BackgroundImageFix"/>
<feBlend mode="normal" in="SourceGraphic" in2="BackgroundImageFix" result="shape"/>
<feGaussianBlur stdDeviation="1.35914" result="effect1_foregroundBlur_0_9034"/>
</filter>
<filter id="filter5_f_0_9034" x="-26.9717" y="251.538" width="1157.95" height="165.471" filterUnits="userSpaceOnUse" color-interpolation-filters="sRGB">
<feFlood flood-opacity="0" result="BackgroundImageFix"/>
<feBlend mode="normal" in="SourceGraphic" in2="BackgroundImageFix" result="shape"/>
<feGaussianBlur stdDeviation="1.35914" result="effect1_foregroundBlur_0_9034"/>
</filter>
<filter id="filter6_f_0_9034" x="-26.9937" y="252.546" width="1157.95" height="161.86" filterUnits="userSpaceOnUse" color-interpolation-filters="sRGB">
<feFlood flood-opacity="0" result="BackgroundImageFix"/>
<feBlend mode="normal" in="SourceGraphic" in2="BackgroundImageFix" result="shape"/>
<feGaussianBlur stdDeviation="1.35914" result="effect1_foregroundBlur_0_9034"/>
</filter>
<filter id="filter7_f_0_9034" x="-27.0176" y="254.499" width="1157.95" height="160.421" filterUnits="userSpaceOnUse" color-interpolation-filters="sRGB">
<feFlood flood-opacity="0" result="BackgroundImageFix"/>
<feBlend mode="normal" in="SourceGraphic" in2="BackgroundImageFix" result="shape"/>
<feGaussianBlur stdDeviation="1.35914" result="effect1_foregroundBlur_0_9034"/>
</filter>
<filter id="filter8_f_0_9034" x="-27.0464" y="254.126" width="1157.94" height="163.507" filterUnits="userSpaceOnUse" color-interpolation-filters="sRGB">
<feFlood flood-opacity="0" result="BackgroundImageFix"/>
<feBlend mode="normal" in="SourceGraphic" in2="BackgroundImageFix" result="shape"/>
<feGaussianBlur stdDeviation="1.35914" result="effect1_foregroundBlur_0_9034"/>
</filter>
<filter id="filter9_f_0_9034" x="-27.0796" y="246.822" width="1157.96" height="173.35" filterUnits="userSpaceOnUse" color-interpolation-filters="sRGB">
<feFlood flood-opacity="0" result="BackgroundImageFix"/>
<feBlend mode="normal" in="SourceGraphic" in2="BackgroundImageFix" result="shape"/>
<feGaussianBlur stdDeviation="1.35914" result="effect1_foregroundBlur_0_9034"/>
</filter>
<filter id="filter10_f_0_9034" x="10.041" y="-41.8905" width="1127.91" height="148.4" filterUnits="userSpaceOnUse" color-interpolation-filters="sRGB">
<feFlood flood-opacity="0" result="BackgroundImageFix"/>
<feBlend mode="normal" in="SourceGraphic" in2="BackgroundImageFix" result="shape"/>
<feGaussianBlur stdDeviation="1.35914" result="effect1_foregroundBlur_0_9034"/>
</filter>
<filter id="filter11_f_0_9034" x="10.0586" y="-39.3684" width="1127.92" height="144.888" filterUnits="userSpaceOnUse" color-interpolation-filters="sRGB">
<feFlood flood-opacity="0" result="BackgroundImageFix"/>
<feBlend mode="normal" in="SourceGraphic" in2="BackgroundImageFix" result="shape"/>
<feGaussianBlur stdDeviation="1.35914" result="effect1_foregroundBlur_0_9034"/>
</filter>
<filter id="filter12_f_0_9034" x="10.0796" y="-39.9408" width="1127.92" height="143.509" filterUnits="userSpaceOnUse" color-interpolation-filters="sRGB">
<feFlood flood-opacity="0" result="BackgroundImageFix"/>
<feBlend mode="normal" in="SourceGraphic" in2="BackgroundImageFix" result="shape"/>
<feGaussianBlur stdDeviation="1.35914" result="effect1_foregroundBlur_0_9034"/>
</filter>
<filter id="filter13_f_0_9034" x="10.1162" y="-42.6675" width="1127.91" height="146.55" filterUnits="userSpaceOnUse" color-interpolation-filters="sRGB">
<feFlood flood-opacity="0" result="BackgroundImageFix"/>
<feBlend mode="normal" in="SourceGraphic" in2="BackgroundImageFix" result="shape"/>
<feGaussianBlur stdDeviation="1.35914" result="effect1_foregroundBlur_0_9034"/>
</filter>
<filter id="filter14_f_0_9034" x="10.1299" y="-44.2525" width="1127.93" height="155.403" filterUnits="userSpaceOnUse" color-interpolation-filters="sRGB">
<feFlood flood-opacity="0" result="BackgroundImageFix"/>
<feBlend mode="normal" in="SourceGraphic" in2="BackgroundImageFix" result="shape"/>
<feGaussianBlur stdDeviation="1.35914" result="effect1_foregroundBlur_0_9034"/>
</filter>
<linearGradient id="paint0_linear_0_9034" x1="-192.707" y1="327.562" x2="383.209" y2="670.408" gradientUnits="userSpaceOnUse">
<stop stop-color="#00B2FD"/>
<stop offset="0.129769" stop-color="#0074F0"/>
<stop offset="1" stop-color="#000035"/>
</linearGradient>
<linearGradient id="paint1_linear_0_9034" x1="12.1764" y1="17.9118" x2="42" y2="47.9118" gradientUnits="userSpaceOnUse">
<stop stop-color="#00B2FD"/>
<stop offset="0.129769" stop-color="#0074F0"/>
<stop offset="1" stop-color="#000035"/>
</linearGradient>
<linearGradient id="paint2_linear_0_9034" x1="-9.27066" y1="202.385" x2="29.5" y2="241.385" gradientUnits="userSpaceOnUse">
<stop stop-color="#00B2FD"/>
<stop offset="0.129769" stop-color="#0074F0"/>
<stop offset="1" stop-color="#000035"/>
</linearGradient>
<linearGradient id="paint3_linear_0_9034" x1="300.882" y1="35.3089" x2="365.5" y2="100.309" gradientUnits="userSpaceOnUse">
<stop stop-color="#00B2FD"/>
<stop offset="0.129769" stop-color="#0074F0"/>
<stop offset="1" stop-color="#000035"/>
</linearGradient>
<linearGradient id="paint4_linear_0_9034" x1="97.8822" y1="135.309" x2="162.5" y2="200.309" gradientUnits="userSpaceOnUse">
<stop stop-color="#00B2FD"/>
<stop offset="0.129769" stop-color="#0074F0"/>
<stop offset="1" stop-color="#000035"/>
</linearGradient>
<linearGradient id="paint5_linear_0_9034" x1="-60.3531" y1="307.677" x2="49" y2="417.677" gradientUnits="userSpaceOnUse">
<stop stop-color="#00B2FD"/>
<stop offset="0.129769" stop-color="#0074F0"/>
<stop offset="1" stop-color="#000035"/>
</linearGradient>
</defs>
</svg>
