<svg width="15" height="15" viewBox="0 0 15 15" fill="none" xmlns="http://www.w3.org/2000/svg">
<path fill-rule="evenodd" clip-rule="evenodd" d="M12.0662 0.878906V1.75781H15V4.6142C15 6.3104 13.62 7.69037 11.9238 7.69037H11.3602C11.1759 7.98044 10.9573 8.25185 10.7063 8.49943C10.2743 8.92547 9.77314 9.25485 9.22852 9.47745V11.7562H9.47812C10.2051 11.7562 10.7965 12.3476 10.7965 13.0746V14.1211H11.6268V15H3.37324V14.1211H4.20352V13.0746C4.20352 12.3476 4.79493 11.7562 5.52187 11.7562H5.77148V9.47183C4.89519 9.1096 4.15359 8.48147 3.64855 7.69037H3.07617C1.37997 7.69037 0 6.3104 0 4.6142V1.75781H2.93376V0.878906H2.1653V0H12.8347V0.878906H12.0662ZM0.878906 4.6142C0.878906 5.82577 1.8646 6.81146 3.07617 6.81146H3.21223C3.03255 6.32373 2.93411 5.79809 2.93376 5.25126V2.63672H0.878906V4.6142ZM9.91758 13.0746V14.1211H5.08242V13.0746C5.08242 12.8322 5.27956 12.6351 5.52187 12.6351H9.47812C9.72044 12.6351 9.91758 12.8322 9.91758 13.0746ZM6.65039 11.7562H8.34961V9.73585C8.07249 9.78768 7.78866 9.81445 7.50064 9.81445C7.47888 9.81445 7.45726 9.81431 7.43543 9.81398C7.16772 9.81026 6.90542 9.78302 6.65039 9.73441V11.7562ZM10.0891 7.87368C9.38106 8.57197 8.44286 8.9487 7.44762 8.93517C5.44462 8.90745 3.81398 7.25461 3.8127 5.25097V0.878906H11.1874V5.24821C11.1873 6.24278 10.7973 7.17519 10.0891 7.87368ZM11.9238 6.81146C13.1354 6.81146 14.1211 5.82577 14.1211 4.6142V2.63672H12.0662V5.24821C12.0662 5.79026 11.9726 6.31737 11.793 6.81146H11.9238Z" fill="#2B3134"/>
</svg>
