<svg width="19" height="13" viewBox="0 0 19 13" fill="none" xmlns="http://www.w3.org/2000/svg">
<path d="M12.3107 7.26733L10.7194 8.82105C10.0741 9.45119 8.9387 9.46477 8.27946 8.82105L6.68809 7.26733L0.972656 12.8471C1.1854 12.9428 1.41997 12.9999 1.66935 12.9999H17.3295C17.5789 12.9999 17.8134 12.9429 18.026 12.8471L12.3107 7.26733Z" fill="white"/>
<path d="M17.3294 0H1.66927C1.4199 0 1.18533 0.0571278 0.972656 0.152858L7.08001 6.11563C7.08041 6.11603 7.0809 6.1161 7.0813 6.1165C7.08171 6.1169 7.08179 6.11744 7.08179 6.11744L9.06762 8.05624C9.27855 8.2615 9.72023 8.2615 9.93116 8.05624L11.9166 6.11776C11.9166 6.11776 11.9171 6.1169 11.9175 6.1165C11.9175 6.1165 11.9184 6.11603 11.9188 6.11563L18.026 0.152822C17.8133 0.0570556 17.5788 0 17.3294 0Z" fill="white"/>
<path d="M0.177605 0.9104C0.0675391 1.12699 0 1.36742 0 1.62497V11.375C0 11.6325 0.0674648 11.8729 0.177568 12.0895L5.90291 6.50015L0.177605 0.9104Z" fill="white"/>
<path d="M18.8229 0.9104L13.0977 6.50022L18.8229 12.0897C18.933 11.8731 19.0005 11.6327 19.0005 11.375V1.62504C19.0005 1.36742 18.933 1.12699 18.8229 0.9104Z" fill="white"/>
</svg>
