<svg width="19" height="19" viewBox="0 0 19 19" fill="none" xmlns="http://www.w3.org/2000/svg">
<path d="M15.6211 15.1035C15.6211 14.9065 15.6211 6.04764 15.6211 6.16016C15.6211 2.77845 12.8798 0 9.49805 0C6.11634 0 3.375 2.77845 3.375 6.16016V13.9902C3.375 14.2976 3.62423 14.5469 3.93164 14.5469H5.04492C5.35234 14.5469 5.60156 14.2976 5.60156 13.9902V7.27344C5.60156 6.96595 5.35234 6.7168 5.04492 6.7168H4.48828V6.16016C4.48828 3.39332 6.73121 1.11328 9.49805 1.11328C12.2649 1.11328 14.5078 3.39332 14.5078 6.16016V6.7168H13.9512C13.6435 6.7168 13.3945 6.96576 13.3945 7.27344V13.9902C13.3945 14.2979 13.6435 14.5469 13.9512 14.5469H14.5078V15.1035C14.5078 16.0243 13.7587 16.7734 12.8379 16.7734H12.1787C11.9482 16.1269 11.3361 15.6602 10.6113 15.6602H9.49805C8.57721 15.6602 7.82812 16.4092 7.82812 17.3301C7.82812 18.2509 8.57721 19 9.49805 19H10.6113C11.3361 19 11.9482 18.5332 12.1787 17.8867H12.8379C14.3725 17.8867 15.6211 16.6381 15.6211 15.1035Z" fill="white"/>
<path d="M16.9662 7.65381C16.8834 7.65348 16.8135 7.67452 16.7344 7.68276V13.5813C16.8103 13.5891 16.8773 13.6096 16.9567 13.6096C18.4696 13.6096 18.998 12.1358 18.998 10.6132C18.998 9.09659 18.4733 7.66001 16.9662 7.65381Z" fill="white"/>
<path d="M2.26367 13.5815V7.68242C2.18459 7.67418 2.1146 7.65299 2.03178 7.65332C0.525988 7.65926 0 9.09565 0 10.6134C0 12.1402 0.530813 13.6098 2.04135 13.6098C2.12076 13.6098 2.18771 13.5893 2.26367 13.5815Z" fill="white"/>
</svg>
