<svg width="59" height="59" viewBox="0 0 59 59" fill="none" xmlns="http://www.w3.org/2000/svg">
<circle cx="29.5" cy="29.5" r="29.5" fill="url(#paint0_linear_0_49540)"/>
<g filter="url(#filter0_d_0_49540)">
<path fill-rule="evenodd" clip-rule="evenodd" d="M28.6856 44.5102C29.0493 44.8261 29.516 45 30 45C30.4838 45 30.9507 44.8261 31.3141 44.5107C32.6908 43.3167 34.0171 42.1956 35.1875 41.2067L35.1879 41.2063C38.6126 38.3117 41.5701 35.812 43.6281 33.3491C45.9287 30.5961 47 27.9856 47 25.1339C47 22.3631 46.0423 19.807 44.303 17.9359C42.543 16.0427 40.1277 15 37.5021 15C35.5395 15 33.7421 15.6154 32.16 16.8289C31.3613 17.4414 30.6379 18.1911 30 19.0655C29.3624 18.1911 28.6387 17.4414 27.8402 16.8289C26.2582 15.6154 24.4608 15 22.4982 15C19.8723 15 17.4573 16.0427 15.6972 17.9359C13.958 19.807 13 22.3631 13 25.1339C13 27.9856 14.0716 30.5961 16.3722 33.3493C18.4303 35.8121 21.3882 38.3122 24.8136 41.2072L24.8195 41.2123C25.9879 42.1997 27.3121 43.319 28.6856 44.5102ZM17.1613 19.2747C18.54 17.7918 20.4352 16.9753 22.4982 16.9753C24.0092 16.9753 25.3967 17.4517 26.6218 18.3912C27.7139 19.2289 28.4745 20.2878 28.9201 21.0287C29.1494 21.4097 29.5531 21.6371 30 21.6371C30.4469 21.6371 30.8506 21.4097 31.0799 21.0287C31.5258 20.2878 32.2863 19.2289 33.3782 18.3912C34.6033 17.4517 35.9908 16.9753 37.5021 16.9753C39.5648 16.9753 41.4603 17.7918 42.8387 19.2747C44.2379 20.7799 45.0086 22.8607 45.0086 25.1339C45.0086 27.5323 44.1098 29.6774 42.0948 32.089C40.1487 34.4179 37.2552 36.8637 33.9047 39.6958L33.8957 39.7035C32.7206 40.6962 31.3891 41.8218 29.9971 43.024C28.6135 41.8241 27.2841 40.7004 26.1113 39.7091L26.1051 39.704L26.1031 39.7023C22.7494 36.8677 19.8529 34.4196 17.9055 32.089C15.8902 29.6774 14.9914 27.5323 14.9914 25.1339C14.9914 22.8607 15.7621 20.7799 17.1613 19.2747Z" fill="white"/>
</g>
<defs>
<filter id="filter0_d_0_49540" x="9" y="13" width="42" height="38" filterUnits="userSpaceOnUse" color-interpolation-filters="sRGB">
<feFlood flood-opacity="0" result="BackgroundImageFix"/>
<feColorMatrix in="SourceAlpha" type="matrix" values="0 0 0 0 0 0 0 0 0 0 0 0 0 0 0 0 0 0 127 0" result="hardAlpha"/>
<feOffset dy="2"/>
<feGaussianBlur stdDeviation="2"/>
<feColorMatrix type="matrix" values="0 0 0 0 0 0 0 0 0 0 0 0 0 0 0 0 0 0 0.5 0"/>
<feBlend mode="normal" in2="BackgroundImageFix" result="effect1_dropShadow_0_49540"/>
<feBlend mode="normal" in="SourceGraphic" in2="effect1_dropShadow_0_49540" result="shape"/>
</filter>
<linearGradient id="paint0_linear_0_49540" x1="-29.153" y1="29.3265" x2="29.5" y2="88.3265" gradientUnits="userSpaceOnUse">
<stop stop-color="#00E476"/>
<stop offset="0.476746" stop-color="#00B2FD"/>
<stop offset="1" stop-color="#0074F0"/>
</linearGradient>
</defs>
</svg>
