<svg  viewBox="0 0 17 15" fill="url('#myGradient')" xmlns="http://www.w3.org/2000/svg">
<path d="M15.6514 1.46794C14.7714 0.521344 13.5639 0 12.251 0C11.2697 0 10.371 0.307687 9.57988 0.914443C9.18066 1.22071 8.81893 1.59542 8.5 2.03277C8.1812 1.59555 7.81934 1.22071 7.41999 0.914443C6.62895 0.307687 5.73026 0 4.74895 0C3.43613 0 2.2285 0.521344 1.34849 1.46794C0.478981 2.40348 0 3.68157 0 5.06693C0 6.49281 0.535789 7.79804 1.6861 9.17466C2.71513 10.406 4.1941 11.6561 5.90678 13.1036C6.4916 13.5979 7.1545 14.1582 7.84281 14.7551C8.02465 14.913 8.25798 15 8.5 15C8.74189 15 8.97535 14.913 9.15693 14.7553C9.84525 14.1584 10.5085 13.5978 11.0936 13.1032C12.806 11.656 14.285 10.406 15.314 9.17453C16.4643 7.79804 17 6.49281 17 5.0668C17 3.68157 16.521 2.40348 15.6514 1.46794Z" />
<defs>
<linearGradient id="myGradient" x1="-6.91767" y1="10.4383" x2="12.3968" y2="23.3907" gradientUnits="userSpaceOnUse">
 <stop offset="0.29%" stop-color="#00E476" />
   <stop offset="100%" stop-color="#0074F0" />
</linearGradient>
</defs>
</svg>
