<svg width="23" height="23" viewBox="0 0 23 23" fill="none" xmlns="http://www.w3.org/2000/svg">
<g opacity="0.503743">
<path fill-rule="evenodd" clip-rule="evenodd" d="M0 10.1287C0 4.54389 4.54389 0 10.1287 0C15.7138 0 20.2574 4.54389 20.2574 10.1287C20.2574 15.7139 15.7138 20.2574 10.1287 20.2574C4.54389 20.2574 0 15.7139 0 10.1287ZM1.86992 10.1288C1.86992 14.6826 5.57485 18.3876 10.1287 18.3876C14.6826 18.3876 18.3875 14.6826 18.3875 10.1287C18.3875 5.57485 14.6826 1.86992 10.1287 1.86992C5.57485 1.86992 1.86992 5.57489 1.86992 10.1288Z" fill="#2B3134"/>
<path d="M22.726 21.404L17.3655 16.0436C17.0003 15.6783 16.4087 15.6783 16.0435 16.0436C15.6782 16.4085 15.6782 17.0007 16.0435 17.3656L21.4039 22.7261C21.5865 22.9087 21.8256 23 22.0649 23C22.304 23 22.5433 22.9087 22.726 22.7261C23.0912 22.3611 23.0912 21.769 22.726 21.404Z" fill="#2B3134"/>
</g>
</svg>
