<svg width="16" height="23" viewBox="0 0 16 23" fill="none" xmlns="http://www.w3.org/2000/svg">
<path d="M5.43516 23C5.34142 23 5.24655 22.9821 5.15592 22.9448C4.8387 22.8142 4.66712 22.4836 4.75041 22.1636L7.13742 12.9916H0.705901C0.473101 12.9916 0.255266 12.882 0.123643 12.6987C-0.00798026 12.5154 -0.0364508 12.2819 0.0475491 12.0746L4.76575 0.430754C4.87093 0.171152 5.13248 0 5.42406 0H11.9163C12.1549 0 12.3773 0.115 12.5076 0.305737C12.6379 0.496475 12.6585 0.73712 12.5623 0.945512L9.76848 6.99916H15.2941C15.5523 6.99916 15.7898 7.1337 15.9136 7.35C16.0374 7.56625 16.0276 7.82976 15.888 8.03712L6.02942 22.6902C5.89611 22.8884 5.66938 23 5.43516 23Z" fill="#000035"/>
</svg>
