<svg width="15" height="16" viewBox="0 0 15 16" fill="none" xmlns="http://www.w3.org/2000/svg">
<path d="M4.70356 2.58921V11.1061C4.20398 10.664 3.54567 10.3949 2.82507 10.3949C1.26733 10.3949 0 11.6521 0 13.1974C0 14.7428 1.26733 16 2.82507 16C4.38089 16 5.6469 14.7459 5.65011 13.2033H5.65018V6.35858L14.0534 4.24543V8.84526C13.5538 8.40317 12.8955 8.13402 12.1749 8.13402C10.6172 8.13402 9.34982 9.39123 9.34982 10.9365C9.34982 12.4819 10.6172 13.7391 12.1749 13.7391C13.7327 13.7391 15 12.4819 15 10.9365V0L4.70356 2.58921Z" fill="#2B3134"/>
</svg>
