<svg width="20" height="22" viewBox="0 0 20 22" fill="none" xmlns="http://www.w3.org/2000/svg">
<path d="M10.0002 2.53846C9.54807 2.53846 9.18115 2.15938 9.18115 1.69231V0.846154C9.18115 0.379077 9.54807 0 10.0002 0C10.4523 0 10.8192 0.379077 10.8192 0.846154V1.69231C10.8192 2.15938 10.4523 2.53846 10.0002 2.53846Z" fill="white"/>
<path d="M17.1476 9.92326C16.6955 9.92326 16.3286 9.54419 16.3286 9.07711C16.3286 5.63834 13.6259 2.70811 10.304 2.54565C6.97797 2.387 4.01275 5.03334 3.69948 8.45223C3.68064 8.65657 3.67122 8.86642 3.67122 9.07711C3.67122 9.54419 3.30431 9.92326 2.85221 9.92326C2.40012 9.92326 2.0332 9.54419 2.0332 9.07711C2.0332 8.81311 2.04508 8.54911 2.06883 8.29273C2.46318 3.9875 6.19664 0.651957 10.3814 0.855457C14.564 1.0598 17.9666 4.74819 17.9666 9.07711C17.9666 9.54461 17.5997 9.92326 17.1476 9.92326Z" fill="white"/>
<path d="M18.6828 15.6945C18.4809 15.6945 18.2782 15.6175 18.1197 15.463C16.9813 14.3495 16.3281 12.7816 16.3281 11.1616C16.3281 10.6945 16.695 10.3155 17.1471 10.3155C17.5992 10.3155 17.9661 10.6945 17.9661 11.1616C17.9661 12.3187 18.4326 13.439 19.2458 14.234C19.5743 14.5551 19.5886 15.0907 19.2778 15.4305C19.1169 15.6056 18.8998 15.6945 18.6828 15.6945Z" fill="white"/>
<path d="M1.31663 15.6945C1.09918 15.6945 0.882551 15.606 0.721616 15.43C0.410802 15.0907 0.425134 14.5551 0.753557 14.234C1.56683 13.439 2.03326 12.3192 2.03326 11.1616C2.03326 10.6945 2.40017 10.3155 2.85227 10.3155C3.30436 10.3155 3.67128 10.6945 3.67128 11.1616C3.67128 12.7824 3.01812 14.3503 1.87969 15.463C1.72081 15.6175 1.51851 15.6945 1.31663 15.6945Z" fill="white"/>
<path d="M10.0003 22C7.7808 22 5.90527 20.0623 5.90527 17.7692C5.90527 17.3022 6.27219 16.9231 6.72428 16.9231C7.17638 16.9231 7.54329 17.3022 7.54329 17.7692C7.54329 19.1451 8.66861 20.3077 10.0003 20.3077C11.332 20.3077 12.4573 19.1451 12.4573 17.7692C12.4573 17.3022 12.8243 16.9231 13.2764 16.9231C13.7284 16.9231 14.0954 17.3022 14.0954 17.7692C14.0954 20.0623 12.2198 22 10.0003 22Z" fill="white"/>
<path d="M2.44231 18.6154C1.44435 18.6154 0.556543 17.985 0.180208 17.0094C-0.196536 16.0325 0.0282822 14.9431 0.753105 14.234C1.08153 13.9125 1.59955 13.9273 1.91118 14.2666C2.222 14.6059 2.20807 15.1415 1.87965 15.463C1.52093 15.8142 1.65279 16.2563 1.70193 16.3832C1.75066 16.5093 1.94845 16.9231 2.44231 16.9231C2.8944 16.9231 3.26132 17.3022 3.26132 17.7692C3.26132 18.2363 2.89481 18.6154 2.44231 18.6154Z" fill="white"/>
<path d="M17.5573 18.6154C17.1052 18.6154 16.7383 18.2363 16.7383 17.7692C16.7383 17.3022 17.1052 16.9231 17.5573 16.9231C18.0516 16.9231 18.2498 16.5076 18.2989 16.3803C18.3476 16.2538 18.4791 15.8134 18.1204 15.4626C17.7919 15.1411 17.7776 14.6059 18.0884 14.2662C18.3996 13.9269 18.9177 13.912 19.2465 14.2332C19.9713 14.9422 20.1965 16.0308 19.8206 17.006C19.4439 17.9837 18.5553 18.6154 17.5573 18.6154Z" fill="white"/>
<path d="M2.85172 12.0073C2.39963 12.0073 2.03271 11.6283 2.03271 11.1612V9.07711C2.03271 8.61003 2.39963 8.23096 2.85172 8.23096C3.30382 8.23096 3.67073 8.61003 3.67073 9.07711V11.1612C3.67073 11.6283 3.30423 12.0073 2.85172 12.0073Z" fill="white"/>
<path d="M17.1476 12.0073C16.6955 12.0073 16.3286 11.6283 16.3286 11.1612V9.07711C16.3286 8.61003 16.6955 8.23096 17.1476 8.23096C17.5997 8.23096 17.9666 8.61003 17.9666 9.07711V11.1612C17.9666 11.6283 17.5997 12.0073 17.1476 12.0073Z" fill="white"/>
<path d="M17.5574 18.6154H2.44254C1.99045 18.6154 1.62354 18.2363 1.62354 17.7692C1.62354 17.3022 1.99045 16.9231 2.44254 16.9231H17.5569C18.009 16.9231 18.376 17.3022 18.376 17.7692C18.376 18.2363 18.0094 18.6154 17.5574 18.6154Z" fill="white"/>
</svg>
