<svg width="18" height="16" viewBox="0 0 18 16" fill="none" xmlns="http://www.w3.org/2000/svg">
<g opacity="0.403471">
<path d="M17.9989 0.504884C17.9774 0.154168 17.6296 -0.100078 17.2757 0.0384611C17.1858 0.0755319 18.0206 -0.522346 5.31907 8.72899C5.18013 8.83021 5.09766 8.99388 5.09766 9.1683V15.4606C5.09766 15.709 5.26412 15.9272 5.50305 15.9853C5.74025 16.043 5.98585 15.9268 6.09596 15.7033C6.29125 15.307 8.0188 11.8008 8.31109 11.2077L17.8554 0.90993C17.957 0.800264 18.0081 0.653527 17.9989 0.504884Z" fill="#2B3134"/>
<path d="M9.18317 11.8348L8.92432 12.3601L12.8694 15.3544C13.1616 15.5763 13.5817 15.4352 13.688 15.0787L17.2515 3.12952L9.18317 11.8348Z" fill="#2B3134"/>
<path d="M4.70731 7.85034L13.3031 1.58948L0.339261 6.65092C0.135318 6.73056 0.00042287 6.93048 9.92384e-07 7.15373C-0.000420885 7.37702 0.133701 7.57747 0.337362 7.6579L4.04436 9.12215C4.05856 8.61718 4.30361 8.14439 4.70731 7.85034Z" fill="#2B3134"/>
</g>
</svg>
