<svg width="16" height="23" viewBox="0 0 16 23" fill="none" xmlns="http://www.w3.org/2000/svg">
<path d="M5.59547 23C5.50759 23 5.41864 22.9821 5.33367 22.9448C5.03628 22.8142 4.87542 22.4836 4.95351 22.1636L7.19133 12.9916H1.16178C0.943533 12.9916 0.739312 12.882 0.615915 12.6987C0.492519 12.5154 0.465827 12.2819 0.544577 12.0746L4.96789 0.430754C5.0665 0.171152 5.3117 0 5.58506 0H11.6716C11.8952 0 12.1037 0.115 12.2259 0.305737C12.348 0.496475 12.3673 0.73712 12.2772 0.945512L9.65795 6.99916H14.8382C15.0803 6.99916 15.303 7.1337 15.419 7.35C15.535 7.56625 15.5259 7.82976 15.395 8.03712L6.15258 22.6902C6.0276 22.8884 5.81504 23 5.59547 23Z" fill="#2B3134"/>
</svg>
