<svg width="25" height="25" viewBox="0 0 25 25" fill="none" xmlns="http://www.w3.org/2000/svg">
<path d="M15.2535 12.5L24.6006 3.15183C24.8577 2.8945 24.9996 2.55118 25 2.1851C25 1.81882 24.8581 1.4751 24.6006 1.21817L23.7815 0.399213C23.524 0.141269 23.1807 0 22.8142 0C22.4484 0 22.1051 0.141269 21.8476 0.399213L12.5004 9.74677L3.15285 0.399213C2.89573 0.141269 2.55224 0 2.18598 0C1.82012 0 1.47663 0.141269 1.21951 0.399213L0.4 1.21817C-0.133333 1.75154 -0.133333 2.61907 0.4 3.15183L9.74736 12.5L0.4 21.8478C0.142683 22.1055 0.00101626 22.4488 0.00101626 22.8149C0.00101626 23.181 0.142683 23.5243 0.4 23.7818L1.21931 24.6008C1.47642 24.8585 1.82012 25 2.18577 25C2.55203 25 2.89553 24.8585 3.15264 24.6008L12.5002 15.253L21.8474 24.6008C22.1049 24.8585 22.4482 25 22.814 25H22.8144C23.1805 25 23.5238 24.8585 23.7813 24.6008L24.6004 23.7818C24.8575 23.5245 24.9994 23.181 24.9994 22.8149C24.9994 22.4488 24.8575 22.1055 24.6004 21.848L15.2535 12.5Z" fill="white"/>
</svg>
