<svg  width="29" height="34" viewBox="0 0 30 35" fill="none" xmlns="http://www.w3.org/2000/svg">
<path fill-rule="evenodd" clip-rule="evenodd" d="M0.5 30.3563C0.5 32.5895 2.30423 34.3999 4.52985 34.3999C5.28759 34.399 6.02982 34.1844 6.67185 33.7806L27.4262 20.5935C28.7419 19.7672 29.5289 18.3087 29.4992 16.7515C29.4694 15.1943 28.6273 13.7671 27.281 12.992L6.55083 0.946331C5.95687 0.593727 5.28047 0.405197 4.59036 0.399902C2.33132 0.399902 0.5 2.23745 0.5 4.50419V30.3563ZM2.92033 4.50419C2.91974 3.60192 3.63123 2.86116 4.52985 2.82847H4.59036C4.85497 2.83581 5.11328 2.91106 5.34067 3.04705L26.1192 15.0928C26.7283 15.4451 27.1095 16.0912 27.1244 16.7965C27.1392 17.5018 26.7855 18.1635 26.1918 18.5413L5.34067 31.7163C5.09856 31.8738 4.81821 31.9619 4.52985 31.9713C3.64368 31.9647 2.92692 31.2455 2.92033 30.3563V4.50419Z" fill="white"/>
</svg>
