<svg width="41" height="41" viewBox="0 0 41 41" fill="none" xmlns="http://www.w3.org/2000/svg">
<path d="M40.7313 19.8504L34.65 13.8117C34.4764 13.6393 34.245 13.5447 33.9983 13.5447C33.7514 13.5447 33.5201 13.6394 33.3465 13.8117L32.7944 14.3601C32.621 14.5322 32.5254 14.762 32.5254 15.0071C32.5254 15.2521 32.621 15.4897 32.7944 15.6618L36.3421 19.1924H25.0709C24.5627 19.1924 24.1611 19.5875 24.1611 20.0922V20.8675C24.1611 21.3722 24.5627 21.8071 25.0709 21.8071H36.3824L32.7945 25.3574C32.6211 25.5298 32.5255 25.7534 32.5255 25.9985C32.5255 26.2433 32.6211 26.4702 32.7945 26.6425L33.3467 27.1891C33.5203 27.3615 33.7515 27.4554 33.9985 27.4554C34.2452 27.4554 34.4765 27.3602 34.6501 27.1879L40.7314 21.1493C40.9054 20.9764 41.0011 20.7455 41.0004 20.5002C41.001 20.254 40.9054 20.023 40.7313 19.8504Z" fill="white"/>
<path d="M0.268738 19.8504L6.35 13.8117C6.52359 13.6393 6.75496 13.5447 7.00166 13.5447C7.24863 13.5447 7.47986 13.6394 7.65346 13.8117L8.20559 14.3601C8.37905 14.5322 8.4746 14.762 8.4746 15.0071C8.4746 15.2521 8.37905 15.4897 8.20559 15.6618L4.65787 19.1924H15.9291C16.4373 19.1924 16.8389 19.5875 16.8389 20.0922V20.8675C16.8389 21.3722 16.4373 21.8071 15.9291 21.8071H4.61762L8.20545 25.3574C8.37891 25.5298 8.47447 25.7534 8.47447 25.9985C8.47447 26.2433 8.37891 26.4702 8.20545 26.6425L7.65332 27.1891C7.47972 27.3615 7.2485 27.4554 7.00152 27.4554C6.75482 27.4554 6.52345 27.3602 6.34986 27.1879L0.2686 21.1493C0.0945969 20.9764 -0.00110054 20.7455 -0.000415802 20.5002C-0.000963211 20.254 0.0945969 20.023 0.268738 19.8504Z" fill="white"/>
<path d="M19.8506 0.269104L13.8119 6.35036C13.6395 6.52396 13.5449 6.75532 13.5449 7.00202C13.5449 7.249 13.6397 7.48023 13.8119 7.65382L14.3603 8.20595C14.5324 8.37941 14.7623 8.47497 15.0074 8.47497C15.2524 8.47497 15.49 8.37941 15.6621 8.20595L19.1926 4.65823V15.9295C19.1926 16.4377 19.5877 16.8392 20.0925 16.8392H20.8677C21.3725 16.8392 21.8074 16.4377 21.8074 15.9295V4.61798L25.3576 8.20582C25.53 8.37927 25.7536 8.47483 25.9987 8.47483C26.2436 8.47483 26.4705 8.37927 26.6427 8.20582L27.1893 7.65368C27.3617 7.48009 27.4556 7.24886 27.4556 7.00189C27.4556 6.75519 27.3605 6.52382 27.1881 6.35023L21.1495 0.268967C20.9766 0.0949631 20.7458 -0.000734329 20.5004 -4.95911e-05C20.2542 -0.000597 20.0233 0.0949631 19.8506 0.269104Z" fill="white"/>
<path d="M19.8506 40.7309L13.8119 34.6496C13.6395 34.476 13.5449 34.2447 13.5449 33.998C13.5449 33.751 13.6397 33.5198 13.8119 33.3462L14.3603 32.794C14.5324 32.6206 14.7623 32.525 15.0074 32.525C15.2524 32.525 15.49 32.6206 15.6621 32.794L19.1926 36.3418V25.0705C19.1926 24.5623 19.5877 24.1608 20.0925 24.1608H20.8677C21.3725 24.1608 21.8074 24.5623 21.8074 25.0705V36.382L25.3576 32.7942C25.53 32.6207 25.7536 32.5252 25.9987 32.5252C26.2436 32.5252 26.4705 32.6207 26.6427 32.7942L27.1893 33.3463C27.3617 33.5199 27.4556 33.7511 27.4556 33.9981C27.4556 34.2448 27.3605 34.4762 27.1881 34.6498L21.1495 40.731C20.9766 40.905 20.7458 41.0007 20.5004 41C20.2542 41.0006 20.0233 40.905 19.8506 40.7309Z" fill="white"/>
</svg>
