<svg width="16" height="16" viewBox="0 0 16 16" fill="none" xmlns="http://www.w3.org/2000/svg">
<path d="M8.4637 0.296817C8.3803 0.115884 8.19926 0 7.99997 0C7.80076 0 7.61972 0.115884 7.53625 0.296817L5.45604 4.80825L0.470365 5.20283C0.270262 5.21867 0.0979986 5.35027 0.0301091 5.53917C-0.0377811 5.72807 0.0112972 5.93923 0.15554 6.07882L3.71201 9.52068L2.86936 14.034C2.83263 14.2307 2.91422 14.4307 3.07806 14.5457C3.2419 14.6606 3.45778 14.6693 3.63027 14.5678L8.25897 11.8444C8.50203 11.7014 8.58312 11.3884 8.44007 11.1453C8.2971 10.9023 7.98411 10.8211 7.74105 10.9642L4.07916 13.1187L4.76631 9.4383C4.79776 9.26986 4.74261 9.09685 4.61946 8.97763L1.67869 6.13167L5.8348 5.80274C6.01895 5.78817 6.18088 5.67527 6.25823 5.50751L7.99997 1.73012L9.74172 5.50751C9.81913 5.67527 9.98104 5.78817 10.1652 5.80274L14.247 6.12579L11.7898 8.29052C11.5782 8.47694 11.5577 8.79959 11.7442 9.0112C11.9306 9.22288 12.2533 9.24323 12.4649 9.05682L15.8269 6.09504C15.9807 5.95948 16.0386 5.74502 15.9738 5.55047C15.909 5.35591 15.734 5.21901 15.5296 5.20283L10.544 4.80825L8.4637 0.296817Z" fill="#2B3134"/>
<path d="M7.48828 14.4681C7.48828 13.6221 8.17417 12.9362 9.02019 12.9362C9.19925 12.9362 9.3711 12.9669 9.53083 13.0234V11.2996C9.53083 11.0754 9.67707 10.8774 9.89134 10.8115L13.9764 9.55458C14.1313 9.50692 14.2996 9.53558 14.4299 9.63185C14.5603 9.72812 14.6372 9.88057 14.6372 10.0426V13.7873C14.6372 14.6333 13.9514 15.3192 13.1053 15.3192C12.2593 15.3192 11.5734 14.6333 11.5734 13.7873C11.5734 12.9413 12.2593 12.2554 13.1053 12.2554C13.2843 12.2554 13.4562 12.2861 13.6159 12.3425V10.734L10.5521 11.6767V14.4681C10.5521 15.3142 9.86628 16.0001 9.02019 16.0001C8.17417 16.0001 7.48828 15.3142 7.48828 14.4681Z" fill="#2B3134"/>
</svg>
