<svg  viewBox="0 0 28 29" fill="none" xmlns="http://www.w3.org/2000/svg">
<path d="M5.94898 10.5717C8.32642 6.28762 13.2843 5.08707 17.5298 6.93166C21.8515 8.8102 25.1262 13.2807 25.9174 17.8792C26.0812 18.8373 24.6768 19.0182 24.443 18.1169C23.42 14.1796 20.915 10.5681 17.262 8.67641C15.6807 7.84591 13.8685 7.537 12.082 7.79347C9.73737 8.11875 8.20915 9.59535 6.58234 11.1563C6.19126 11.5322 5.73386 10.9645 5.94898 10.5717Z" fill="#0074F0"/>
<path d="M2.54359 14.2561C3.19803 12.1527 3.77783 9.76832 5.27625 8.0631C5.38099 7.93162 5.56948 7.90343 5.7045 7.99906C5.83953 8.09469 5.87353 8.28043 5.78175 8.42109C4.77659 10.1686 4.20811 12.0088 3.70089 13.9246C4.99056 13.9026 6.31296 13.6719 7.58 13.8481C7.81437 13.8795 7.98857 14.0756 7.99185 14.3117C7.99512 14.5477 7.8265 14.7545 7.59321 14.8006C6.06542 15.0647 4.51184 15.1158 2.97744 14.9521C2.81847 14.933 2.67768 14.8438 2.59369 14.7091C2.5097 14.5743 2.49132 14.4081 2.54359 14.2561Z" fill="#0074F0"/>
</svg>
