<svg width="23" height="23" viewBox="0 0 23 23" fill="none" xmlns="http://www.w3.org/2000/svg">
<path fill-rule="evenodd" clip-rule="evenodd" d="M18.4278 12.8801C19.4889 13.3516 20.4133 13.9303 21.1756 14.6001C22.3349 15.6188 23 17.0921 23 18.6426V20.3047C23 21.791 21.791 23 20.3047 23H2.69531C1.20903 23 0 21.791 0 20.3047V18.6426C0 17.0921 0.665054 15.6188 1.82442 14.6001C2.76305 13.7752 4.56062 12.5525 7.45036 11.9173C5.87108 10.7007 4.85156 8.79153 4.85156 6.64844C4.85156 2.98257 7.83413 0 11.5 0C15.1659 0 18.1484 2.98257 18.1484 6.64844C18.1484 10.3143 15.1659 13.2969 11.5 13.2969C6.56298 13.2969 3.91821 15.1522 3.01047 15.9499C2.23925 16.6276 1.79688 17.6088 1.79688 18.6426V20.3047C1.79688 20.8001 2.19994 21.2031 2.69531 21.2031H20.3047C20.8001 21.2031 21.2031 20.8001 21.2031 20.3047V18.6426C21.2031 17.6088 20.7607 16.6276 19.9895 15.9499C19.364 15.4001 18.5929 14.9199 17.6982 14.5222C17.2447 14.3206 17.0405 13.7898 17.2419 13.3364C17.4434 12.8829 17.9742 12.6787 18.4278 12.8801ZM11.5 1.79688C8.82487 1.79688 6.64844 3.9733 6.64844 6.64844C6.64844 9.32357 8.82487 11.5 11.5 11.5C14.1751 11.5 16.3516 9.32357 16.3516 6.64844C16.3516 3.9733 14.1751 1.79688 11.5 1.79688Z" fill="white"/>
</svg>
