<svg width="11" height="12" viewBox="0 0 11 12" fill="none" xmlns="http://www.w3.org/2000/svg">
<path fill-rule="evenodd" clip-rule="evenodd" d="M2.375 3.90499C2.375 2.27289 3.73648 0.946289 5.4115 0.946289C7.08651 0.946289 8.44799 2.27289 8.44799 3.90499C8.44799 5.53709 7.08651 6.86369 5.4115 6.86369C3.73648 6.86369 2.375 5.53709 2.375 3.90499ZM3.42715 3.90294C3.42715 4.96914 4.31726 5.83645 5.4115 5.83645C6.50573 5.83645 7.39585 4.97119 7.39585 3.90499C7.39585 2.83879 6.50362 1.97148 5.4115 1.97148C4.31937 1.97148 3.42715 2.83674 3.42715 3.90294Z" fill="#2B3134"/>
<path d="M10.251 9.65216C9.97746 8.67002 9.40509 7.80681 8.59494 7.15889C8.36978 6.97846 8.0394 7.01127 7.85422 7.22861C7.66905 7.448 7.70271 7.76991 7.92577 7.95034C8.56548 8.46499 9.02 9.14571 9.23464 9.92076C9.27883 10.0827 9.20939 10.2017 9.1652 10.2611C9.08524 10.3616 8.96529 10.421 8.83482 10.421C8.54443 10.421 8.30875 10.6507 8.30875 10.9336C8.30875 11.2166 8.54443 11.4462 8.83482 11.4462C9.29567 11.4462 9.72073 11.2412 10.0006 10.8844C10.2784 10.5297 10.371 10.0807 10.251 9.65216Z" fill="#2B3134"/>
<path d="M6.94596 10.4191H1.99035C1.81359 10.4191 1.71048 10.3207 1.66418 10.2612C1.58422 10.1587 1.55897 10.0295 1.59474 9.9065C1.81148 9.13966 2.2618 8.46303 2.89519 7.95454C3.11825 7.77411 3.15192 7.4522 2.96674 7.23281C2.78156 7.01342 2.45119 6.98266 2.22603 7.16309C1.42429 7.80896 0.854029 8.66192 0.580471 9.63585C0.458422 10.0705 0.548906 10.5257 0.828777 10.8845C1.10444 11.2393 1.52951 11.4443 1.99035 11.4443H6.94596C7.23635 11.4443 7.47203 11.2146 7.47203 10.9317C7.47203 10.6487 7.23635 10.4191 6.94596 10.4191Z" fill="#2B3134"/>
</svg>
