<svg width="12" height="15" viewBox="0 0 12 15" fill="none" xmlns="http://www.w3.org/2000/svg">
<path fill-rule="evenodd" clip-rule="evenodd" d="M2.104 3.92857C2.104 1.76146 3.83366 0 5.96164 0C8.08963 0 9.81928 1.76146 9.81928 3.92857C9.81928 6.09568 8.08963 7.85714 5.96164 7.85714C3.83366 7.85714 2.104 6.09568 2.104 3.92857ZM3.44068 3.92585C3.44068 5.34155 4.5715 6.49317 5.96164 6.49317C7.35178 6.49317 8.48261 5.34427 8.48261 3.92857C8.48261 2.51287 7.34911 1.36125 5.96164 1.36125C4.57418 1.36125 3.44068 2.51015 3.44068 3.92585Z"/>
<path d="M11.8533 11.958C11.4797 10.6837 10.698 9.56372 9.59169 8.72305C9.28421 8.48894 8.83305 8.53151 8.58017 8.8135C8.32729 9.09816 8.37327 9.51583 8.67787 9.74994C9.55146 10.4177 10.1722 11.3009 10.4653 12.3065C10.5256 12.5167 10.4308 12.671 10.3705 12.7481C10.2613 12.8785 10.0975 12.9556 9.91929 12.9556C9.52273 12.9556 9.20088 13.2536 9.20088 13.6207C9.20088 13.9879 9.52273 14.2858 9.91929 14.2858C10.5486 14.2858 11.1291 14.0198 11.5113 13.5569C11.8906 13.0966 12.0171 12.514 11.8533 11.958Z"/>
<path d="M7.77909 12.954H1.7731C1.55887 12.954 1.43391 12.8261 1.3778 12.7489C1.28089 12.6157 1.25028 12.4479 1.29364 12.2881C1.55632 11.2919 2.10209 10.4129 2.86973 9.75227C3.14007 9.51787 3.18087 9.09967 2.95644 8.81466C2.73202 8.52965 2.33162 8.4897 2.05873 8.7241C1.08706 9.56315 0.395928 10.6712 0.0643875 11.9365C-0.0835307 12.5012 0.0261328 13.0925 0.365325 13.5586C0.699416 14.0195 1.21458 14.2858 1.7731 14.2858H7.77909C8.13103 14.2858 8.41667 13.9875 8.41667 13.6199C8.41667 13.2523 8.13103 12.954 7.77909 12.954Z" />
</svg>
