<svg width="21" height="21" viewBox="0 0 21 21" fill="none" xmlns="http://www.w3.org/2000/svg">
<path d="M8.5732 3.18876C8.5732 2.05796 9.49319 1.13798 10.624 1.13798H11.3337L11.1196 0.542842C10.9992 0.208154 10.6838 0 10.3477 0C10.2545 0 10.1598 0.0159961 10.0672 0.0497109L2.89545 2.65999C2.4691 2.81519 2.24966 3.28699 2.40577 3.71302L2.78471 4.74735H8.5732V3.18876Z" fill="black"/>
<path d="M10.625 2.36841C10.1719 2.36841 9.80469 2.73566 9.80469 3.18872V4.74731H16.9824V3.18872C16.9824 2.73566 16.6152 2.36841 16.1621 2.36841L10.625 2.36841Z" fill="black"/>
<path d="M19.1543 16.5803H16.2832C14.587 16.5803 13.207 15.2004 13.207 13.5042C13.207 11.8079 14.587 10.428 16.2832 10.428H19.1543V7.61841C19.1543 6.71233 18.4197 5.97778 17.5137 5.97778H1.64062C0.734549 5.97778 0 6.71233 0 7.61841V19.3593C0 20.2654 0.734549 21 1.64062 21H17.5137C18.4197 21 19.1543 20.2654 19.1543 19.3593V16.5803Z" fill="black"/>
<path fill-rule="evenodd" clip-rule="evenodd" d="M16.2832 11.6584H20.3848C20.724 11.6584 21 11.9344 21 12.2737V14.7346C21 15.0739 20.724 15.3499 20.3848 15.3499H16.2832C15.2655 15.3499 14.4375 14.5219 14.4375 13.5042C14.4375 12.4864 15.2655 11.6584 16.2832 11.6584ZM15.668 13.5042C15.668 13.8439 15.9434 14.1194 16.2832 14.1194C16.623 14.1194 16.8984 13.8439 16.8984 13.5042C16.8984 13.1644 16.623 12.8889 16.2832 12.8889C15.9434 12.8889 15.668 13.1644 15.668 13.5042Z" fill="black"/>
</svg>
