<svg width="81" height="81" viewBox="0 0 81 81" fill="none" xmlns="http://www.w3.org/2000/svg">
<g clip-path="url(#clip0_0_47602)">
<circle cx="40.5" cy="40.5" r="29.5" fill="white"/>
<circle opacity="0.246319" cx="40.5" cy="40.5" r="34.5" fill="white"/>
<circle opacity="0.145637" cx="40.5" cy="40.5" r="40.5" fill="white"/>
<g filter="url(#filter0_d_0_47602)">
<path d="M51.5247 25H29.4746V26.8164H31.971V35.852C31.974 40.4908 35.7405 44.3099 40.3788 44.3742C45.1444 44.4401 49.0283 40.5968 49.0283 35.8463V26.8164H51.5247V25Z" fill="url(#paint0_linear_0_47602)"/>
</g>
<g filter="url(#filter1_d_0_47602)">
<path d="M46.4048 52.0209C46.4048 51.0177 45.5916 50.2044 44.5884 50.2044H43.1644V45.8446C42.3006 46.0747 41.4092 46.1915 40.5003 46.1915C40.452 46.1915 40.4028 46.1912 40.3543 46.1905C39.4963 46.1786 38.6539 46.0619 37.8362 45.8425V50.2044H36.4122C35.409 50.2044 34.5958 51.0177 34.5958 52.0209V54.1837H31.9717V56.0001H49.0289V54.1837H46.4048V52.0209Z" fill="url(#paint1_linear_0_47602)"/>
</g>
<g filter="url(#filter2_d_0_47602)">
<path d="M50.8452 28.6328V30.4492H54.1837V34.536C54.1837 36.8002 52.518 38.6823 50.3477 39.0221C50.255 39.3093 50.15 39.5935 50.0316 39.8737C49.8833 40.2242 49.7163 40.5641 49.5322 40.8934H49.6427C53.1482 40.8934 56.0001 38.0415 56.0001 34.536V28.6328H50.8452Z" fill="url(#paint2_linear_0_47602)"/>
</g>
<g filter="url(#filter3_d_0_47602)">
<path d="M30.6575 39.023C28.4847 38.6853 26.8164 36.802 26.8164 34.536V30.4492H30.1549V28.6328H25V34.536C25 38.0415 27.8519 40.8934 31.3574 40.8934H31.4778C31.2862 40.5523 31.1131 40.2 30.9601 39.8366C30.8472 39.5687 30.7468 39.2972 30.6575 39.023Z" fill="url(#paint3_linear_0_47602)"/>
</g>
<g filter="url(#filter4_d_0_47602)">
<path d="M39.9144 40V32.32L40.7544 33.16H38.2344V31.6H41.8584V40H39.9144Z" fill="white"/>
</g>
</g>
<defs>
<filter id="filter0_d_0_47602" x="29.4746" y="25" width="22.0498" height="21.375" filterUnits="userSpaceOnUse" color-interpolation-filters="sRGB">
<feFlood flood-opacity="0" result="BackgroundImageFix"/>
<feColorMatrix in="SourceAlpha" type="matrix" values="0 0 0 0 0 0 0 0 0 0 0 0 0 0 0 0 0 0 127 0" result="hardAlpha"/>
<feOffset dy="2"/>
<feColorMatrix type="matrix" values="0 0 0 0 0 0 0 0 0 0 0 0 0 0 0 0 0 0 0.5 0"/>
<feBlend mode="normal" in2="BackgroundImageFix" result="effect1_dropShadow_0_47602"/>
<feBlend mode="normal" in="SourceGraphic" in2="effect1_dropShadow_0_47602" result="shape"/>
</filter>
<filter id="filter1_d_0_47602" x="31.9717" y="45.8425" width="17.0576" height="12.1575" filterUnits="userSpaceOnUse" color-interpolation-filters="sRGB">
<feFlood flood-opacity="0" result="BackgroundImageFix"/>
<feColorMatrix in="SourceAlpha" type="matrix" values="0 0 0 0 0 0 0 0 0 0 0 0 0 0 0 0 0 0 127 0" result="hardAlpha"/>
<feOffset dy="2"/>
<feColorMatrix type="matrix" values="0 0 0 0 0 0 0 0 0 0 0 0 0 0 0 0 0 0 0.5 0"/>
<feBlend mode="normal" in2="BackgroundImageFix" result="effect1_dropShadow_0_47602"/>
<feBlend mode="normal" in="SourceGraphic" in2="effect1_dropShadow_0_47602" result="shape"/>
</filter>
<filter id="filter2_d_0_47602" x="49.5322" y="28.6328" width="6.46777" height="14.2607" filterUnits="userSpaceOnUse" color-interpolation-filters="sRGB">
<feFlood flood-opacity="0" result="BackgroundImageFix"/>
<feColorMatrix in="SourceAlpha" type="matrix" values="0 0 0 0 0 0 0 0 0 0 0 0 0 0 0 0 0 0 127 0" result="hardAlpha"/>
<feOffset dy="2"/>
<feColorMatrix type="matrix" values="0 0 0 0 0 0 0 0 0 0 0 0 0 0 0 0 0 0 0.5 0"/>
<feBlend mode="normal" in2="BackgroundImageFix" result="effect1_dropShadow_0_47602"/>
<feBlend mode="normal" in="SourceGraphic" in2="effect1_dropShadow_0_47602" result="shape"/>
</filter>
<filter id="filter3_d_0_47602" x="25" y="28.6328" width="6.47754" height="14.2607" filterUnits="userSpaceOnUse" color-interpolation-filters="sRGB">
<feFlood flood-opacity="0" result="BackgroundImageFix"/>
<feColorMatrix in="SourceAlpha" type="matrix" values="0 0 0 0 0 0 0 0 0 0 0 0 0 0 0 0 0 0 127 0" result="hardAlpha"/>
<feOffset dy="2"/>
<feColorMatrix type="matrix" values="0 0 0 0 0 0 0 0 0 0 0 0 0 0 0 0 0 0 0.5 0"/>
<feBlend mode="normal" in2="BackgroundImageFix" result="effect1_dropShadow_0_47602"/>
<feBlend mode="normal" in="SourceGraphic" in2="effect1_dropShadow_0_47602" result="shape"/>
</filter>
<filter id="filter4_d_0_47602" x="34.2344" y="29.6001" width="11.624" height="16.3999" filterUnits="userSpaceOnUse" color-interpolation-filters="sRGB">
<feFlood flood-opacity="0" result="BackgroundImageFix"/>
<feColorMatrix in="SourceAlpha" type="matrix" values="0 0 0 0 0 0 0 0 0 0 0 0 0 0 0 0 0 0 127 0" result="hardAlpha"/>
<feOffset dy="2"/>
<feGaussianBlur stdDeviation="2"/>
<feColorMatrix type="matrix" values="0 0 0 0 0 0 0 0 0 0 0 0 0 0 0 0 0 0 0.5 0"/>
<feBlend mode="normal" in2="BackgroundImageFix" result="effect1_dropShadow_0_47602"/>
<feBlend mode="normal" in="SourceGraphic" in2="effect1_dropShadow_0_47602" result="shape"/>
</filter>
<linearGradient id="paint0_linear_0_47602" x1="18.5792" y1="34.6305" x2="37.6658" y2="56.4809" gradientUnits="userSpaceOnUse">
<stop stop-color="#00E476"/>
<stop offset="0.476746" stop-color="#00B2FD"/>
<stop offset="1" stop-color="#0074F0"/>
</linearGradient>
<linearGradient id="paint1_linear_0_47602" x1="23.5434" y1="50.8915" x2="32.3966" y2="65.8464" gradientUnits="userSpaceOnUse">
<stop stop-color="#00E476"/>
<stop offset="0.476746" stop-color="#00B2FD"/>
<stop offset="1" stop-color="#0074F0"/>
</linearGradient>
<linearGradient id="paint2_linear_0_47602" x1="46.3363" y1="34.7271" x2="56.43" y2="40.0834" gradientUnits="userSpaceOnUse">
<stop stop-color="#00E476"/>
<stop offset="0.476746" stop-color="#00B2FD"/>
<stop offset="1" stop-color="#0074F0"/>
</linearGradient>
<linearGradient id="paint3_linear_0_47602" x1="21.7992" y1="34.7271" x2="31.9016" y2="40.0962" gradientUnits="userSpaceOnUse">
<stop stop-color="#00E476"/>
<stop offset="0.476746" stop-color="#00B2FD"/>
<stop offset="1" stop-color="#0074F0"/>
</linearGradient>
<clipPath id="clip0_0_47602">
<rect width="81" height="81" fill="white"/>
</clipPath>
</defs>
</svg>
