<svg width="27" height="7" viewBox="0 0 27 7" fill="none" xmlns="http://www.w3.org/2000/svg">
<path d="M26.0115 1.02512C27.3295 2.39196 27.3295 4.60804 26.0115 5.97488C24.6935 7.34171 22.5565 7.34171 21.2385 5.97488C19.9205 4.60804 19.9205 2.39196 21.2385 1.02512C22.5565 -0.341708 24.6935 -0.341708 26.0115 1.02512Z" fill="white"/>
<path d="M15.8865 1.02512C17.2045 2.39196 17.2045 4.60804 15.8865 5.97488C14.5685 7.34171 12.4315 7.34171 11.1135 5.97488C9.7955 4.60804 9.7955 2.39196 11.1135 1.02512C12.4315 -0.341708 14.5685 -0.341708 15.8865 1.02512Z" fill="white"/>
<path d="M5.76149 1.02512C7.07951 2.39196 7.07951 4.60804 5.76149 5.97488C4.44347 7.34171 2.30653 7.34171 0.988514 5.97488C-0.329505 4.60804 -0.329505 2.39196 0.988514 1.02512C2.30653 -0.341708 4.44347 -0.341708 5.76149 1.02512Z" fill="white"/>
</svg>
